<svg xmlns="http://www.w3.org/2000/svg" fill="none" viewBox="0 0 200 200" id="Empty-Order--Streamline-Brooklyn.svg"><desc>Empty Order Streamline Illustration: https://streamlinehq.com</desc><g id="empty-order--e-commerce-empty-order"><g id="question mark"><path id="vector" fill="#000000" d="M96.8082 23.8718C96.6784 21.0307 100.1489 17.5507 101.4045 14.9232C103.4435 10.661 93.4707 9.8797 90.2107 13.4068C89.3477 14.3399 88.5047 13.6372 88.8283 12.5502C89.8661 9.0577 96.7779 6.8302 102.3135 9.7069C107.9696 12.6465 102.833 18.0827 101.0736 21.0412C98.7885 24.8835 99.398 26.4773 97.8754 26.2669C96.8344 26.1234 96.7276 24.9777 96.8082 23.8718Z" stroke-width="1"></path><path id="vector_2" fill="#000000" d="M99.819 31.104C99.8452 32.9231 96.9266 33.2121 96.848 31.3041C96.7632 29.2379 99.7918 29.24 99.819 31.104Z" stroke-width="1"></path><path id="vector_3" fill="#000000" d="M47.7537 37.3161C47.6238 34.475 51.0944 30.995 52.35 28.3675C54.389 24.1053 44.4162 23.324 41.1561 26.8511C40.2932 27.7842 39.4502 27.0815 39.7738 25.9945C40.8116 22.5019 47.7233 20.2745 53.259 23.1512C58.9151 26.0908 53.7784 31.527 52.0191 34.4854C49.734 38.3277 50.3435 39.9216 48.8208 39.7111C47.7799 39.5677 47.673 38.422 47.7537 37.3161Z" stroke-width="1"></path><path id="vector_4" fill="#000000" d="M50.7645 44.5496C50.7907 46.3686 47.872 46.6577 47.7935 44.7496C47.7087 42.6834 50.7373 42.6855 50.7645 44.5496Z" stroke-width="1"></path><path id="vector_5" fill="#000000" d="M149.5386 34.5421C149.4087 31.701 152.8792 28.221 154.1349 25.5935C156.1738 21.3313 146.201 20.55 142.941 24.0771C142.0781 25.0102 141.235 24.3075 141.5586 23.2205C142.5964 19.7279 149.5082 17.5005 155.0439 20.3772C160.7 23.3168 155.5633 28.753 153.8039 31.7114C151.5189 35.5537 152.1284 37.1476 150.6057 36.9371C149.5647 36.7937 149.4579 35.648 149.5386 34.5421Z" stroke-width="1"></path><path id="vector_6" fill="#000000" d="M152.5483 41.7763C152.5745 43.5954 149.6559 43.8844 149.5773 41.9763C149.4925 39.9101 152.5211 39.9122 152.5483 41.7763Z" stroke-width="1"></path></g><g id="box"><path id="vector_7" fill="#103164" d="M60.5823 167.9462C39.8544 160.8072 38.5548 160.5245 39.3046 159.1086C39.7539 158.2604 40.3393 158.5316 47.4573 161.0659C61.6987 166.1366 61.9029 165.7722 61.8202 167.1482C61.7856 167.7295 61.3238 167.9305 60.5823 167.9462Z" stroke-width="1"></path><path id="vector_8" fill="#103164" d="M52.4704 156.5314C54.0381 157.0917 53.1072 158.8081 52.0233 158.429C44.8047 155.902 39.1632 155.2936 40.7896 153.2263C41.375 152.4828 41.0137 152.4346 52.4704 156.5314Z" stroke-width="1"></path><path id="vector_9" fill="#103164" d="M135.6041 150.6428C135.5915 148.6216 134.9977 148.2321 133.1169 148.8426C108.4556 156.833 108.3257 156.4109 108.3404 158.5473C108.4409 173.5269 107.8995 174.6129 109.795 174.3878C112.5063 174.0663 120.0516 171.0712 134.5034 165.8884C135.935 165.3732 135.692 165.8601 135.6041 150.6428ZM132.7546 164.4129C129.8705 165.4098 114.7222 170.6617 111.3617 172.065C110.1134 172.5865 110.2987 172.2399 110.4097 166.4571C110.5396 159.6867 109.4127 158.784 111.1229 158.2771C136.2251 150.8271 133.497 149.1065 133.5913 153.3572C133.8363 164.2223 134.1662 163.9248 132.7546 164.4139V164.4129Z" stroke-width="1"></path><path id="vector_10" fill="#103164" d="M113.6362 167.6865C112.5775 167.7054 112.5503 166.8959 113.1566 166.6068C115.4815 165.4978 114.0206 166.0958 129.6013 160.2417C130.1061 160.0522 130.702 159.8542 130.9669 160.4585C131.2455 161.0931 130.6685 161.3717 130.17 161.5654C127.4315 162.6284 116.4502 166.8341 113.6373 167.6865H113.6362Z" stroke-width="1"></path><path id="vector_11" fill="#103164" d="M113.2875 162.9174C112.1523 162.9132 112.1251 162.2168 112.9168 161.8094C114.3777 161.0565 121.8507 158.3337 123.0886 157.8802C124.7348 157.2781 125.8669 158.5023 122.8498 159.5883C122.6665 159.6542 114.3756 162.6525 113.2875 162.9174Z" stroke-width="1"></path><path id="vector_12" fill="#103164" d="M83.2057 83.2983C82.171 84.6911 80.8568 85.8734 79.4472 87.3836C85.0677 86.8233 88.8796 89.4403 92.2297 93.4806C93.3283 86.7175 93.4801 87.3092 93.2822 86.2033C92.4832 81.7055 85.8573 79.7314 83.2057 83.2983Z" stroke-width="1"></path><path id="vector_13" fill="#103164" d="M189.8068 94.1706C184.4879 90.6445 174.0575 84.2438 169.8664 82.0394C168.5029 81.3221 168.9438 82.1473 177.572 68.4673C179.0612 66.1089 176.5478 66.0879 168.6506 63.8888C108.4619 47.1414 108.9666 46.9047 108.0995 48.5751C99.2577 65.5926 99.9646 65.2606 99.2849 63.8427C98.1456 61.4644 97.445 60.6696 89.9468 48.0441C89.1435 46.6942 88.3393 47.1047 84.9818 47.7656C76.5872 49.4244 30.5413 58.7353 22.2588 60.8759C19.3433 61.6278 20.3381 62.053 27.1274 72.0582C33.8674 81.9934 34.4727 81.4697 33.3249 82.3253C31.7959 83.4626 21.3351 91.7724 11.2293 100.3744C4.2348 106.327 3.8306 106.6506 5.9837 107.7114C9.4741 109.4341 32.285 117.2486 32.3237 117.2633C33.0306 117.4999 33.2401 117.7952 33.2118 118.5021C33.0243 123.1068 33.0139 123.6346 32.8411 153.3269C32.7709 165.5533 32.2452 165.3721 35.8906 166.8247C61.3227 176.9577 85.3735 185.457 99.4525 191.2535C101.371 192.0421 101.2883 192.2463 122.4717 184.0056C169.435 165.7355 168.7344 167.5797 168.7071 164.0484C168.5982 149.6354 169.5271 114.7279 169.3145 112.468C169.3512 104.3069 167.4976 108.0612 189.6016 96.9489C190.8897 96.2996 190.9965 94.9592 189.8079 94.1716L189.8068 94.1706ZM109.3761 50.8633C110.1835 49.2872 109.5405 50.2758 172.7756 67.353C175.3696 68.0515 175.1906 68.1384 174.0533 69.7931C166.8682 80.2727 167.596 80.7241 166.5676 80.5859C103.3419 65.2009 117.3037 68.572 103.1398 65.2502C101.436 64.8512 101.6046 66.0461 109.3771 50.8643L109.3761 50.8632ZM24.1323 63.4384C23.438 62.476 21.6922 63.4594 72.6485 52.743C88.4209 49.4265 87.8135 48.9542 88.5445 50.1847C97.6083 65.4271 98.0963 64.8271 96.5726 65.203C66.828 72.4865 67.648 72.8018 36.2477 80.3691C35.5063 80.5482 36.3001 80.3199 24.1323 63.4384ZM11.0816 107.2674C5.2632 105.2588 6.322 109.6781 34.9554 84.1726C35.7241 83.4867 35.1083 83.7506 51.1583 89.9167C98.0042 107.9146 98.0283 107.4779 98.0764 107.747C98.1696 108.2644 68.2166 127.4015 67.9653 127.3722C61.1583 125.0913 57.9412 123.4419 11.0817 107.2674ZM49.9016 169.6595C35.5639 164.2191 35.3963 164.3019 35.4005 162.864C35.5073 119.3724 35.4665 121.0228 35.2665 119.3546C35.0581 117.6078 35.6393 118.4822 48.9266 123.0199C66.2981 128.9504 66.1662 128.7723 66.3452 128.8865C68.4428 130.2343 69.1518 129.7641 83.0926 120.5997C99.5844 109.7577 99.2263 109.8321 99.4316 109.786V187.4374C99.4399 189.181 101.1532 189.1066 49.9016 169.6595ZM93.0916 97.572C92.9104 98.5543 92.6444 99.5272 92.3847 100.498C92.3062 100.8007 92.1439 101.1117 91.7396 101.0374C90.5175 100.8175 92.1271 97.2358 91.505 96.1237C87.8847 89.6423 82.2171 87.9605 77.7685 89.524C76.6123 89.9303 73.9283 93.8386 73.1282 93.1359C72.6663 92.7327 72.5449 92.673 77.049 87.7385C93.9608 69.2024 93.8498 69.1406 94.5912 69.8171C95.3191 70.4842 94.9127 70.6602 86.6134 79.6433C89.7541 79.6193 92.1082 80.7293 94.054 83.1621C96.3328 69.5857 96.3202 68.6484 97.336 68.8956C98.2052 69.1103 97.9351 69.7857 95.5002 84.3926C96.4522 84.1747 97.3381 83.958 98.2262 83.7684C100.6799 83.2469 101.747 84.4376 101.3951 83.0961C101.2412 82.5075 98.9435 73.7338 98.8399 72.8164C98.71 71.6341 99.9447 71.3 100.3688 72.4132C100.4557 72.6332 102.967 82.828 102.9733 82.8552C107.4523 76.2723 111.5177 79.8947 109.2368 77.6588C102.3858 70.9419 99.153 68.3782 100.7814 68.0609C102.1743 68.0871 126.1182 91.4499 127.0869 92.45C126.8188 92.8312 126.5287 93.204 126.2177 93.5705C124.2908 92.0395 123.253 90.8299 122.2969 90.1398C116.9748 86.2849 104.608 92.8144 106.3695 97.1227C106.646 97.7982 106.5779 98.6203 106.6439 99.3785C106.6889 99.8853 106.1538 100.1597 105.9087 99.5429C104.8227 96.8023 105.0395 95.8305 102.9744 95.0754C98.1058 93.2972 93.4162 95.7959 93.0927 97.571L93.0916 97.572ZM166.6284 159.4259C166.5771 164.3092 166.4922 164.2861 165.6827 164.5961C97.4397 190.644 101.4747 190.2565 101.4841 188.7537C101.8381 125.616 101.8988 147.1869 101.8988 111.1694C108.0817 118.0309 115.4521 125.7814 118.4912 128.8394C120.0862 130.4469 119.2169 130.2626 137.5456 121.6836C142.3325 119.4415 160.7063 110.7987 166.1749 108.1261C167.8578 107.304 167.2159 103.6859 166.6284 159.4259ZM187.1929 95.2806C187.1542 95.5362 187.1353 95.178 130.2967 122.2952C119.5269 127.434 120.8789 127.8958 119.0305 125.8621C105.7966 111.2972 109.728 115.5824 102.722 108.346C112.9702 104.1404 139.1668 94.6931 167.2232 83.827C168.6799 83.2647 167.3426 83.6124 182.1431 92.1389C187.3008 95.1099 187.2264 95.0628 187.194 95.2806H187.1929Z" stroke-width="1"></path><path id="vector_14" fill="#103164" d="M102.3429 86.9907C101.902 85.2272 101.6035 85.2209 99.3101 85.2209V85.2534C95.762 85.2534 95.2447 85.8796 94.8038 88.1898C92.3994 100.7976 93.7315 90.2152 103.3838 93.6354C104.3504 93.9779 104.0886 93.9622 102.3429 86.9907Z" stroke-width="1"></path><path id="vector_15" fill="#103164" d="M118.9761 87.1081C118.2221 86.0829 114.3358 82.4521 113.2194 81.5107C110.7218 79.4068 106.7371 79.6895 103.6833 84.7519C103.4508 85.1372 103.5252 84.9864 105.5401 93.3067C108.6943 89.0047 113.6394 87.1469 118.9761 87.1081Z" stroke-width="1"></path></g><g id="spider 1"><path id="vector_16" fill="#000000" d="M8.6552 134.5677C7.8572 136.8748 10.0931 139.3243 12.9279 138.054C14.7993 137.2151 15.5345 134.7007 14.1699 133.1655C12.5719 131.3674 9.3202 132.645 8.6552 134.5677Z" stroke-width="1"></path><path id="vector_17" fill="#000000" d="M16.1732 137.2036C19.0102 137.411 18.2237 139.9641 19.5254 139.3096C20.6103 138.763 19.0144 135.5951 15.7606 136.1784C14.7081 136.3669 15.1071 137.1261 16.1732 137.2036Z" stroke-width="1"></path><path id="vector_18" fill="#000000" d="M10.6806 121.183C10.5675 111.3977 10.4701 111.4239 11.1958 111.4249C11.9132 111.4249 11.9341 111.7674 12.0158 119.5096C12.1383 131.048 12.1163 131.0061 11.3853 131.0124C10.3402 131.0218 10.7832 130.0343 10.6806 121.183Z" stroke-width="1"></path><path id="vector_19" fill="#000000" d="M4.6935 130.7987C7.4771 130.9307 8.9694 132.8136 8.2688 133.5697C7.5682 134.3258 6.2832 131.3925 3.3876 132.6523C1.4219 133.5079 1.2816 130.8982 4.6935 130.7987Z" stroke-width="1"></path><path id="vector_20" fill="#000000" d="M20.2931 131.426C19.6585 131.3307 17.4363 130.5694 15.8591 132.4398C15.1344 133.2995 14.3982 132.7791 14.8538 131.7538C15.8434 129.5263 19.2941 128.9839 20.689 130.2311C21.3529 130.8249 20.8932 131.469 20.2931 131.426Z" stroke-width="1"></path><path id="vector_21" fill="#000000" d="M7.7075 135.2788C7.3818 136.7439 5.68 134.1604 3.3101 136.3774C2.7331 136.9167 1.8576 136.3344 2.2556 135.572C3.2337 133.6964 6.8582 133.4147 7.7075 135.2799V135.2788Z" stroke-width="1"></path><path id="vector_22" fill="#000000" d="M18.6134 132.9131C19.9528 132.9131 21.7802 133.9949 21.0649 134.9699C20.3497 135.9448 19.5182 133.4231 16.6634 134.684C15.1282 135.3615 15.1721 132.9131 18.6123 132.9142L18.6134 132.9131Z" stroke-width="1"></path><path id="vector_23" fill="#000000" d="M4.0233 139.8688C4.0107 137.2853 8.3913 136.0967 8.3976 137.5199C8.4018 138.453 6.2707 137.4392 5.3564 139.9411C4.9281 141.1129 3.883 140.6605 4.0233 139.8688Z" stroke-width="1"></path></g><g id="spider 2"><path id="vector_24" fill="#000000" d="M182.5505 130.3003C181.5703 133.1299 184.2177 135.9124 187.7825 134.5929C191.0823 133.3708 190.1555 129.6803 189.5167 128.81C187.6411 126.2579 183.3967 127.8602 182.5516 130.3003H182.5505Z" stroke-width="1"></path><path id="vector_25" fill="#000000" d="M191.7892 133.5373C195.2776 133.7928 194.3089 136.9314 195.9101 136.125C197.1793 135.4862 195.4629 131.9266 191.8447 132.2062C190.9399 132.2764 191.0363 133.4818 191.7892 133.5373Z" stroke-width="1"></path><path id="vector_26" fill="#000000" d="M186.6819 111.7956C186.5813 102.2805 186.5562 101.8605 185.6744 101.8605C184.7843 101.8584 184.8995 101.8302 185.0398 113.8524C185.1676 124.7321 184.6251 125.9448 185.9069 125.9333C186.8054 125.9249 186.8316 125.9741 186.6819 111.7967V111.7956Z" stroke-width="1"></path><path id="vector_27" fill="#000000" d="M177.684 125.6683C173.4909 125.7919 173.6616 128.9996 176.0786 127.9492C179.6371 126.3993 181.2363 129.9798 182.0761 129.076C182.938 128.1461 181.1053 125.8307 177.684 125.6683Z" stroke-width="1"></path><path id="vector_28" fill="#000000" d="M197.3385 124.9719C195.6263 123.4409 191.386 124.1069 190.1681 126.8433C189.6058 128.1042 190.5116 128.743 191.4018 127.6864C193.3402 125.3866 196.0703 126.3229 196.8516 126.4412C197.5899 126.4925 198.1543 125.7019 197.3375 124.973L197.3385 124.9719Z" stroke-width="1"></path><path id="vector_29" fill="#000000" d="M174.69 131.5349C174.202 132.4701 175.2775 133.1875 175.9865 132.5235C178.8978 129.7997 180.9912 132.9749 181.3912 131.1737C180.3461 128.8844 175.8943 129.231 174.691 131.5339L174.69 131.535Z" stroke-width="1"></path><path id="vector_30" fill="#000000" d="M194.7896 128.2644C196.4358 128.2644 198.68 129.5976 197.8035 130.7925C196.8976 132.0292 195.9017 128.8907 192.3945 130.4406C190.5074 131.2752 190.5619 128.2634 194.7896 128.2644Z" stroke-width="1"></path><path id="vector_31" fill="#000000" d="M176.862 136.812C176.8473 133.6347 182.229 132.178 182.2374 133.9279C182.2437 135.0757 179.6256 133.8294 178.4998 136.9031C177.972 138.343 176.6892 137.7869 176.862 136.812Z" stroke-width="1"></path></g></g></svg>