<svg width="821" height="441" viewBox="0 0 821 441" fill="none" xmlns="http://www.w3.org/2000/svg">
<path fill-rule="evenodd" clip-rule="evenodd" d="M15.5555 229.556L15.5555 90.8889H35.5555L35.5555 229.556H15.5555Z" fill="black"/>
<path fill-rule="evenodd" clip-rule="evenodd" d="M18.69 230.747L27.8285 212.957L84.8483 242.247L167.942 228.019L171.317 247.732L81.6459 263.086L18.69 230.747Z" fill="black"/>
<path fill-rule="evenodd" clip-rule="evenodd" d="M149.015 55.591L18.0517 101.813L13.0594 87.6683L144.022 41.4461L149.015 55.591Z" fill="black"/>
<path fill-rule="evenodd" clip-rule="evenodd" d="M157.601 19.412L7.37863 73.3379L0.621338 54.514L150.844 0.588058L157.601 19.412Z" fill="#ACEDFF"/>
<path fill-rule="evenodd" clip-rule="evenodd" d="M161.325 115.753L38.0656 158.124L31.564 139.21L154.823 96.8394L161.325 115.753Z" fill="#ACEDFF"/>
<path fill-rule="evenodd" clip-rule="evenodd" d="M172.88 177.383L49.6212 219.753L43.1196 200.839L166.379 158.469L172.88 177.383Z" fill="#ACEDFF"/>
<path d="M210.5 231V126H240.2V207.45H290.3V231H210.5ZM329.353 166.65H378.103V188.85H329.353V166.65ZM331.453 208.05H386.353V231H302.053V126H384.403V148.95H331.453V208.05ZM433.619 231L388.769 126H420.869L458.669 216.9H439.769L478.469 126H507.869L462.869 231H433.619ZM497.754 231L544.104 126H573.354L619.854 231H588.954L552.654 140.55H564.354L528.054 231H497.754ZM523.104 210.6L530.754 188.7H582.054L589.704 210.6H523.104ZM645.35 231V149.55H613.1V126H707.15V149.55H675.05V231H645.35ZM745.515 166.65H794.265V188.85H745.515V166.65ZM747.615 208.05H802.515V231H718.215V126H800.565V148.95H747.615V208.05ZM237.8 349.65H286.55V371.85H237.8V349.65ZM239.9 391.05H294.8V414H210.5V309H292.85V331.95H239.9V391.05ZM298.681 414L345.031 309H374.281L420.781 414H389.881L353.581 323.55H365.281L328.981 414H298.681ZM324.031 393.6L331.681 371.7H382.981L390.631 393.6H324.031ZM446.278 414V332.55H414.028V309H508.078V332.55H475.978V414H446.278ZM555.75 416.1C547.15 416.1 538.85 415.05 530.85 412.95C522.95 410.75 516.5 407.95 511.5 404.55L521.25 382.65C525.95 385.65 531.35 388.15 537.45 390.15C543.65 392.05 549.8 393 555.9 393C560 393 563.3 392.65 565.8 391.95C568.3 391.15 570.1 390.15 571.2 388.95C572.4 387.65 573 386.15 573 384.45C573 382.05 571.9 380.15 569.7 378.75C567.5 377.35 564.65 376.2 561.15 375.3C557.65 374.4 553.75 373.5 549.45 372.6C545.25 371.7 541 370.55 536.7 369.15C532.5 367.75 528.65 365.95 525.15 363.75C521.65 361.45 518.8 358.5 516.6 354.9C514.4 351.2 513.3 346.55 513.3 340.95C513.3 334.65 515 328.95 518.4 323.85C521.9 318.75 527.1 314.65 534 311.55C540.9 308.45 549.5 306.9 559.8 306.9C566.7 306.9 573.45 307.7 580.05 309.3C586.75 310.8 592.7 313.05 597.9 316.05L588.75 338.1C583.75 335.4 578.8 333.4 573.9 332.1C569 330.7 564.25 330 559.65 330C555.55 330 552.25 330.45 549.75 331.35C547.25 332.15 545.45 333.25 544.35 334.65C543.25 336.05 542.7 337.65 542.7 339.45C542.7 341.75 543.75 343.6 545.85 345C548.05 346.3 550.9 347.4 554.4 348.3C558 349.1 561.9 349.95 566.1 350.85C570.4 351.75 574.65 352.9 578.85 354.3C583.15 355.6 587.05 357.4 590.55 359.7C594.05 361.9 596.85 364.85 598.95 368.55C601.15 372.15 602.25 376.7 602.25 382.2C602.25 388.3 600.5 393.95 597 399.15C593.6 404.25 588.45 408.35 581.55 411.45C574.75 414.55 566.15 416.1 555.75 416.1Z" fill="#ACEDFF"/>
</svg>
