<svg width="821" height="426" viewBox="0 0 821 426" fill="none" xmlns="http://www.w3.org/2000/svg">
<line x1="25.5555" y1="90.8889" x2="25.5555" y2="229.556" stroke="black" stroke-width="20"/>
<path d="M23.2592 221.852L83.2471 252.667L169.63 237.876" stroke="black" stroke-width="20"/>
<path d="M15.5555 94.7407L146.519 48.5185" stroke="black" stroke-width="15"/>
<path d="M4 63.9259L154.222 10" stroke="#103164" stroke-width="20"/>
<path d="M34.8148 148.667L158.074 106.296" stroke="#103164" stroke-width="20"/>
<path d="M46.3704 210.296L169.63 167.926" stroke="#103164" stroke-width="20"/>
<path d="M210.944 216.63V111.63H240.644V193.08H290.744V216.63H210.944ZM329.797 152.28H378.547V174.48H329.797V152.28ZM331.897 193.68H386.797V216.63H302.497V111.63H384.847V134.58H331.897V193.68ZM434.064 216.63L389.214 111.63H421.314L459.114 202.53H440.214L478.914 111.63H508.314L463.314 216.63H434.064ZM498.198 216.63L544.548 111.63H573.798L620.298 216.63H589.398L553.098 126.18H564.798L528.498 216.63H498.198ZM523.548 196.23L531.198 174.33H582.498L590.148 196.23H523.548ZM645.794 216.63V135.18H613.544V111.63H707.594V135.18H675.494V216.63H645.794ZM745.959 152.28H794.709V174.48H745.959V152.28ZM748.059 193.68H802.959V216.63H718.659V111.63H801.009V134.58H748.059V193.68ZM238.244 335.28H286.994V357.48H238.244V335.28ZM240.344 376.68H295.244V399.63H210.944V294.63H293.294V317.58H240.344V376.68ZM299.126 399.63L345.476 294.63H374.726L421.226 399.63H390.326L354.026 309.18H365.726L329.426 399.63H299.126ZM324.476 379.23L332.126 357.33H383.426L391.076 379.23H324.476ZM446.722 399.63V318.18H414.472V294.63H508.522V318.18H476.422V399.63H446.722ZM556.194 401.73C547.594 401.73 539.294 400.68 531.294 398.58C523.394 396.38 516.944 393.58 511.944 390.18L521.694 368.28C526.394 371.28 531.794 373.78 537.894 375.78C544.094 377.68 550.244 378.63 556.344 378.63C560.444 378.63 563.744 378.28 566.244 377.58C568.744 376.78 570.544 375.78 571.644 374.58C572.844 373.28 573.444 371.78 573.444 370.08C573.444 367.68 572.344 365.78 570.144 364.38C567.944 362.98 565.094 361.83 561.594 360.93C558.094 360.03 554.194 359.13 549.894 358.23C545.694 357.33 541.444 356.18 537.144 354.78C532.944 353.38 529.094 351.58 525.594 349.38C522.094 347.08 519.244 344.13 517.044 340.53C514.844 336.83 513.744 332.18 513.744 326.58C513.744 320.28 515.444 314.58 518.844 309.48C522.344 304.38 527.544 300.28 534.444 297.18C541.344 294.08 549.944 292.53 560.244 292.53C567.144 292.53 573.894 293.33 580.494 294.93C587.194 296.43 593.144 298.68 598.344 301.68L589.194 323.73C584.194 321.03 579.244 319.03 574.344 317.73C569.444 316.33 564.694 315.63 560.094 315.63C555.994 315.63 552.694 316.08 550.194 316.98C547.694 317.78 545.894 318.88 544.794 320.28C543.694 321.68 543.144 323.28 543.144 325.08C543.144 327.38 544.194 329.23 546.294 330.63C548.494 331.93 551.344 333.03 554.844 333.93C558.444 334.73 562.344 335.58 566.544 336.48C570.844 337.38 575.094 338.53 579.294 339.93C583.594 341.23 587.494 343.03 590.994 345.33C594.494 347.53 597.294 350.48 599.394 354.18C601.594 357.78 602.694 362.33 602.694 367.83C602.694 373.93 600.944 379.58 597.444 384.78C594.044 389.88 588.894 393.98 581.994 397.08C575.194 400.18 566.594 401.73 556.194 401.73Z" fill="#103164"/>
</svg>
