<svg xmlns="http://www.w3.org/2000/svg" fill="none" viewBox="0 0 400 400" id="Food-Menu--Streamline-Brooklyn.svg" height="400" width="400"><desc>Food Menu Streamline Illustration: https://streamlinehq.com</desc><g id="food-menu--hobbies-leisure-food-menu-restaurant"><g id="menu 2"><path id="vector" fill="#103164" fill-rule="evenodd" d="M315.2102 169.9876C311.4192 170.4396 307.899 172.1818 305.2414 174.9222C302.7452 178.1238 306.0316 180.1672 309.2414 182.1258C309.3654 182.193 309.502 182.234 309.6426 182.246S309.9238 182.2408 310.0582 182.1952C310.1906 182.15 310.3148 182.0774 310.4182 181.9824C310.5216 181.8874 310.6064 181.7718 310.6622 181.6428C310.72 181.514 310.749 181.3748 310.7512 181.2338C310.7512 181.0928 310.7222 180.9532 310.6684 180.8236C310.6126 180.6942 310.5298 180.5776 310.4264 180.4814C310.323 180.385 310.201 180.3112 310.0686 180.2644C307.7502 179.402 305.2352 178.3204 306.8174 176.1094C308.8856 173.214 312.414 172.9058 315.5928 172.0412C315.8638 171.9896 316.1058 171.8322 316.2608 171.6036C316.416 171.3748 316.4738 171.0938 316.4242 170.822C316.3724 170.5502 316.2132 170.31 315.9858 170.1542C315.7562 169.9984 315.4748 169.94 315.204 169.9916L315.2102 169.9876Z" clip-rule="evenodd" stroke-width="1"></path><path id="vector_2" fill="#103164" fill-rule="evenodd" d="M331.3876 173.4406C332.4072 172.998 333.4082 171.056 335.855 170.6238C336.068 170.4942 336.2252 170.2928 336.3016 170.056C336.3762 169.8192 336.3658 169.5632 336.2664 169.3346C336.1692 169.106 335.9934 168.9204 335.7702 168.8114C335.5468 168.7026 335.2904 168.6778 335.0504 168.7416C333.737 169.7448 330.6864 170.7974 330.0454 171.844C329.8344 172.022 329.702 172.2766 329.6792 172.5516C329.6544 172.827 329.7414 173.1002 329.9212 173.3114C330.0992 173.5224 330.3536 173.6544 330.6286 173.6778C330.9036 173.7014 331.1766 173.6146 331.3876 173.4364V173.4406Z" clip-rule="evenodd" stroke-width="1"></path><path id="vector_3" fill="#103164" fill-rule="evenodd" d="M337.3254 176.1624C338.2996 175.88 339.2488 175.5204 340.165 175.0868C340.3966 174.9912 340.5848 174.8148 340.6946 174.5906C340.8062 174.3664 340.833 174.1096 340.769 173.868C340.7048 173.6262 340.556 173.4156 340.347 173.2756C340.1402 173.1354 339.89 173.075 339.6418 173.1056C338.8704 173.6416 337.981 173.9844 337.0504 174.1046C336.8414 174.0836 336.6326 174.1188 336.4422 174.2064C336.252 174.294 336.0906 174.4308 335.9708 174.6026C335.8528 174.7744 335.7804 174.975 335.766 175.1834C335.7514 175.392 335.7908 175.6006 335.8838 175.788C336.0266 176.0282 336.2582 176.2022 336.527 176.2724C336.798 176.3426 337.0834 176.303 337.3254 176.1624Z" clip-rule="evenodd" stroke-width="1"></path><path id="vector_4" fill="#103164" fill-rule="evenodd" d="M293.8994 178.3614C292.9192 185.1286 303.5744 190.1956 310.2672 191.6662C322.5584 194.3694 337.3916 192.7954 349.685 190.0116C357.027 188.357 365.2688 185.9 368.8386 179.228C374.009 169.5488 364.094 164.337 353.387 162.3102C340.6222 159.9048 331.3834 160.8872 320.0146 163.123C314.5484 163.9102 309.2082 165.4126 304.1328 167.5924C299.6884 169.7164 294.6088 173.466 293.8994 178.3614ZM305.1526 169.6956C309.99 167.4256 315.1088 165.8086 320.3724 164.8872C331.1022 162.4914 342.2064 162.3012 353.0106 164.3288C362.5678 166.0516 371.885 169.8838 367.2294 178.3448C363.9762 184.2578 355.7158 186.6508 349.263 188.1668C337.4268 190.9484 322.5832 192.7478 310.6374 190.0282C305.2498 188.8018 295.0742 184.0696 295.9408 178.6778C296.3792 178.6758 295.2562 174.56 305.1526 169.6956Z" clip-rule="evenodd" stroke-width="1"></path><path id="vector_5" fill="#103164" fill-rule="evenodd" d="M319.8284 173.3716C319.7312 173.4848 319.661 173.6168 319.6174 173.759C319.574 173.9014 319.5596 174.051 319.5762 174.1988C320.9618 182.1758 329.1932 178.2648 333.1746 178.8874C335.981 179.3258 338.1382 181.576 340.7792 182.7012C342.3676 183.4268 344.1464 183.624 345.8546 183.2636C348.2352 182.5564 348.3572 179.9712 346.9818 177.8864C345.3418 175.9276 343.47 174.1736 341.41 172.6622C337.375 169.0056 333.8094 167.3302 330.4486 167.3034C325.5718 167.2744 322.6556 170.1182 319.8284 173.3716ZM321.7002 174.4304C322.6454 173.4594 323.6526 172.5522 324.7176 171.7148C326.2874 170.2408 328.3018 169.3312 330.4466 169.1296C333.4476 169.0738 336.4154 171.0034 340.041 174.2008C341.528 175.5142 347.019 178.358 345.898 181.0446C345.7678 181.3568 345.3934 181.3982 345.0542 181.4582C340.8186 182.0972 337.739 177.8284 333.431 177.1936C329.791 176.6454 322.7426 179.938 321.7002 174.4304Z" clip-rule="evenodd" stroke-width="1"></path><path id="vector_6" fill="#103164" fill-rule="evenodd" d="M321.0052 175.6674C318.9184 176.1494 316.9474 177.0362 315.204 178.2774C314.3828 178.7402 313.6508 179.3444 313.0406 180.0624C312.0852 181.3694 312.0334 182.9434 314.3126 184.5214C314.9888 184.9934 315.723 185.3744 316.4966 185.6548C324.666 187.8636 328.6866 183.8658 338.6946 181.9464C338.9592 181.8888 339.191 181.7296 339.3398 181.5028C339.4888 181.2762 339.5426 181.0002 339.4888 180.7346C339.464 180.6028 339.4122 180.4772 339.3378 180.3654C339.2654 180.2534 339.1682 180.1578 339.0564 180.0834C338.9448 180.0092 338.8186 179.9582 338.6884 179.9332C338.556 179.9082 338.4194 179.91 338.2892 179.9382C336.6512 180.3064 334.798 181.0262 332.8084 181.6858C329.9792 182.6248 321.9588 185.0302 319.0466 184.391C317.8058 184.1202 314.5422 182.7116 314.4532 181.69C314.414 181.235 314.778 180.8524 315.2578 180.449C316.4036 179.6528 317.6878 179.0776 319.0446 178.7532C320.2276 178.3024 321.2494 177.8162 321.7642 177.6054C321.998 177.4894 322.182 177.29 322.2752 177.0458C322.3702 176.802 322.3702 176.5316 322.2752 176.288C322.178 176.0444 321.996 175.8454 321.7602 175.7308C321.5264 175.6158 321.2556 175.5932 321.0052 175.6674Z" clip-rule="evenodd" stroke-width="1"></path><path id="vector_7" fill="#103164" fill-rule="evenodd" d="M339.1786 172.8932C339.8568 172.7848 340.5414 172.7156 341.228 172.6864C343.5816 172.436 341.9582 172.0328 348.322 173.3172C349.778 173.4488 351.201 173.8132 352.5412 174.3968C353.387 174.6326 353.6952 175.0172 353.4988 175.4928C352.6984 177.4638 349.5484 177.8052 347.0522 178.4442C346.9198 178.4818 346.7978 178.5456 346.6902 178.6316C346.5848 178.7174 346.4958 178.824 346.4316 178.9446C346.3676 179.0654 346.3262 179.1978 346.3138 179.3344C346.3014 179.4706 346.3158 179.6082 346.3572 179.7388C346.4006 179.8694 346.4668 179.9902 346.5558 180.0942C346.6448 180.1982 346.7544 180.2834 346.8764 180.3446C346.9984 180.4056 347.1328 180.4416 347.2694 180.4502C347.4058 180.4588 347.5444 180.4398 347.6726 180.3944L352.2226 178.771C353.0148 178.5148 353.7282 178.0582 354.293 177.4454C354.8576 176.8328 355.2546 176.0846 355.4448 175.2736C355.5296 174.2168 354.965 173.1164 353.0872 172.5416C352.413 172.3844 351.7076 172.2706 351.0044 172.068C350.355 171.8818 349.7512 171.586 349.0996 171.4C347.2796 170.9368 345.412 170.6774 343.5342 170.6264C341.9168 170.2104 340.2126 170.3006 338.649 170.885C338.5166 170.9198 338.3926 170.9806 338.283 171.0636C338.1754 171.1466 338.0844 171.2502 338.0142 171.3684C337.9458 171.4868 337.9024 171.6176 337.8838 171.7532C337.8652 171.8888 337.8734 172.0266 337.9086 172.159C337.9438 172.2912 338.0038 172.4152 338.0864 172.524C338.1712 172.6328 338.2746 172.7242 338.3926 172.793C338.5104 172.8618 338.6408 172.9064 338.7772 172.9248C338.9118 172.943 339.0502 172.9344 339.1826 172.8994L339.1784 172.8932Z" clip-rule="evenodd" stroke-width="1"></path><path id="vector_8" fill="#103164" fill-rule="evenodd" d="M253.0546 154.554C248.9182 157.3958 252.9988 160.5414 258.585 160.7586C260.2168 160.6926 261.8424 160.5004 263.4452 160.1836C264.1298 160.103 264.8226 160.0988 265.4886 160.0616C265.7264 159.9902 265.9312 159.8354 266.0656 159.6254C266.198 159.4156 266.2518 159.1644 266.2146 158.9184C266.1774 158.6724 266.0532 158.4478 265.865 158.2858C265.6768 158.124 265.4348 158.0356 265.1866 158.0368C263.6582 158.5154 262.0678 158.7704 260.465 158.7938C257.3626 158.9282 252.2212 158.4216 254.4092 156.1466C254.6202 155.9668 254.7506 155.711 254.7712 155.4352C254.794 155.1596 254.705 154.8864 254.525 154.676C254.3452 154.4656 254.0888 154.3352 253.8136 154.3134C253.5386 154.2918 253.2656 154.3804 253.0546 154.5602V154.554Z" clip-rule="evenodd" stroke-width="1"></path><path id="vector_9" fill="#103164" fill-rule="evenodd" d="M292.5572 156.5662C295.3058 157.0004 301.3036 155.3708 304.3832 155.1184C304.532 155.11 304.6768 155.0694 304.8072 155C304.9394 154.9304 305.0532 154.8336 305.1442 154.7158C305.2332 154.598 305.2972 154.4622 305.3304 154.3174C305.3634 154.1726 305.3656 154.0224 305.3366 153.877C305.3056 153.7316 305.2456 153.5944 305.1566 153.4746C305.0698 153.3548 304.956 153.2556 304.8278 153.1832C304.6976 153.1108 304.5548 153.0672 304.4058 153.0554C304.257 153.0434 304.1102 153.0636 303.9696 153.1144C300.2426 154.0268 296.4186 154.4846 292.582 154.4772C292.3048 154.474 292.038 154.5808 291.8396 154.7744C291.641 154.968 291.5294 155.2324 291.5252 155.5094C291.521 155.7864 291.6286 156.0534 291.823 156.2516C292.0154 156.4498 292.28 156.563 292.5572 156.5662Z" clip-rule="evenodd" stroke-width="1"></path><path id="vector_10" fill="#103164" fill-rule="evenodd" d="M307.535 106.059C307.4688 105.8174 307.3158 105.6084 307.107 105.4706C306.898 105.3328 306.6458 105.2752 306.3976 105.3092C306.1494 105.3432 305.924 105.4658 305.7584 105.6546C305.593 105.8434 305.504 106.0856 305.504 106.336C305.4234 109.4962 305.7584 111.157 304.0564 111.8644C302.9498 112.3214 301.56 112.4248 300.255 113.0514C300.1144 113.1144 299.9924 113.2092 299.8952 113.3282C299.8 113.4474 299.7318 113.5874 299.6986 113.737C299.6656 113.8868 299.6698 114.0422 299.707 114.1906C299.7442 114.3392 299.8166 114.4766 299.918 114.5922C300.2984 115.07 300.5756 115.006 302.5094 114.7826C305.3842 114.462 305.9592 113.8498 307.1876 118.7514C307.3014 119.2086 307.3158 119.6284 307.9446 119.7856C309.9922 120.315 308.5298 116.251 310.2652 114.8922C311.353 114.0826 312.594 113.5042 313.9134 113.1922C314.1036 113.1382 314.2712 113.0246 314.3912 112.8682C314.5112 112.7118 314.5774 112.521 314.5814 112.324C314.5836 112.1266 314.5236 111.9336 314.4078 111.7734C314.294 111.6132 314.1306 111.4942 313.9424 111.4342C312.749 111.1424 311.5206 111.0232 310.294 111.0806C309.564 111.0288 309.0284 110.8736 308.412 109.4756C307.9798 108.3774 307.684 107.2298 307.5352 106.059Z" clip-rule="evenodd" stroke-width="1"></path><path id="vector_11" fill="#103164" fill-rule="evenodd" d="M268.0842 102.5706C267.9538 102.3554 267.747 102.1952 267.5072 102.1206C267.2672 102.046 267.0066 102.0616 266.777 102.165C266.5476 102.2684 266.3634 102.4524 266.258 102.6822C266.1546 102.9118 266.138 103.1714 266.2124 103.4124C267.0232 106.4816 267.7946 107.9748 266.3634 109.1206C265.4286 109.8694 264.1216 110.3616 263.0544 111.3254C262.9386 111.425 262.8454 111.5506 262.7876 111.692C262.7276 111.8334 262.7028 111.987 262.713 112.1398C262.7234 112.2928 262.771 112.4412 262.8476 112.573C262.9262 112.7048 263.0358 112.8164 263.164 112.8992C263.6686 113.2528 263.9148 113.106 265.7036 112.3552C268.3716 111.2446 268.7502 110.494 271.3064 114.8558C271.5422 115.2694 271.6726 115.6624 272.326 115.6416C274.4274 115.5776 271.9124 112.074 273.1822 110.2954C273.9992 109.2144 275.0292 108.3116 276.208 107.6418C276.3756 107.5366 276.5038 107.3806 276.5742 107.197C276.6466 107.0134 276.6568 106.8118 276.6052 106.6216C276.5534 106.4314 276.4418 106.263 276.2866 106.141S275.9412 105.9498 275.7448 105.9438C274.5184 105.9982 273.3044 106.2288 272.142 106.6284C271.4284 106.7816 270.866 106.7732 269.8876 105.615C269.1658 104.6768 268.5598 103.6544 268.0842 102.5706Z" clip-rule="evenodd" stroke-width="1"></path><path id="vector_12" fill="#103164" fill-rule="evenodd" d="M252.9306 149.46C249.0754 150.4414 245.456 152.1808 242.2814 154.5768C238.8584 157.0296 238.027 161.4018 241.7002 164.0904C243.4126 165.348 248.4838 165.894 255.4888 165.6726C265.5714 165.2432 275.6186 164.1948 285.5728 162.5332C295.6368 161.0668 321.6546 157.5178 331.8426 152.3638C334.9036 150.8148 340.2788 146.9658 339.5528 143.4892C338.6098 138.968 327.9152 138.3724 323.0218 138.8812C322.755 138.9144 322.511 139.051 322.3434 139.2622C322.178 139.4732 322.0994 139.7416 322.1304 140.009C322.1594 140.2766 322.2918 140.5218 322.5006 140.6916C322.7094 140.8614 322.9762 140.9422 323.2452 140.9164C327.5036 140.2314 331.8654 140.6202 335.9356 142.0478C337.8198 142.8358 338.5126 143.8222 337.526 145.5346C335.8528 147.818 333.6316 149.6436 331.0692 150.8436C329.0072 151.8252 326.8624 152.6204 324.6578 153.2202C315.6404 155.8158 292.7392 159.7618 286.9772 160.6076C281.8068 161.3666 265.8258 162.9902 262.891 163.226C252.7568 164.0346 244.91 164.2084 242.8046 162.6056C240.3932 160.7814 241.09 158.0018 243.5284 156.401C246.5356 154.3446 249.8054 152.7016 253.249 151.5158C253.522 151.4736 253.766 151.325 253.9294 151.1022C254.0928 150.8796 254.159 150.6014 254.1176 150.3288C254.0764 150.0562 253.9274 149.8114 253.704 149.6486C253.4806 149.4858 253.2036 149.4178 252.9306 149.46Z" clip-rule="evenodd" stroke-width="1"></path><path id="vector_13" fill="#103164" fill-rule="evenodd" d="M263.8362 145.703C262.2354 148.342 257.2986 148.5612 257.1828 152.9934C257.1166 153.6754 257.2964 154.3584 257.6914 154.9188C258.0866 155.4792 258.6676 155.8798 259.3316 156.048C261.5798 156.7844 265.3024 155.682 267.6044 155.1216C268.4088 155.2974 268.9486 157.591 271.1554 158.8588C272.0592 159.3624 273.0664 159.6538 274.0986 159.711C275.1326 159.7684 276.1646 159.59 277.118 159.1896C278.9918 158.4556 280.5968 157.167 281.7198 155.4958C283.9576 153.0906 287.1944 157.4318 290.8302 154.6376C291.4714 154.131 291.9904 153.4862 292.3482 152.7514C292.4642 152.5086 292.4786 152.2302 292.3896 151.9764C292.3008 151.7226 292.1166 151.514 291.8746 151.3956C291.6348 151.2774 291.3556 151.2588 291.1012 151.3442C290.8468 151.4296 290.6358 151.612 290.5138 151.8516C290.2988 152.3258 289.9844 152.7486 289.5934 153.0926C287.3804 154.954 284.9318 152.1434 282.0322 153.2664C280.6298 153.8102 279.995 155.1856 279.0726 156.046C276.6548 158.3066 272.781 158.869 270.7688 156.195C270.1234 155.3366 269.505 153.6758 268.0428 153.3098C267.3106 153.228 266.5682 153.326 265.8816 153.5952C263.7596 154.1082 259.0834 155.2498 259.073 153.014C259.0606 149.7276 263.9148 149.2912 265.559 146.5798C266.3386 145.2894 265.1018 144.156 264.9054 143.5086C264.7068 143.036 264.6282 142.5216 264.6778 142.0112C264.7254 141.501 264.8992 141.0106 265.1846 140.5842C266.5476 138.58 268.262 138.6566 270.6632 138.5428C272.382 138.4622 274.7996 138.1726 275.751 136.7414C276.4108 135.7528 276.1998 134.8014 278.059 133.3826C278.8368 132.7738 279.7468 132.3552 280.7168 132.1604C282.001 131.9536 283.2378 131.8398 283.5832 133.0848C283.8108 134.1984 283.7736 135.35 283.4716 136.4456C283.4034 136.7128 283.4446 136.996 283.5854 137.233C283.726 137.47 283.9556 137.6412 284.2224 137.7094C284.4892 137.7774 284.7724 137.7364 285.0104 137.5958C285.246 137.455 285.4178 137.2258 285.486 136.9586C286.0734 135.1818 286.0362 133.2576 285.3806 131.5048C283.7714 128.5782 279.2856 129.6786 276.8098 131.875C273.0148 135.244 276.4832 136.4684 269.836 136.5966C268.6198 136.4442 267.3872 136.627 266.2662 137.1252C265.1474 137.6238 264.1856 138.4186 263.4866 139.4238C263.013 140.1146 262.7192 140.9116 262.6282 141.7436C262.5394 142.5758 262.6552 143.4172 262.9696 144.1932C263.2094 144.7228 263.501 145.2282 263.836 145.703Z" clip-rule="evenodd" stroke-width="1"></path><path id="vector_14" fill="#103164" fill-rule="evenodd" d="M306.3396 143.4888C306.2776 143.226 306.1162 142.998 305.8888 142.8532C305.6612 142.7082 305.3862 142.658 305.1214 142.7132C302.8982 143.4514 299.7546 144.0512 297.192 144.678C296.311 144.3698 295.4526 144.0016 294.6212 143.619C294.7598 143.6116 294.8964 143.5758 295.0224 143.5138C295.1466 143.4516 295.2582 143.3646 295.3492 143.2582C295.4382 143.1516 295.5064 143.028 295.5458 142.8944C295.587 142.7608 295.5996 142.6202 295.585 142.4818C295.5684 142.343 295.525 142.209 295.4548 142.088C295.3864 141.9668 295.2934 141.8612 295.1818 141.7774C295.07 141.6938 294.9418 141.6338 294.8054 141.6012C294.6708 141.5686 294.5302 141.564 294.3916 141.588C293.6616 141.7948 292.766 142.0016 291.7858 142.2374C290.8364 141.7484 289.8562 141.3234 288.849 140.9656C288.7248 140.9058 288.5924 140.8708 288.456 140.8628C288.3194 140.8546 288.1808 140.8736 288.0526 140.9186C287.9224 140.9632 287.8044 141.0332 287.701 141.1242C287.5998 141.2152 287.515 141.3252 287.457 141.4484C287.397 141.5716 287.3618 141.7054 287.3536 141.842C287.3454 141.9788 287.364 142.1156 287.4094 142.245C287.4528 142.3742 287.5232 142.4936 287.6142 142.5958C287.7052 142.6982 287.8148 142.7816 287.939 142.8414C288.0362 142.9076 288.1458 142.9716 288.247 143.0358C285.9762 143.4442 283.7528 144.0746 281.606 144.9178C281.48 144.9694 281.3642 145.0452 281.267 145.1414C281.1698 145.2374 281.0912 145.3518 281.0374 145.478C280.9856 145.604 280.9566 145.7394 280.9566 145.8762C280.9546 146.013 280.9814 146.1488 281.0332 146.2756C281.0828 146.4024 281.1594 146.5178 281.2566 146.6154C281.3516 146.7128 281.4654 146.7904 281.5916 146.8438C281.7178 146.8972 281.8542 146.925 281.9908 146.926C282.1272 146.927 282.2638 146.901 282.39 146.8496C282.727 146.7912 283.058 146.7084 283.3826 146.6014C285.6948 145.5798 288.0982 144.7738 290.5592 144.194C294.6688 145.9664 294.5798 145.3212 293.5768 145.8486C293.3162 145.9428 293.1052 146.1366 292.9874 146.3872C292.8716 146.6378 292.857 146.9246 292.9522 147.1846C293.0474 147.4446 293.2396 147.6566 293.49 147.7736C293.7422 147.8908 294.0276 147.9036 294.2882 147.8092C295.0184 147.6582 296.7204 147.0874 297.7628 146.7234C298.8508 147.0502 299.831 147.3314 300.6128 147.5508C300.8568 147.5938 301.1092 147.5466 301.3202 147.4182C301.531 147.2896 301.6904 147.0884 301.7648 146.8522C301.8392 146.6158 301.8248 146.3606 301.7254 146.1338C301.6262 145.9068 301.4484 145.7238 301.223 145.619C303.2352 145.104 305.2746 144.7482 305.5662 144.7172C305.6984 144.6882 305.8226 144.6332 305.9342 144.5556C306.0438 144.478 306.137 144.379 306.2094 144.2648S306.3294 144.023 306.352 143.8898C306.3748 143.7566 306.3706 143.6202 306.3396 143.4888Z" clip-rule="evenodd" stroke-width="1"></path><path id="vector_15" fill="#103164" fill-rule="evenodd" d="M270.593 149.8776C272.5432 151.7844 277.2588 151.497 279.9784 151.1786C286.6152 150.3988 289.0392 149.2468 293.0184 150.4568C296.6956 152.0362 300.6852 152.7602 304.683 152.5746C309.4026 152.4194 319.4954 150.8952 322.4406 147.1972C324.0538 145.1746 322.3164 142.765 319.9216 141.6318C317.8782 140.7898 315.7148 140.2774 313.51 140.1136C309.2392 139.7 304.6624 141.1168 300.952 139.762C297.2726 137.849 293.1218 137.028 288.9896 137.396C284.9296 137.7462 280.9504 138.7368 277.2008 140.3308C274.0572 141.6076 271.507 144.0164 270.0532 147.0814C269.8566 147.5486 269.8028 148.0638 269.898 148.5616C269.9932 149.0594 270.2352 149.5176 270.593 149.8776ZM272.0242 148.376C271.1968 147.615 275.2506 139.9998 289.1074 139.094C292.9956 138.796 296.886 139.6256 300.313 141.4828C301.7544 142.0318 303.2912 142.2954 304.834 142.2584C307.7006 142.306 314.6538 141.307 319.1666 143.2924C320.2814 143.7846 321.208 144.4548 321.3568 145.553C321.3982 145.8466 321.179 146.0886 320.9432 146.3202C318.2028 149.0254 308.4782 150.3678 304.6044 150.529C300.8218 150.7618 297.037 150.1322 293.5334 148.6884C286.7622 146.7422 274.5638 150.7318 272.0242 148.376Z" clip-rule="evenodd" stroke-width="1"></path><path id="vector_16" fill="#103164" fill-rule="evenodd" d="M358.3528 83.524C358.301 83.3004 358.1688 83.1038 357.9804 82.9718C357.7922 82.8396 357.5628 82.7816 357.3352 82.8084C348.7336 83.859 339.2096 84.314 332.643 86.161V86.1816C332.4114 86.24 332.2086 86.3782 332.068 86.572C331.9294 86.7658 331.8632 87.0026 331.8818 87.2406C332.4878 93.7264 335.5322 111.5854 338.6738 117.4362C339.9314 119.6168 341.8464 121.3444 344.1442 122.3724C346.442 123.4004 349.0066 123.6764 351.4698 123.161C351.9992 128.7616 353.571 137.0552 354.8388 145.8222C354.8802 146.0892 355.023 146.33 355.238 146.4928C355.4552 146.6556 355.724 146.7272 355.993 146.693C356.1274 146.6758 356.2556 146.632 356.3734 146.5638C356.4894 146.496 356.5906 146.4054 356.6734 146.2976C356.754 146.1896 356.812 146.0664 356.845 145.9354C356.8782 145.8044 356.8844 145.6682 356.8636 145.5348C356.2784 142.2526 354.0944 125.434 353.538 122.6916C356.7334 121.7648 359.4426 119.6326 361.0952 116.7454C364.3898 110.8428 359.9742 90.1132 358.3528 83.524ZM360.4478 111.4446C360.4726 112.9622 360.1562 114.4658 359.5254 115.8458C355.7364 122.3068 344.2208 123.8622 340.2188 116.5842C336.9096 110.574 334.5168 94.6612 333.9914 87.9954C334.1982 87.954 352.0654 85.1786 356.7044 84.7464C358.0466 90.9922 360.6856 105.2774 360.4478 111.4446Z" clip-rule="evenodd" stroke-width="1"></path><path id="vector_17" fill="#103164" fill-rule="evenodd" d="M367.9988 146.9246C366.4022 147.3506 354.9424 148.786 354.7252 148.8066C352.626 149.0136 350.5308 149.0734 348.442 149.2472C346.7916 149.494 345.1122 149.4478 343.4782 149.1108C342.0844 148.575 341.137 148.5316 343.4452 147.4686C345.2052 146.812 347.015 146.3012 348.8576 145.9422C349.7636 145.6606 350.6962 145.4654 351.6394 145.359C351.9144 145.3392 352.171 145.2102 352.353 145.0014C352.5328 144.7922 352.6238 144.52 352.6032 144.2442C352.5824 143.9688 352.4542 143.7122 352.2454 143.5316C352.0364 143.3508 351.7634 143.2606 351.4884 143.2804C348.4026 143.4298 345.3934 144.3012 342.7048 145.8244C341.6542 146.1936 340.738 146.871 340.0782 147.7684C339.2034 149.7188 342.0284 150.9658 344.14 151.305C347.1308 151.787 350.0924 150.9906 354.0964 150.5894C357.5214 150.4144 360.9338 150.0348 364.3132 149.452C366.7744 149.3028 369.1612 148.5522 371.2646 147.2658C372.8466 145.9194 370.822 143.9278 368.9894 143.2764C366.005 142.5034 362.9132 142.2274 359.8378 142.4594C359.5936 142.5184 359.3786 142.6642 359.2338 142.8698C359.089 143.0752 359.025 143.3266 359.0518 143.5764C359.0786 143.8262 359.1966 144.0576 359.3806 144.2274C359.5668 144.3972 359.8088 144.4936 360.059 144.4986C362.847 144.0786 365.6886 144.1972 368.431 144.8482C370.5158 145.5596 370.3276 146.3 367.9988 146.9246Z" clip-rule="evenodd" stroke-width="1"></path><path id="vector_18" fill="#103164" fill-rule="evenodd" d="M339.3254 99.9318C337.8072 101.4748 339.4888 106.6824 340.4752 109.5014C340.9676 111.8164 341.772 114.0538 342.8662 116.1528C345.6168 119.9458 353.8834 119.797 356.9444 115.0752C358.4086 112.8188 357.602 110.3184 357.722 107.7248C357.8296 105.3754 357.8956 101.8636 355.9784 100.1118C354.479 98.7426 351.9868 99.6362 350.2164 99.7478C347.232 99.936 340.831 98.3994 339.3254 99.9318Z" clip-rule="evenodd" stroke-width="1"></path><path id="vector_19" fill="#103164" fill-rule="evenodd" d="M348.2704 63.9116C349.6332 62.1018 354.0302 55.6242 354.5348 55.3492C354.6548 55.283 355.1554 53.2334 353.6476 53.4444C353.2774 53.496 231.9424 75.2266 230.4534 75.574C229.9052 75.7022 229.1772 75.8326 228.9476 76.2152C228.807 76.38 228.7368 76.593 228.7492 76.8096C228.7616 77.026 228.8588 77.2288 229.018 77.3754C231.4254 79.3898 233.9506 81.2596 236.5814 82.974L233.2454 90.4052C233.1772 90.5512 233.1502 90.7128 233.1668 90.873C233.1854 91.033 233.2454 91.1854 233.3446 91.3132C233.4418 91.4412 233.5722 91.54 233.7232 91.5986C233.872 91.6572 234.0354 91.6738 234.1946 91.646L355.9536 70.3436C356.1336 70.3132 356.3012 70.2284 356.4334 70.1004C356.5638 69.9724 356.6526 69.8076 356.6878 69.6276S356.7024 69.2614 356.6278 69.0936C356.5534 68.9258 356.4314 68.7848 356.2742 68.689C356.2742 68.689 350.8224 65.262 348.2702 63.9116ZM351.4616 55.9366C349.3168 56.3088 233.4894 76.8522 231.6384 77.2266C233.1564 78.4364 236.5338 80.877 238.1264 81.9834C238.2876 82.0954 238.4056 82.2592 238.4594 82.4476C238.513 82.636 238.5006 82.8372 238.4242 83.0176L235.5286 89.5964C238.9164 88.976 350.1524 69.5598 353.2918 68.991C350.7686 67.4688 349.321 66.6188 346.8164 65.3096C345.408 65.626 345.226 63.5662 346.3158 63.2972C347.1844 62.2672 349.7222 58.3542 351.4616 55.9406V55.9366Z" clip-rule="evenodd" stroke-width="1"></path><path id="vector_20" fill="#191919" d="M395.994 222.9246L367.2584 10.5664C367.2212 10.3116 367.0868 10.0812 366.882 9.9242C366.6772 9.7672 366.4208 9.6956 366.1644 9.7246L52.673 45.856C52.5572 45.8694 52.445 45.9056 52.3432 45.9624C52.2412 46.0194 52.1516 46.0958 52.0798 46.1874C52.0076 46.2792 51.9544 46.3844 51.923 46.4968C51.8918 46.6092 51.883 46.7266 51.8976 46.8424L64.9374 147.024L66.6644 145.9174L53.7464 47.496L205.5812 29.8398C206.0734 33.4882 225.4048 173.5134 232.3582 223.878L234.4264 227.03L207.5604 29.8358L365.4156 11.7928L393.9072 222.1902L243.061 240.2146L244.4674 242.3634C252.581 241.4472 254.6016 241.4018 395.1232 224.0248C395.3838 223.9916 395.6218 223.8594 395.783 223.6524C395.9464 223.4478 396.023 223.185 395.994 222.9244Z" stroke-width="1"></path><path id="vector_21" fill="#191919" fill-rule="evenodd" d="M110.4668 91.6074C109.7862 86.8054 110.8716 81.9198 113.5216 77.858C116.4966 73.581 120.3626 69.9988 124.8532 67.3578C128.64 65.0828 131.1654 64.0362 139.039 64.4622C150.7388 65.0828 160.5214 70.6916 163.6712 82.2074C163.7078 82.3366 163.7696 82.4574 163.8534 82.5628C163.937 82.6678 164.0408 82.7554 164.1584 82.8202C164.2762 82.8852 164.4056 82.926 164.5392 82.9404C164.6728 82.9548 164.808 82.9424 164.937 82.9044C165.1976 82.827 165.4172 82.6502 165.5484 82.4122C165.6796 82.1742 165.712 81.894 165.638 81.6324C162.722 71.6472 152.7636 63.1138 139.132 62.485C136.257 62.4076 133.3816 62.6196 130.549 63.118C122.9856 64.3134 115.2754 71.279 111.1782 78.2158C108.2228 83.2104 107.2694 87.018 108.4442 92.0726C108.474 92.2058 108.5296 92.3322 108.6082 92.444C108.6866 92.5558 108.7864 92.6512 108.9016 92.7244C109.017 92.7976 109.1456 92.8474 109.2802 92.871C109.4148 92.8946 109.5526 92.8912 109.686 92.8618C109.8194 92.832 109.9456 92.776 110.0576 92.6978C110.1692 92.6192 110.2646 92.5194 110.3378 92.404C110.411 92.2888 110.4608 92.1602 110.4844 92.0256C110.508 91.891 110.5048 91.753 110.475 91.6198L110.4668 91.6074Z" clip-rule="evenodd" stroke-width="1"></path><path id="vector_22" fill="#191919" fill-rule="evenodd" d="M105.497 95.6832C109.0162 97.1256 112.7944 97.8296 116.597 97.7514C123.2422 98.1426 129.9076 97.4846 136.3482 95.801C138.584 95.3482 140.8258 95.0068 143.043 94.5064C149.7916 92.9882 167.0858 87.6482 169.2492 86.914C169.3762 86.8698 169.493 86.8006 169.593 86.7108C169.693 86.6214 169.7742 86.5126 169.832 86.3912C169.8896 86.2698 169.9228 86.138 169.9292 86.0038C169.9358 85.8696 169.9156 85.7354 169.8696 85.609C169.8264 85.4826 169.7586 85.3662 169.67 85.2664C169.5814 85.1666 169.4738 85.0854 169.3534 85.0278C169.233 84.9698 169.1026 84.9368 168.9692 84.93C168.836 84.9234 168.7026 84.9432 168.577 84.9884C159.967 88.1362 158.724 88.8106 141.951 92.7338C138.2258 93.7796 134.4216 94.5204 130.5758 94.949C126.3932 95.6486 122.1594 95.9988 117.9186 95.9954C113.9438 95.6326 110.0158 94.8706 106.1938 93.7204C105.9338 93.628 105.6472 93.6426 105.3978 93.7614C105.1484 93.88 104.9564 94.0932 104.864 94.3532C104.7716 94.6134 104.7862 94.9 104.905 95.1494C105.0238 95.3988 105.2368 95.5906 105.497 95.6832Z" clip-rule="evenodd" stroke-width="1"></path><path id="vector_23" fill="#191919" fill-rule="evenodd" d="M127.5192 62.5884C127.6266 62.301 127.8128 62.0796 127.9328 61.815C127.9596 61.7468 127.9556 61.6722 127.9824 61.6082C128.2678 60.8118 128.1168 60.574 129.9554 59.7468C130.1458 59.66 130.3422 59.5876 130.5324 59.4986C130.8116 59.324 131.1074 59.178 131.4156 59.0622C131.8404 59.0292 132.267 59.0292 132.6916 59.0622C134.7846 59.0746 136.1932 59.2856 137.008 61.1304C137.0732 61.2482 137.161 61.352 137.2664 61.4354C137.3718 61.5192 137.4928 61.5812 137.6222 61.6178C137.7518 61.6544 137.887 61.6652 138.0208 61.6494C138.1544 61.6334 138.2834 61.5912 138.4008 61.5252S138.621 61.3706 138.7038 61.2644C138.7866 61.1584 138.8476 61.037 138.8832 60.9072C138.919 60.7776 138.9288 60.642 138.9118 60.5086C138.8948 60.3752 138.8516 60.2462 138.7846 60.1294C138.0626 59.1854 137.1338 58.4194 136.0698 57.89C135.0058 57.3606 133.8346 57.0816 132.6462 57.0746C132.1084 57.1372 131.5774 57.2486 131.0598 57.4076C130.3676 57.4108 129.6854 57.5736 129.0662 57.8834C127.9524 58.6252 126.9342 59.5014 126.0342 60.4914C125.6666 60.9636 125.4722 61.5478 125.484 62.146C125.4552 62.2792 125.453 62.4164 125.4772 62.5504C125.5016 62.6844 125.552 62.8122 125.6258 62.9268C125.6994 63.0412 125.795 63.1402 125.9072 63.2176C126.019 63.2952 126.1452 63.3498 126.2782 63.3786C126.4114 63.4076 126.5488 63.4098 126.6828 63.3854C126.8168 63.361 126.9446 63.3106 127.059 63.2368C127.1736 63.163 127.2724 63.0674 127.3498 62.9556C127.4272 62.8438 127.482 62.7176 127.5108 62.5844L127.5192 62.5884Z" clip-rule="evenodd" stroke-width="1"></path><path id="vector_24" fill="#191919" fill-rule="evenodd" d="M141.2954 69.6802C145.6034 70.4846 149.7316 71.6118 152.4636 74.832C152.5596 74.9266 152.6732 75.001 152.7978 75.0512C152.9226 75.1016 153.056 75.127 153.1906 75.1254C153.325 75.1242 153.458 75.0964 153.5818 75.0434C153.7054 74.9906 153.8176 74.914 153.9114 74.8176C154.0988 74.622 154.2018 74.361 154.1988 74.0904C154.1958 73.8196 154.0866 73.5608 153.8948 73.3698C150.7926 70.9604 145.6738 67.372 141.4546 67.5974C141.1788 67.5756 140.9054 67.664 140.6948 67.8438C140.4842 68.0232 140.3536 68.2792 140.3316 68.555C140.3096 68.831 140.3982 69.1044 140.578 69.3148C140.7574 69.5256 141.0132 69.6562 141.2892 69.678L141.2954 69.6802Z" clip-rule="evenodd" stroke-width="1"></path><path id="vector_25" fill="#191919" fill-rule="evenodd" d="M157.3426 82.0814C157.4464 82.311 157.6304 82.4948 157.8602 82.5984C158.09 82.7022 158.3496 82.718 158.5902 82.6436C158.831 82.5694 159.0364 82.4094 159.1678 82.1944C159.2988 81.9792 159.3472 81.7236 159.3032 81.4754C158.5338 80.342 158.0622 77.8044 156.9414 77.1446C156.8546 77.0382 156.7478 76.95 156.6268 76.8852C156.5056 76.8204 156.373 76.7804 156.2362 76.7676C156.0996 76.7546 155.9616 76.769 155.8304 76.81C155.6996 76.851 155.578 76.9176 155.4728 77.006C154.1224 78.1312 157.0096 80.278 157.3426 82.0814Z" clip-rule="evenodd" stroke-width="1"></path><g id="group"><path id="vector_26" fill="#191919" fill-rule="evenodd" d="M157.1336 108.9786C158.2836 108.4698 159.3012 108.0852 161.1294 107.2972C161.3598 107.1752 161.5352 106.97 161.6196 106.7232C161.7038 106.4764 161.6906 106.207 161.5832 105.9694C161.4754 105.732 161.2812 105.5446 161.0402 105.4452C160.799 105.3462 160.5292 105.3426 160.2856 105.4358C158.4986 106.3064 157.6568 106.7718 156.1844 107.533L157.1336 108.9786Z" clip-rule="evenodd" stroke-width="1"></path><path id="vector_27" fill="#191919" fill-rule="evenodd" d="M160.9804 109.4106C160.153 109.9792 159.253 110.4342 158.3042 110.7632L159.2598 112.2234C160.219 111.9444 161.1534 111.5866 162.0538 111.1542C162.2452 110.995 162.3728 110.7722 162.4132 110.5266C162.4534 110.281 162.4038 110.029 162.2734 109.817C162.1428 109.605 161.9402 109.4472 161.7026 109.3726C161.4652 109.2978 161.2088 109.3116 160.9804 109.4106Z" clip-rule="evenodd" stroke-width="1"></path><path id="vector_28" fill="#191919" fill-rule="evenodd" d="M155.2558 106.1018C156.2112 105.802 157.1058 105.3342 157.8968 104.7202C158.1362 104.583 158.3114 104.3564 158.3836 104.0902C158.456 103.8238 158.4196 103.5398 158.2826 103.3004C158.1454 103.0608 157.9188 102.8858 157.6526 102.8134C157.3864 102.741 157.1022 102.7774 156.8626 102.9146C156.3146 103.2082 155.6734 103.4068 155.0736 103.7418C154.7502 103.9354 154.4418 104.1532 154.1512 104.3934L155.2556 106.1018Z" clip-rule="evenodd" stroke-width="1"></path></g><path id="vector_29" fill="#191919" fill-rule="evenodd" d="M149.1132 96.7304L149.9714 98.0418C154.5794 96.9124 161.2224 94.9602 163.4334 94.319C163.5608 94.2734 163.6778 94.2032 163.778 94.1122C163.878 94.0212 163.9592 93.9112 164.0164 93.7886C164.0738 93.666 164.1064 93.5334 164.112 93.3982C164.1178 93.263 164.0966 93.1282 164.05 93.0012C164.0032 92.8742 163.9318 92.7576 163.8398 92.6586C163.7478 92.5594 163.6368 92.4792 163.5138 92.4232C163.3908 92.3672 163.2578 92.336 163.1226 92.3316C162.9872 92.327 162.8526 92.3496 162.726 92.3976C158.0796 93.949 153.3304 95.1742 148.5134 96.0646C148.7448 96.256 148.947 96.4804 149.1132 96.7304Z" clip-rule="evenodd" stroke-width="1"></path><path id="vector_30" fill="#191919" fill-rule="evenodd" d="M111.0418 102.456C118.632 103.453 130.1768 101.3228 138.1724 100.0922L141.4442 97.995C141.3296 97.8684 141.1848 97.7728 141.023 97.7174C140.8612 97.6622 140.6882 97.6488 140.5198 97.6786C126.4002 100.2866 121.298 100.8512 111.201 100.3672C110.924 100.346 110.65 100.4358 110.4392 100.6168C110.2284 100.7978 110.098 101.055 110.077 101.332C110.0558 101.6092 110.1456 101.8832 110.3266 102.094C110.5076 102.3046 110.7648 102.435 111.0418 102.456Z" clip-rule="evenodd" stroke-width="1"></path><path id="vector_31" fill="#191919" fill-rule="evenodd" d="M118.082 112.9666C117.9212 112.8036 117.7954 112.6094 117.7124 112.396C117.6292 112.1826 117.5904 111.9548 117.598 111.7258C117.598 110.8364 119.7986 110.1332 120.665 109.9286C121.4352 109.757 122.2294 109.7192 123.0124 109.8168L125.0806 108.4952C123.5254 108.0248 121.8766 107.9536 120.2866 108.2884C118.3466 108.7456 115.8834 109.699 115.8234 111.6906C115.7712 112.5152 116.0148 113.3314 116.51 113.9926L118.082 112.9666Z" clip-rule="evenodd" stroke-width="1"></path><path id="vector_32" fill="#103164" d="M184.2104 138.3856C183.9362 138.4042 183.6658 138.3132 183.4586 138.1326C183.2516 137.9518 183.1246 137.6962 183.106 137.4218C183.0874 137.1476 183.1784 136.8772 183.3592 136.67C183.54 136.4628 183.7956 136.336 184.0698 136.3174L201.482 133.9142C201.7488 133.8878 202.0136 133.9656 202.2244 134.1312C202.4354 134.2968 202.572 134.5374 202.6092 134.8026C202.6444 135.0674 202.5782 135.3364 202.4188 135.5526C202.2618 135.7688 202.026 135.9154 201.7632 135.9618L184.2104 138.3856Z" stroke-width="1"></path><path id="vector_33" fill="#103164" d="M188.1566 156.3602L204.6754 154.0852C204.94 154.0394 205.1758 153.8928 205.335 153.6762C205.4922 153.4598 205.5606 153.1902 205.5232 152.9244C205.486 152.6588 205.3474 152.4178 205.1366 152.2524C204.9256 152.0868 204.6588 152.01 204.392 152.0376L187.3128 154.4058C187.1872 154.4218 187.0654 154.4596 186.953 154.5174L188.1566 156.3602Z" stroke-width="1"></path><path id="vector_34" fill="#103164" d="M199.2814 173.3554L207.5812 172.2138C207.7196 172.1992 207.852 172.1572 207.974 172.0902C208.0962 172.023 208.2016 171.9322 208.2884 171.823C208.3732 171.7138 208.4352 171.5886 208.4726 171.4544C208.5076 171.3206 208.518 171.1808 208.4974 171.0434C208.4788 170.906 208.4332 170.7738 208.3608 170.6548C208.2906 170.5356 208.1954 170.432 208.0836 170.3502C207.972 170.2684 207.8438 170.2098 207.7094 170.1782C207.575 170.1466 207.4342 170.1424 207.2978 170.1662L198.0282 171.4464L199.2814 173.3554Z" stroke-width="1"></path></g><g id="menu 1"><path id="vector_35" fill="#191919" fill-rule="evenodd" d="M4.424 188.3718C4.2186 188.5072 4.0744 188.7176 4.0218 188.9578C3.9692 189.1982 4.0126 189.4494 4.1428 189.6582L134.4394 390.2728C134.9356 390.4072 134.4558 390.2272 276.754 297.3548C276.843 297.299 276.9196 297.2246 276.9796 297.1376C277.0374 297.0528 277.0808 296.9536 277.1016 296.8522C277.1222 296.7488 277.1244 296.6434 277.1036 296.54C277.083 296.4366 277.0416 296.3372 276.9836 296.2504L147.2146 97.9708C147.0954 97.7866 146.908 97.657 146.6936 97.611C146.479 97.5648 146.2552 97.6058 146.0708 97.7246L4.424 188.3718ZM6.2214 189.4554C10.8106 186.5414 143.711 101.2076 146.2736 99.5758C150.8628 106.6076 273.6746 294.0808 275.2174 296.4532C270.9218 299.2494 140.6336 384.5584 134.8282 388.37C130.851 382.2172 10.459 196.051 6.2214 189.4514V189.4554Z" clip-rule="evenodd" stroke-width="1"></path><path id="vector_36" fill="#191919" fill-rule="evenodd" d="M102.0306 214.629C113.4574 219.1666 110.7998 203.047 102.4752 204.7884C93.9956 206.5568 88.2296 218.8998 84.5668 224.8086C79.2556 233.373 73.2868 239.2034 63.4298 238.252C53.1406 237.2674 58.435 222.12 66.3936 226.3164C66.6092 226.4218 66.8576 226.4384 67.0856 226.3618C67.3134 226.2874 67.5026 226.126 67.6128 225.911C67.7228 225.698 67.7448 225.4498 67.6744 225.2202C67.6038 224.9928 67.4462 224.7982 67.2352 224.6846C56.9998 219.45 50.6152 238.469 63.2726 239.8196C74.7056 241.0378 80.2318 234.5168 85.8718 225.6256C89.853 219.3444 96.1094 207.655 102.7958 206.3914C105.5858 205.8598 107.7244 208.7056 107.623 211.326C107.5238 213.808 105.0834 213.7562 102.7028 212.873C102.4728 212.7966 102.2224 212.811 102.0036 212.9144C101.7846 213.02 101.614 213.204 101.5274 213.4294C101.4408 213.6548 101.4448 213.9072 101.5384 214.1306C101.6324 214.354 101.8086 214.5318 102.0306 214.629Z" clip-rule="evenodd" stroke-width="1"></path><path id="vector_37" fill="#191919" fill-rule="evenodd" d="M128.2472 193.6766C128.2126 194.5876 128.0108 195.4842 127.6514 196.3218C125.9224 200.2964 119.6516 194.8184 122.3176 191.0624C127.8914 183.2178 148.9602 185.5838 159.2784 180.6036C161.647 179.4814 163.7528 177.8722 165.4576 175.881C167.1626 173.89 168.4282 171.562 169.1726 169.0486C173.216 156.9848 153.2702 154.8546 153.7646 166.3476C153.7688 166.469 153.7972 166.5882 153.8478 166.6984C153.8986 166.809 153.9706 166.9082 154.0598 166.9906C154.1492 167.0728 154.2538 167.1366 154.368 167.178C154.4822 167.2196 154.6034 167.238 154.7246 167.2324C154.846 167.227 154.965 167.1974 155.0748 167.1454C155.1846 167.0934 155.283 167.0202 155.3642 166.9302C155.4456 166.84 155.5082 166.7344 155.5486 166.6198C155.5886 166.5056 155.606 166.3842 155.599 166.2628C155.1026 157.295 171.0794 158.7634 167.6814 168.5378C166.9596 170.8236 165.771 172.9344 164.1912 174.7368C162.6112 176.5392 160.6742 177.9942 158.5028 179.009C151.7398 182.2954 143.4338 182.3678 138.2964 182.9986C133.3328 183.619 126.3836 184.9758 122.632 188.285C122.022 188.8302 121.4736 189.4406 120.996 190.105C120.5284 190.828 120.2138 191.6392 120.072 192.4884C119.93 193.3376 119.9636 194.207 120.1708 195.0428C120.378 195.8784 120.7542 196.6628 121.2764 197.3474C121.7986 198.032 122.4558 198.6024 123.2068 199.023C126.454 201.014 129.8252 199.4904 130.125 193.7988C130.1244 193.5596 130.033 193.33 129.8692 193.1556C129.7054 192.9814 129.4816 192.8758 129.2432 192.8602C129.0044 192.8448 128.7688 192.9204 128.584 193.072C128.399 193.2236 128.2788 193.4398 128.247 193.6768Z" clip-rule="evenodd" stroke-width="1"></path><path id="vector_38" fill="#191919" fill-rule="evenodd" d="M110.8246 201.7586C111.0242 201.7378 111.2116 201.653 111.3586 201.5166S111.6048 201.198 111.6408 201.0016C111.6766 200.803 111.648 200.6004 111.5586 200.4204C111.4694 200.2406 111.3242 200.0936 111.1452 200.0026C110.653 199.7408 110.2414 199.3086 109.7368 198.9838C107.8422 197.8752 105.753 197.1394 103.5818 196.8164C102.6656 196.7564 100.7256 196.924 100.1796 197.7656C99.6336 198.6074 100.3678 199.7574 101.1 200.4536C101.6358 200.9436 102.264 201.3202 102.9476 201.5642C103.6314 201.8082 104.3568 201.9116 105.0812 201.8702C106.0036 201.924 110.6158 201.7668 110.8246 201.7586Z" clip-rule="evenodd" stroke-width="1"></path><path id="vector_39" fill="#191919" fill-rule="evenodd" d="M112.597 198.6084C112.62 198.8074 112.7052 198.9942 112.8406 199.1418C112.976 199.2896 113.1544 199.3908 113.3506 199.4312C113.5468 199.4716 113.7508 199.4488 113.9334 199.3664C114.116 199.2842 114.2678 199.1462 114.3674 198.9724C116.262 194.6416 117.8524 192.0626 116.872 189.4878C116.51 188.5404 115.7346 187.4196 114.746 187.6056C113.7574 187.7918 112.8576 189.527 112.566 190.3832C112.0436 192.5152 111.9208 194.7256 112.2042 196.9022C112.3096 197.4958 112.5474 198.0398 112.597 198.6084Z" clip-rule="evenodd" stroke-width="1"></path><path id="vector_40" fill="#103164" fill-rule="evenodd" d="M95.1828 250.7686C95.975 250.264 96.8126 249.8442 97.584 249.321C98.5146 248.688 99.3502 247.9248 100.2726 247.292C102.4236 245.803 104.74 244.5578 106.9136 243.1122C107.9002 242.4546 108.804 241.7286 109.7906 241.075C111.0046 240.2746 112.2848 239.5776 113.5132 238.7814C115.9764 237.191 118.3176 235.4434 120.752 233.8178C122.388 232.7278 124.061 231.735 125.6804 230.6286C125.7846 230.5602 125.8738 230.4714 125.943 230.368C126.012 230.2646 126.0596 230.1488 126.0826 230.0266C126.1058 229.9046 126.1038 229.7786 126.0772 229.6586C126.0504 229.5366 125.9996 229.4208 125.9276 229.3214C125.8554 229.22 125.7636 229.1332 125.6578 229.0692C125.5516 229.003 125.4338 228.9616 125.3106 228.943C125.1878 228.9244 125.0626 228.9326 124.9424 228.9636C124.822 228.9946 124.7094 229.0504 124.6112 229.127C123.24 230.128 121.9226 231.1952 120.5224 232.1714C118.7954 233.3854 114.0242 236.3078 111.8628 237.739C110.9012 238.378 110.0014 239.0936 109.0128 239.7286C107.6314 240.6262 106.1588 241.4038 104.7586 242.2952C102.6242 243.656 101.1248 244.8742 98.829 246.2042C98.068 246.6468 97.2718 247.0128 96.5272 247.4864C95.7 248.0096 94.9594 248.6404 94.155 249.1988C93.9468 249.3354 93.8014 249.5484 93.7504 249.7924C93.6998 250.0344 93.7478 250.2888 93.884 250.4976C94.0204 250.7046 94.2338 250.8514 94.4774 250.901C94.7208 250.9526 94.9746 250.9052 95.1828 250.7686Z" clip-rule="evenodd" stroke-width="1"></path><path id="vector_41" fill="#103164" fill-rule="evenodd" d="M133.8788 225.1436C134.986 224.5418 136.0596 223.882 137.0948 223.1624C139.517 221.3444 142.0862 219.7292 144.7762 218.3352C147.8412 216.5214 147.2952 216.6538 148.8504 215.7024C149.02 215.599 151.7046 214.1554 152.2424 213.841C155.3922 212.0272 158.3704 210.0376 161.3156 208.3458C163.0322 207.3592 164.7364 206.5112 166.3144 205.6136C166.4188 205.5538 166.5102 205.473 166.5834 205.3758C166.6564 205.2808 166.71 205.171 166.7406 205.0532C166.7714 204.9374 166.7788 204.8154 166.7624 204.6954C166.746 204.5754 166.7062 204.4596 166.6452 204.3542C166.5842 204.2508 166.5034 204.1598 166.407 204.0852C166.3108 204.013 166.201 203.9592 166.084 203.9282C165.967 203.897 165.8452 203.8908 165.7254 203.9074C165.6056 203.924 165.4902 203.9632 165.3858 204.0232C163.938 204.9126 162.4758 205.924 160.9018 206.867C158.0374 208.5836 154.904 210.1762 151.8536 212.0044C150.5754 212.7696 149.3614 213.6404 148.075 214.389C147.1586 214.9206 146.1846 215.359 145.2642 215.8802C142.4494 217.4748 140.3358 219.026 138.6956 220.0166C137.492 220.7344 136.2428 221.2866 135.1012 221.998C134.3028 222.4984 133.5954 223.0734 132.8592 223.574C132.6632 223.7146 132.5288 223.9256 132.4842 224.1634C132.4396 224.3992 132.4878 224.6452 132.619 224.8458C132.7504 225.0486 132.9548 225.1934 133.1892 225.2492C133.4238 225.303 133.671 225.2658 133.8788 225.1438Z" clip-rule="evenodd" stroke-width="1"></path><path id="vector_42" fill="#103164" fill-rule="evenodd" d="M117.7014 249.6726C118.822 249.05 119.9042 248.3592 120.9422 247.6044C123.3798 245.716 125.9496 244.0036 128.6318 242.4814C131.8044 240.4504 131.0392 240.7442 132.6648 239.6646C132.8158 239.5632 135.5934 237.921 136.0276 237.6438C139.0968 235.6998 142.0254 233.555 144.9912 231.6462C146.6292 230.5934 148.3148 229.6378 149.899 228.6244C150.1034 228.4922 150.2466 228.2832 150.297 228.0454C150.3472 227.8054 150.301 227.5572 150.168 227.3526C150.035 227.1498 149.8262 227.005 149.5876 226.9554C149.3492 226.9058 149.1004 226.9512 148.896 227.0836C145.8764 229.1704 146.5652 228.883 142.5528 231.4392C140.1806 232.949 137.7154 234.3988 135.3142 235.9894C134.28 236.6656 133.3286 237.4122 132.2988 238.0802C130.8302 239.0336 129.2854 239.8672 127.8232 240.804C126.1252 241.894 124.514 243.079 122.8594 244.1586C120.9194 245.414 120.3466 245.5526 119.1636 246.3096C118.295 246.8638 117.4966 247.532 116.6672 248.109C116.476 248.2538 116.3464 248.4646 116.3058 248.7004C116.265 248.9362 116.3158 249.1782 116.4478 249.3788C116.5798 249.5774 116.783 249.72 117.0162 249.7738C117.249 249.8296 117.4942 249.7924 117.7014 249.6724Z" clip-rule="evenodd" stroke-width="1"></path><path id="vector_43" fill="#103164" fill-rule="evenodd" d="M111.683 278.7162C112.475 278.2096 113.3126 277.7896 114.084 277.2684C115.0148 276.6376 115.8504 275.8724 116.7728 275.2376C118.9216 273.7484 121.24 272.5054 123.4138 271.0576C124.4002 270.402 125.304 269.6762 126.2906 269.0246C127.5046 268.2242 128.7848 267.5272 130.0134 266.731C132.4786 265.1384 134.8178 263.3908 137.252 261.7674C138.888 260.6774 140.5612 259.6868 142.1784 258.5802C142.3782 258.4376 142.5136 258.2224 142.5544 257.9826C142.5956 257.7406 142.5392 257.4924 142.3978 257.2938C142.2562 257.0932 142.0412 256.9588 141.8 256.9174C141.5586 256.876 141.3112 256.9318 141.1114 257.0746C139.74 258.0756 138.4226 259.1428 137.0224 260.121C135.2522 261.362 130.611 264.1954 128.363 265.6886C127.4012 266.3276 126.5016 267.0432 125.513 267.6782C124.1314 268.5738 122.6588 269.3534 121.2586 270.2448C119.1036 271.6182 117.6682 272.797 115.3292 274.1558C114.568 274.5964 113.7718 274.9624 113.0272 275.436C112.2 275.9572 111.4596 276.59 110.655 277.1484C110.463 277.2912 110.3328 277.5022 110.291 277.738C110.2492 277.9738 110.2992 278.2156 110.4302 278.4162C110.5616 278.617 110.7644 278.7596 110.9972 278.8154C111.23 278.8712 111.4752 278.834 111.683 278.7162Z" clip-rule="evenodd" stroke-width="1"></path><path id="vector_44" fill="#103164" fill-rule="evenodd" d="M150.3788 253.0892C151.4872 252.4894 152.561 251.8296 153.595 251.1078C156.0184 249.292 158.5876 247.6768 161.2762 246.2806C164.4468 244.4006 163.727 244.6406 165.3484 243.6478C165.5036 243.5528 168.244 242.0822 168.7424 241.7864C171.8902 239.9748 174.8704 237.9852 177.8156 236.2934C179.5342 235.3068 181.2384 234.4588 182.8124 233.5612C182.922 233.5034 183.0186 233.4226 183.0964 233.3276C183.1742 233.2304 183.232 233.1186 183.266 232.9988C183.2998 232.8808 183.3092 232.7546 183.2936 232.6326C183.2782 232.5086 183.2378 232.3906 183.1754 232.2832C183.1128 232.1756 183.0294 232.0824 182.9298 232.008C182.8304 231.9336 182.7168 231.8798 182.5962 231.8508C182.4756 231.8218 182.3506 231.8178 182.228 231.8384C182.1056 231.857 181.9884 231.9026 181.8838 231.9688C180.436 232.8602 178.9758 233.8694 177.402 234.8126C174.5354 236.5292 171.4042 238.1216 168.3536 239.95C167.0734 240.7152 165.8718 241.588 164.573 242.3346C163.6588 242.866 162.6826 243.3046 161.7644 243.8258C159.0322 245.3728 156.7778 247.0066 155.1958 247.9498C153.992 248.6694 152.7408 249.2216 151.6012 249.9332C150.8028 250.4316 150.0934 251.0086 149.3592 251.509C149.1498 251.6456 149.0026 251.8586 148.95 252.1006C148.8974 252.3446 148.9438 252.599 149.079 252.81C149.2142 253.0188 149.4272 253.1658 149.671 253.2194C149.9148 253.2712 150.1694 253.2256 150.3788 253.0892Z" clip-rule="evenodd" stroke-width="1"></path><path id="vector_45" fill="#103164" fill-rule="evenodd" d="M134.2014 277.618C135.3228 276.9954 136.4052 276.3048 137.4424 275.5498C139.88 273.6636 142.4498 271.9512 145.1318 270.431C148.2714 268.4146 147.5516 268.6876 149.1648 267.612C149.4688 267.4052 151.9094 265.9824 152.5278 265.5914C155.597 263.6494 158.5256 261.5026 161.4914 259.5936C163.1272 258.541 164.817 257.5896 166.4012 256.574C166.5024 256.508 166.5894 256.421 166.657 256.3218C166.725 256.2204 166.772 256.1066 166.796 255.9888C166.82 255.8688 166.8204 255.7468 166.797 255.6268C166.7738 255.509 166.727 255.3952 166.6598 255.2938C166.5944 255.1946 166.5098 255.1078 166.4108 255.0394S166.2002 254.9236 166.0828 254.8988C165.9652 254.876 165.844 254.874 165.7262 254.8968C165.6082 254.9196 165.4962 254.965 165.396 255.0312C162.3206 257.149 163.0074 256.8658 159.053 259.3848C156.6808 260.8966 154.2134 262.3464 151.8142 263.9348C150.7802 264.6112 149.8288 265.3598 148.7988 266.0278C147.3284 266.9812 145.7854 267.8128 144.3232 268.7496C142.6232 269.8416 141.014 271.0246 139.3596 272.1062C137.3596 273.3988 136.9004 273.463 135.6636 274.2572C134.793 274.8136 133.9966 275.4794 133.1674 276.0566C132.9798 276.2014 132.854 276.4122 132.8156 276.646C132.7768 276.8818 132.8282 277.1196 132.959 277.3182C133.09 277.5166 133.2908 277.6574 133.5212 277.7132C133.7516 277.769 133.9946 277.7338 134.2014 277.618Z" clip-rule="evenodd" stroke-width="1"></path><path id="vector_46" fill="#103164" fill-rule="evenodd" d="M133.2376 309.2738C134.0318 308.7692 134.8694 308.3472 135.6388 307.8262C136.5716 307.2056 137.4072 306.43 138.3276 305.7972C140.4784 304.3082 142.7968 303.063 144.9684 301.6174C145.955 300.9598 146.8588 300.2338 147.8474 299.5822C149.0594 298.7818 150.3292 298.0828 151.5702 297.2886C154.0354 295.6962 156.3746 293.9486 158.8088 292.325C160.4428 291.235 162.118 290.2568 163.7354 289.1378C163.8386 289.0696 163.927 288.9828 163.9954 288.8794C164.0638 288.776 164.1108 288.6602 164.1334 288.538C164.1562 288.416 164.1542 288.292 164.1276 288.172C164.1012 288.05 164.0506 287.9362 163.979 287.8348C163.9074 287.7336 163.8162 287.6488 163.711 287.5846C163.6056 287.5184 163.4884 287.475 163.366 287.4564C163.2438 287.4378 163.1188 287.444 162.999 287.475C162.879 287.506 162.7666 287.5598 162.6682 287.6342C161.2948 288.6332 159.9794 289.7024 158.5794 290.6786C156.8254 291.9092 152.1678 294.7592 149.9176 296.2462C148.956 296.8854 148.0564 297.601 147.0678 298.238C145.6882 299.1334 144.2156 299.9112 142.8154 300.8046C140.6562 302.1778 139.2438 303.3444 136.8838 304.7134C136.1248 305.156 135.3286 305.5222 134.584 305.9958C133.7568 306.517 133.0164 307.1478 132.2098 307.7062C132.0176 307.8488 131.8876 308.0598 131.8458 308.2956C131.804 308.5314 131.8538 308.7754 131.985 308.974C132.1162 309.1746 132.319 309.3172 132.5518 309.3732C132.7848 309.429 133.03 309.3938 133.2376 309.2738Z" clip-rule="evenodd" stroke-width="1"></path><path id="vector_47" fill="#103164" fill-rule="evenodd" d="M171.9336 283.653C173.04 283.049 174.1136 282.3872 175.1498 281.6696C177.573 279.8516 180.1422 278.2384 182.831 276.8446C186.0078 274.9624 185.3584 275.1548 186.9032 274.2096C187.0626 274.1124 189.7842 272.6502 190.2972 272.3482C193.445 270.5344 196.4274 268.5448 199.3724 266.853C201.087 265.8686 202.7912 265.0186 204.3692 264.121C204.4726 264.059 204.5656 263.9782 204.638 263.881C204.7104 263.786 204.7642 263.6762 204.7952 263.5584C204.8262 263.4426 204.8346 263.3206 204.818 263.2006C204.8014 263.0806 204.7602 262.9648 204.7002 262.8614C204.6402 262.756 204.5574 262.665 204.4622 262.5926C204.365 262.5182 204.2554 262.4644 204.1396 262.4334C204.0218 262.4044 203.8998 262.396 203.7798 262.4126C203.6598 262.4292 203.544 262.4684 203.4406 262.5306C201.9928 263.4198 200.5306 264.4312 198.9568 265.3742C196.0922 267.0908 192.959 268.6834 189.9084 270.5116C188.6302 271.277 187.4266 272.1498 186.1298 272.8984C185.2136 273.43 184.2374 273.8664 183.3192 274.3874C180.616 275.92 178.3224 277.5746 176.7506 278.5238C175.5468 279.2416 174.2976 279.7958 173.156 280.5072C172.3576 281.0036 171.6504 281.5806 170.9162 282.0812C170.728 282.2238 170.6008 282.4328 170.56 282.6664C170.5194 282.8982 170.5682 283.138 170.697 283.3366C170.8254 283.5372 171.0244 283.68 171.2536 283.7378C171.483 283.7958 171.7258 283.7648 171.9336 283.653Z" clip-rule="evenodd" stroke-width="1"></path><path id="vector_48" fill="#103164" fill-rule="evenodd" d="M155.7582 308.1798C156.8784 307.5552 157.9606 306.8644 158.9992 306.1116C161.4372 304.2234 164.0068 302.5108 166.6888 300.9886C169.8592 298.9576 169.1126 299.241 170.7216 298.1718C170.8602 298.0788 173.6668 296.418 174.0846 296.1532C177.1538 294.2092 180.0824 292.0624 183.0482 290.1554C184.6842 289.1048 186.3718 288.1492 187.956 287.1358C188.1606 287.0014 188.3038 286.7926 188.3544 286.5548C188.4046 286.3148 188.358 286.0666 188.2248 285.8618C188.0914 285.6572 187.8824 285.5124 187.6436 285.4628C187.4046 285.413 187.1554 285.4586 186.9508 285.593C183.9086 287.6964 184.6366 287.38 180.6078 289.9486C178.2376 291.4584 175.7702 292.9082 173.369 294.4986C172.335 295.175 171.3856 295.9216 170.3556 296.5896C168.8852 297.5452 167.3402 298.3766 165.88 299.3134C164.18 300.4034 162.571 301.5884 160.9164 302.668C158.9722 303.9256 158.4056 304.062 157.2206 304.819C156.3518 305.3754 155.5556 306.0434 154.7242 306.6204C154.54 306.7652 154.417 306.9762 154.3802 307.2078C154.3434 307.4414 154.3952 307.6772 154.5252 307.8736C154.6552 308.0702 154.854 308.2108 155.0824 308.2666C155.3108 308.3224 155.5518 308.2914 155.7582 308.1798Z" clip-rule="evenodd" stroke-width="1"></path><path id="vector_49" fill="#103164" fill-rule="evenodd" d="M149.7378 337.2194C150.5298 336.7148 151.3696 336.2928 152.139 335.7716C153.0716 335.1408 153.9072 334.3756 154.8276 333.7406C156.9786 332.2516 159.297 331.0064 161.4686 329.5608C162.4552 328.9032 163.359 328.1792 164.3476 327.5258C165.5594 326.7254 166.8294 326.0284 168.0702 325.232C170.5356 323.6416 172.8746 321.892 175.309 320.2684C176.9428 319.1806 178.618 318.2002 180.2354 317.0812C180.334 317.011 180.418 316.922 180.4824 316.8206C180.5466 316.7172 180.5904 316.6036 180.6104 316.4836C180.6306 316.3636 180.627 316.2416 180.6 316.1238C180.573 316.0058 180.5226 315.8942 180.4526 315.7948C180.3824 315.6976 180.2934 315.6128 180.1908 315.5488C180.0882 315.4846 179.9738 315.4412 179.8542 315.4206C179.7348 315.3998 179.6126 315.404 179.4946 315.4308C179.3764 315.4578 179.2648 315.5074 179.1662 315.5778C177.795 316.5746 176.4774 317.646 175.0774 318.622C173.3276 319.8486 168.6266 322.7212 166.4178 324.1896C165.456 324.8288 164.546 325.5444 163.5678 326.1792C162.1862 327.0768 160.7136 327.8546 159.3156 328.746C157.115 330.1482 155.7396 331.2878 153.384 332.6568C152.625 333.0974 151.8266 333.4634 151.0842 333.937C150.2568 334.4604 149.5164 335.0932 148.7098 335.6516C148.502 335.7882 148.3568 336.0012 148.3062 336.2452C148.2554 336.4892 148.3036 336.7416 148.44 336.9504C148.5762 337.1572 148.7894 337.3042 149.033 337.3538C149.2764 337.4034 149.5298 337.3558 149.7378 337.2194Z" clip-rule="evenodd" stroke-width="1"></path><path id="vector_50" fill="#103164" fill-rule="evenodd" d="M188.4338 311.5964C189.5432 310.9946 190.6188 310.3328 191.656 309.613C194.0802 307.7972 196.649 306.182 199.3372 304.7858C202.514 302.9018 201.8398 303.1126 203.4096 302.151C203.5668 302.0558 206.2906 300.5916 206.8034 300.2896C209.9512 298.4758 212.9336 296.4882 215.8766 294.7964C217.5954 293.81 219.2996 292.962 220.8734 292.0644C221.0844 291.9424 221.2374 291.7396 221.3016 291.504C221.3636 291.2682 221.3284 291.0158 221.2064 290.8048C221.0844 290.5938 220.8818 290.4408 220.646 290.3768C220.4102 290.3146 220.1578 290.3498 219.9468 290.4718C218.4992 291.3654 217.037 292.3726 215.463 293.3156C212.5986 295.0344 209.4652 296.6248 206.4146 298.453C205.1366 299.2204 203.9224 300.091 202.636 300.8398C201.7198 301.3692 200.7458 301.8076 199.8254 302.3288C197.1368 303.8532 194.8616 305.4994 193.2568 306.4652C192.0552 307.183 190.8038 307.7372 189.6622 308.4486C188.864 308.947 188.1566 309.5242 187.4224 310.0226C187.2364 310.1652 187.1114 310.3742 187.0714 310.6058C187.0314 310.8374 187.0796 311.0752 187.2066 311.2738C187.3336 311.4702 187.5302 311.613 187.7572 311.673C187.9846 311.733 188.2258 311.706 188.4338 311.5964Z" clip-rule="evenodd" stroke-width="1"></path><path id="vector_51" fill="#103164" fill-rule="evenodd" d="M172.2584 336.1232C173.379 335.4986 174.4612 334.8078 175.4992 334.055C177.9352 332.1646 180.5042 330.4542 183.1868 328.9342C186.4648 326.837 185.5238 327.2486 187.2198 326.1152C187.5424 325.9084 189.9084 324.5268 190.5846 324.0966C193.6538 322.1566 196.5824 320.0058 199.5482 318.0988C201.1842 317.0482 202.8698 316.0948 204.456 315.0792C204.6506 314.9408 204.785 314.734 204.8284 314.4982C204.8718 314.2644 204.8242 314.0224 204.694 313.8218C204.5616 313.6232 204.3588 313.4826 204.1252 313.431C203.8914 313.3792 203.6494 313.4186 203.4448 313.5426C200.3838 315.6542 201.1698 315.3048 197.1016 317.8982C194.7314 319.408 192.264 320.86 189.8628 322.4482C188.8288 323.1246 187.8774 323.8712 186.8474 324.5392C185.379 325.4926 183.834 326.324 182.3718 327.263C180.6718 328.353 179.073 329.5484 177.4082 330.6198C175.4888 331.8606 174.8808 332.02 173.7122 332.7686C172.8416 333.325 172.0474 333.9908 171.216 334.57C171.0336 334.7168 170.9128 334.9278 170.8778 335.1594C170.8426 335.3932 170.8956 335.629 171.0266 335.8234C171.1572 336.0178 171.3562 336.1584 171.584 336.2122C171.8122 336.268 172.0528 336.237 172.2584 336.1232Z" clip-rule="evenodd" stroke-width="1"></path><g id="group_2"><path id="vector_52" fill="#103164" d="M93.096 180.1888L83.723 186.7636L79.9008 181.2622L89.2408 174.6438C89.4624 174.4844 89.6116 174.2438 89.6566 173.9748C89.7014 173.7056 89.6382 173.4296 89.4804 173.2068C89.3228 172.9842 89.0834 172.833 88.8146 172.786C88.5458 172.739 88.2692 172.8002 88.0454 172.9562L78.7324 179.5558L73.9218 172.6316L83.0218 166.3628C83.1386 166.288 83.2394 166.1906 83.3178 166.076C83.3964 165.9614 83.451 165.8324 83.4782 165.6962C83.5058 165.5604 83.5056 165.4202 83.4778 165.284C83.45 165.1482 83.3952 165.0192 83.3164 164.905C83.2376 164.7906 83.1366 164.6934 83.0196 164.619C82.9022 164.5444 82.7714 164.4942 82.6344 164.4714C82.4976 164.4486 82.3574 164.4536 82.2226 164.4862C82.0876 164.5186 81.9606 164.578 81.8492 164.6606C71.0944 172.0628 71.564 171.5808 71.4564 172.1828C71.3488 172.7846 70.6292 171.496 82.6248 188.7862C82.7196 188.9232 82.8464 189.0352 82.994 189.1126S83.306 189.2304 83.4726 189.2308C83.9484 189.2308 83.3196 189.568 94.2872 181.8846C94.512 181.7274 94.6654 181.4874 94.7134 181.2172S94.6998 180.669 94.5426 180.4442C94.3856 180.2192 94.1454 180.0658 93.8752 180.0182C93.6052 179.9702 93.327 180.0316 93.1022 180.1888H93.096Z" stroke-width="1"></path><path id="vector_53" fill="#103164" d="M67.4834 175.8714C67.3672 175.7052 67.2046 175.577 67.016 175.5028C66.8274 175.4284 66.6212 175.411 66.4228 175.453C66.2246 175.4948 66.043 175.594 65.9006 175.7382C65.7582 175.8826 65.6614 176.0654 65.622 176.2642L62.8672 189.4862L48.8924 187.1574C48.6902 187.124 48.4824 187.1516 48.296 187.2364C48.1092 187.3214 47.952 187.46 47.8444 187.6344C47.7368 187.8088 47.6832 188.0114 47.6908 188.2162C47.6984 188.4212 47.767 188.619 47.8872 188.7852C59.5644 204.838 58.7846 204.0666 59.5374 204.0666C59.7294 204.0666 59.9178 204.0128 60.0812 203.9116C60.2444 203.8122 60.3766 203.6674 60.4624 203.4958C60.5482 203.3242 60.5846 203.1318 60.5674 202.9394C60.55 202.7492 60.48 202.5652 60.3648 202.412L51.0392 189.602L63.498 191.6702C63.7616 191.7144 64.0318 191.6548 64.2524 191.504C64.4728 191.3532 64.6264 191.123 64.681 190.8616L67.1628 178.9654L76.6042 192.057C76.6832 192.1684 76.7836 192.2628 76.8992 192.335C77.0148 192.4074 77.1436 192.456 77.2782 192.4784C77.4128 192.5006 77.5506 192.4962 77.6834 192.4648C77.8162 192.4338 77.9416 192.3768 78.0524 192.297C78.163 192.2172 78.2566 192.1162 78.328 192C78.3996 191.8838 78.4474 191.7544 78.4686 191.6196C78.49 191.485 78.4844 191.3472 78.4524 191.2146C78.4202 191.082 78.3622 190.9572 78.2816 190.8472L67.4834 175.8714Z" stroke-width="1"></path><path id="vector_54" fill="#103164" d="M105.8588 150.9364C105.7192 150.7062 105.4954 150.5394 105.2348 150.4718C104.9742 150.404 104.6978 150.4406 104.4636 150.5736C104.2298 150.7068 104.0566 150.9258 103.9816 151.1844C103.9064 151.4426 103.9352 151.7204 104.0616 151.958L112.7046 167.182L91.5014 159.116C91.2966 159.0376 91.0722 159.0262 90.8604 159.0838C90.649 159.1412 90.4612 159.2646 90.324 159.436C90.187 159.6072 90.108 159.8176 90.0986 160.0366C90.089 160.2558 90.1492 160.4722 90.2708 160.6548L100.982 176.8198C101.1336 177.0486 101.37 177.2076 101.6388 177.2622C101.908 177.3166 102.1876 177.262 102.4164 177.1104C102.645 176.9588 102.8042 176.7224 102.8588 176.4534C102.9132 176.1844 102.8586 175.9048 102.707 175.6762L93.7722 162.1936L114.661 170.1374C114.8598 170.2128 115.077 170.2248 115.283 170.1722C115.489 170.1194 115.6736 170.0048 115.812 169.8432C115.9504 169.6818 116.0356 169.4816 116.0562 169.27C116.0768 169.0584 116.0314 168.8456 115.9268 168.6608L105.8588 150.9364Z" stroke-width="1"></path><path id="vector_55" fill="#103164" d="M132.8592 154.102C130.7144 150.4702 126.1624 142.9336 124.667 140.4518C124.026 139.3888 122.0426 140.1064 122.9276 141.5708C124.4664 144.1188 128.9524 151.5518 131.0764 155.1504C133.5582 159.351 125.8046 164.0438 122.7044 159.3158C120.4044 155.8 114.1214 146.6646 114.0592 146.5736C113.984 146.458 113.8864 146.3584 113.7722 146.281C113.6578 146.2034 113.5292 146.1496 113.394 146.1228C113.2584 146.096 113.119 146.0964 112.9838 146.124C112.8486 146.152 112.7204 146.2066 112.6066 146.2846C112.4928 146.3628 112.3958 146.463 112.3212 146.5792C112.2466 146.6956 112.1964 146.8254 112.1728 146.9614C112.1494 147.0976 112.1534 147.237 112.1848 147.3714C112.216 147.5058 112.274 147.6326 112.355 147.7442C112.4172 147.8374 118.6858 156.9602 120.9754 160.4512C125.4736 167.3218 136.762 160.716 132.8592 154.102Z" stroke-width="1"></path></g></g></g></svg>