<svg xmlns="http://www.w3.org/2000/svg" fill="none" viewBox="0 0 400 400" id="Payment-Processed-Online-Payment-Smart-Phone-Groceries--Streamline-Milano.svg" height="400" width="400"><desc>Payment Processed Online Payment Smart Phone Groceries Streamline Illustration: https://streamlinehq.com</desc><g id="Payment-Processed-online-payment-smart-phone-Groceries--Shopping"><g id="phone"><path id="Vector" fill="#22bb33" d="M374.918 175.4002c-96.696 -14.964 -86.472 -13.426 -96.732 -14.952 -0.868 -0.1264 -1.752 -0.077 -2.6 0.1452 -0.85 0.2222 -1.644 0.6128 -2.338 1.1484 -0.696 0.5358 -1.274 1.2056 -1.706 1.9698 -0.43 0.7642 -0.702 1.607 -0.8 2.4786L239.434 368.744c-0.226 1.69 0.228 3.402 1.262 4.756 1.036 1.356 2.566 2.244 4.256 2.472 11.046 1.636 0.4 -0.696 96.712 14.95 1.714 0.224 3.446 -0.224 4.836 -1.252 1.39 -1.026 2.328 -2.55 2.618 -4.254l31.308 -202.5678c0.128 -0.8508 0.088 -1.7188 -0.12 -2.554 -0.206 -0.8352 -0.576 -1.6214 -1.088 -2.3132 -0.512 -0.692 -1.156 -1.276 -1.894 -1.719 -0.736 -0.4428 -1.554 -0.7356 -2.406 -0.8618Zm3.532 7.144L347.142 385.11c-0.206 1.178 -0.856 2.234 -1.816 2.948 -0.96 0.714 -2.158 1.032 -3.346 0.89l-91.6 -14.254c-0.592 -0.086 -1.16 -0.288 -1.674 -0.594s-0.962 -0.712 -1.318 -1.192c-0.356 -0.48 -0.614 -1.026 -0.76 -1.606 -0.144 -0.58 -0.174 -1.182 -0.084 -1.774l31.314 -202.5698c0.098 -0.6434 0.33 -1.2588 0.684 -1.8054 0.354 -0.5468 0.818 -1.0122 1.366 -1.3656 0.546 -0.3536 1.162 -0.587 1.804 -0.6852 0.644 -0.098 1.3 -0.0584 1.928 0.1162l90.972 14.158c0.592 0.0856 1.16 0.2874 1.674 0.5938 0.514 0.3062 0.962 0.711 1.318 1.1912 0.358 0.48 0.616 1.026 0.76 1.6062 0.146 0.5802 0.174 1.1834 0.086 1.7748v0.002Z" stroke-width="1"></path><path id="Vector_2" fill="#22bb33" d="m332.768 226.21 0.352 -2.978c0.126 -2.23 -0.496 -4.438 -1.768 -6.274 -1.27 -1.836 -3.118 -3.194 -5.25 -3.862l0.858 -6.586 -5.95 -0.776 -0.9 6.898c-2.328 0.472 -4.478 1.582 -6.21 3.208 -1.732 1.624 -2.978 3.7 -3.598 5.992 -0.618 2.294 -0.588 4.714 0.092 6.99 0.678 2.276 1.978 4.318 3.752 5.896 3.98 3.48 10.054 4.216 11.97 7.154 0.552 1.274 0.768 2.668 0.632 4.05 -0.136 1.382 -0.622 2.706 -1.41 3.848 -0.79 1.144 -1.858 2.066 -3.102 2.682 -1.244 0.616 -2.624 0.906 -4.012 0.84 -1.128 -0.004 -2.244 -0.232 -3.284 -0.672 -1.038 -0.44 -1.978 -1.084 -2.766 -1.892 -0.786 -0.81 -1.404 -1.766 -1.816 -2.818 -0.412 -1.05 -0.61 -2.172 -0.582 -3.3 0 -1.814 -0.074 -1.164 1.026 -4.468l-5.692 -1.896c-0.934 1.988 -1.39 4.168 -1.334 6.364 -0.012 3.13 0.978 6.18 2.824 8.708 1.846 2.528 4.45 4.398 7.434 5.34l-0.824 6.042 5.946 0.81 0.864 -6.338c9.46 -1.142 15.882 -11.15 11.4 -20.11 -2.426 -4.978 -10.222 -6.146 -13.306 -8.844 -0.712 -0.622 -1.284 -1.392 -1.674 -2.254 -0.392 -0.862 -0.592 -1.798 -0.59 -2.746 0 -5.8 6.8 -9.068 10.418 -5 0.298 0.306 0.532 0.668 0.684 1.066 0.154 0.398 0.224 0.824 0.208 1.25l-0.35 2.978 5.958 0.698Z" stroke-width="1"></path><path id="Vector_3" fill="#22bb33" d="M312.72 320.89c-0.218 -0.152 -0.488 -0.21 -0.748 -0.164 -0.262 0.048 -0.494 0.196 -0.644 0.414 -0.152 0.218 -0.21 0.486 -0.164 0.748 0.046 0.26 0.196 0.492 0.414 0.644l3.714 2.584 -4.618 1.484c-0.228 0.072 -0.42 0.224 -0.546 0.428 -0.124 0.202 -0.174 0.444 -0.136 0.678 0.036 0.236 0.156 0.45 0.338 0.606 0.18 0.154 0.412 0.24 0.65 0.24 2.322 -0.58 4.61 -1.298 6.848 -2.15 0.178 -0.056 0.336 -0.162 0.456 -0.304 0.122 -0.142 0.2 -0.316 0.228 -0.5 0.028 -0.184 0.004 -0.374 -0.07 -0.544 -0.074 -0.172 -0.196 -0.32 -0.348 -0.426l-5.374 -3.738Z" stroke-width="1"></path><path id="Vector_4" fill="#22bb33" d="m337.018 327.2 -5.372 -3.74c-0.108 -0.076 -0.23 -0.128 -0.358 -0.156 -0.128 -0.028 -0.262 -0.032 -0.39 -0.008 -0.13 0.024 -0.254 0.072 -0.364 0.142 -0.11 0.072 -0.206 0.164 -0.282 0.27 -0.074 0.108 -0.128 0.23 -0.156 0.358 -0.028 0.128 -0.03 0.262 -0.008 0.39 0.024 0.13 0.072 0.254 0.144 0.364 0.07 0.112 0.162 0.206 0.27 0.282l3.714 2.584 -4.616 1.484c-0.25 0.082 -0.458 0.26 -0.578 0.496 -0.12 0.236 -0.142 0.508 -0.06 0.76 0.08 0.25 0.256 0.46 0.49 0.582 0.236 0.12 0.508 0.144 0.76 0.066l6.54 -2.102c0.178 -0.058 0.334 -0.162 0.456 -0.304 0.12 -0.142 0.198 -0.316 0.226 -0.5 0.028 -0.184 0.004 -0.372 -0.07 -0.544 -0.074 -0.17 -0.194 -0.318 -0.346 -0.424Z" stroke-width="1"></path><path id="Vector_5" fill="#22bb33" d="M321.856 322.076c-0.104 -0.09 -0.226 -0.158 -0.358 -0.2 -0.13 -0.042 -0.27 -0.054 -0.406 -0.04 -0.138 0.014 -0.27 0.058 -0.39 0.126s-0.224 0.16 -0.306 0.272c-0.082 0.11 -0.14 0.236 -0.172 0.37 -0.03 0.134 -0.034 0.274 -0.008 0.41 0.024 0.136 0.078 0.264 0.156 0.378 0.076 0.114 0.178 0.21 0.294 0.284l3.74 2.764 -4.588 1.312c-0.23 0.068 -0.43 0.216 -0.56 0.418 -0.13 0.2 -0.184 0.442 -0.15 0.68 0.032 0.238 0.15 0.456 0.332 0.614 0.18 0.158 0.412 0.246 0.652 0.248 0.214 0 -0.24 0.098 6.818 -1.908 0.18 -0.052 0.342 -0.152 0.466 -0.29 0.126 -0.138 0.21 -0.31 0.244 -0.494 0.032 -0.184 0.014 -0.372 -0.054 -0.546 -0.07 -0.174 -0.186 -0.324 -0.336 -0.436l-5.374 -3.962Z" stroke-width="1"></path><path id="Vector_6" fill="#22bb33" d="M303.244 314.286c-0.388 -0.514 -0.028 -0.258 -28.438 -4.2 -0.262 -0.036 -0.528 0.034 -0.74 0.194 -0.212 0.16 -0.35 0.398 -0.386 0.66l-2.064 15.06c-0.036 0.262 0.034 0.528 0.194 0.74 0.16 0.212 0.398 0.35 0.66 0.386l27.914 3.82c0.242 0.002 0.478 -0.084 0.662 -0.242 0.184 -0.16 0.304 -0.38 0.338 -0.622 2.216 -16.32 2.216 -15.328 1.86 -15.796Zm-3.716 14.524 -25.8 -3.54 1.8 -13.062 25.8 3.538 -1.8 13.064Z" stroke-width="1"></path><path id="Vector_7" fill="#22bb33" d="M289 319.882c-0.34 -0.154 -0.7 -0.26 -1.068 -0.32 -0.526 -0.102 -0.418 -0.066 -0.68 -0.32 -0.788 -1.048 0.122 -1.846 0.916 -1.348 0.088 0.056 0.164 0.13 0.224 0.218 0.058 0.088 0.096 0.186 0.114 0.29 0.026 0.13 0.076 0.252 0.15 0.362 0.072 0.108 0.166 0.202 0.276 0.276 0.11 0.072 0.232 0.124 0.362 0.148 0.128 0.026 0.26 0.026 0.39 0 1.322 -0.264 0.854 -2.16 -0.446 -2.982 -0.462 -0.29 -0.438 0.382 -0.16 -1.846 0.026 -0.26 -0.05 -0.52 -0.214 -0.724 -0.162 -0.204 -0.398 -0.336 -0.658 -0.368 -0.258 -0.032 -0.52 0.038 -0.728 0.196 -0.208 0.158 -0.346 0.39 -0.384 0.648l-0.216 1.73c-0.308 0.028 -0.592 0.172 -0.8 0.4 -0.322 0.25 -0.586 0.564 -0.78 0.922 -0.192 0.358 -0.31 0.752 -0.342 1.158 -0.032 0.406 0.022 0.814 0.156 1.198s0.346 0.736 0.624 1.032c0.21 0.286 0.48 0.522 0.79 0.69 0.312 0.168 0.656 0.266 1.01 0.286 0.212 0.042 0.452 0.092 0.498 0.11 0.242 0.174 0.412 0.43 0.48 0.72 0.066 0.29 0.026 0.596 -0.114 0.858 -0.14 0.264 -0.372 0.466 -0.65 0.572 -0.28 0.104 -0.588 0.104 -0.866 0 -0.36 -0.094 -0.678 -0.306 -0.906 -0.6 -0.08 -0.246 -0.236 -0.46 -0.446 -0.61 -0.21 -0.15 -0.464 -0.228 -0.722 -0.222 -0.212 0 -0.418 0.068 -0.59 0.192 -0.17 0.124 -0.298 0.3 -0.362 0.502 -0.066 0.2 -0.064 0.418 0.002 0.618 0.066 0.202 0.194 0.376 0.366 0.5 0.348 0.534 0.83 0.966 1.4 1.254l-0.164 1.314c-0.02 0.132 -0.012 0.266 0.02 0.396 0.034 0.128 0.092 0.25 0.172 0.356 0.082 0.106 0.182 0.196 0.298 0.262 0.114 0.066 0.242 0.11 0.374 0.126 0.134 0.016 0.268 0.006 0.396 -0.03s0.248 -0.098 0.352 -0.18c0.104 -0.084 0.192 -0.186 0.254 -0.304 0.064 -0.116 0.104 -0.246 0.118 -0.378l0.146 -1.168c0.684 -0.038 1.34 -0.296 1.866 -0.736s0.896 -1.038 1.054 -1.704c0.158 -0.668 0.096 -1.37 -0.176 -1.998 -0.272 -0.63 -0.74 -1.154 -1.336 -1.496Z" stroke-width="1"></path><path id="Vector_8" fill="#22bb33" d="m370.102 179.6382 -83.59 -12.86c-0.808 -0.1296 -1.636 -0.0976 -2.432 0.0942 -0.796 0.1918 -1.546 0.5394 -2.208 1.023 -0.662 0.4834 -1.22 1.0932 -1.644 1.794 -0.424 0.7008 -0.706 1.4788 -0.828 2.2888l-29.544 193.1238c-0.128 0.808 -0.094 1.634 0.098 2.43 0.194 0.796 0.54 1.546 1.024 2.206 0.484 0.662 1.092 1.22 1.792 1.644 0.7 0.424 1.478 0.706 2.286 0.83l83.584 12.86c1.632 0.24 3.292 -0.17 4.624 -1.142 1.332 -0.974 2.228 -2.43 2.494 -4.058l29.546 -193.1258c0.128 -0.8084 0.094 -1.6342 -0.098 -2.4298 -0.194 -0.7954 -0.542 -1.545 -1.026 -2.2056 -0.482 -0.6604 -1.092 -1.219 -1.792 -1.6432 -0.7 -0.4244 -1.476 -0.7062 -2.286 -0.8294ZM348.41 349.32l-92.2 -12.552 5.904 -38.59 92.164 12.776 -5.868 38.366Zm-4.61 30.176c-0.178 1.112 -0.782 2.112 -1.686 2.784 -0.904 0.672 -2.036 0.966 -3.152 0.816l-83.584 -12.858c-0.55 -0.084 -1.078 -0.276 -1.554 -0.564 -0.476 -0.29 -0.89 -0.668 -1.22 -1.118 -0.328 -0.45 -0.564 -0.958 -0.696 -1.5 -0.132 -0.54 -0.156 -1.102 -0.07 -1.652l4.078 -26.658 92.2 12.55 -4.316 28.2Zm29.532 -193.0498 -18.744 122.5278 -92.168 -12.774 18.956 -123.9078c0.084 -0.55 0.276 -1.078 0.564 -1.5538 0.288 -0.476 0.668 -0.89 1.118 -1.2188 0.448 -0.3288 0.958 -0.5656 1.498 -0.6968 0.542 -0.1314 1.102 -0.1546 1.652 -0.0686l83.578 12.858c0.55 0.0842 1.078 0.2762 1.554 0.5648 0.476 0.2886 0.89 0.6684 1.22 1.1174 0.328 0.4492 0.566 0.9588 0.698 1.4996 0.13 0.5408 0.154 1.1024 0.068 1.6522h0.006Z" stroke-width="1"></path></g><g id="groceries"><path id="Vector_9" fill="#22bb33" d="m172.3854 281.478 -75.646 -14.478 -39.486 9.112c-0.2112 0.048 -0.4012 0.164 -0.5404 0.328 -0.1392 0.166 -0.2202 0.374 -0.2302 0.59 -0.01 0.216 0.0514 0.43 0.1748 0.608 0.1234 0.178 0.3018 0.312 0.5078 0.378l-0.92 33.388c-0.0056 0.21 0.055 0.416 0.1734 0.59 0.1186 0.174 0.2888 0.306 0.4866 0.378l69.858 25.228c0.582 0.2 0.1582 0.244 44.4202 -18.478 0.1748 -0.074 0.3252 -0.196 0.4332 -0.352 0.108 -0.156 0.1692 -0.34 0.1768 -0.53l1.39 -35.2c0.016 -0.57 0.1178 -1.386 -0.7982 -1.562Zm-44.2818 53.678v-37.252l43.0458 -14.05 -1.3278 33.68 -41.718 17.622Z" stroke-width="1"></path><path id="Vector_10" fill="#22bb33" d="m134.816 303.488 11.448 -4.2c1.366 -0.456 0.81 -2.336 -0.702 -2.336l-11.448 4.2c-0.1494 0.026 -0.2906 0.088 -0.412 0.178 -0.1216 0.092 -0.2202 0.21 -0.2882 0.346 -0.068 0.136 -0.1032 0.286 -0.1032 0.438 0 0.152 0.0354 0.302 0.1034 0.438 0 0.702 0.7 0.936 1.402 0.936Z" stroke-width="1"></path><path id="Vector_11" fill="#22bb33" d="m134.582 308.4 5.374 -2.102c1.366 -0.456 0.81 -2.338 -0.702 -2.338l-5.374 2.104c-0.2818 0.108 -0.5228 0.3 -0.6902 0.552 -0.1674 0.25 -0.2526 0.546 -0.2438 0.848 0.0456 0.17 0.1242 0.328 0.2312 0.466 0.107 0.138 0.2402 0.254 0.3922 0.342 0.1522 0.086 0.3198 0.142 0.4936 0.164 0.1736 0.022 0.35 0.01 0.519 -0.036Z" stroke-width="1"></path><path id="Vector_12" fill="#22bb33" d="M221.964 301.618c-4.458 -43.432 -5.832 -58.584 -14.252 -103.502 -0.162 -0.3092 -0.396 -0.5758 -0.68 -0.7786 -0.284 -0.203 -0.612 -0.3362 -0.956 -0.3894 -17.9644 -1.2 -18.0004 -1.55 -66.1744 -5.932 -0.706 -0.243 -1.476 -0.2224 -2.168 0.058l-21.376 2.836c-0.1922 0.0182 -0.3782 0.0778 -0.545 0.1748 -0.167 0.097 -0.311 0.229 -0.422 0.387 -0.111 0.158 -0.1864 0.338 -0.2212 0.528 -0.0346 0.19 -0.0278 0.3852 0.0202 0.5722l-3.346 75.492c-0.234 1.4 2.102 1.4 2.102 -0.234l0.698 -15.904c4.956 11.472 16.474 19.1 28.348 22.862 1.4 0.466 2.104 -1.87 0.702 -2.338 -13.304 -4.2 -25.904 -13.298 -28.728 -27.756l0.622 -13.936c1.1338 2.838 2.9848 5.332 5.3718 7.238 2.3872 1.908 5.2286 3.162 8.2462 3.642 -7.492 14.466 4.274 26.162 18.332 18.79 0.256 6.662 5.586 11.644 11.108 10.854 3.738 -0.466 5.374 -4.2 6.31 -7.476 0.8538 -3.406 0.7982 -6.976 -0.1614 -10.352 -0.9596 -3.378 -2.7896 -6.442 -5.3066 -8.89 1.24 -5.366 0.364 -10.572 -2.696 -13.72 3.988 -3.866 7.4 -8.298 11.668 -11.664 3.374 -2.7 11.496 -7.1 14.4 -1.8 0.464 18.994 0.882 37.986 1.254 56.978 -1.7728 -0.43 -3.63 -0.36 -5.366 0.2 -6.074 1.168 -12.384 3.738 -18.692 1.868 -1.168 -0.934 -1.868 1.168 -0.466 1.87 4.8624 1.134 9.9374 0.972 14.718 -0.468 2.5178 -0.768 5.0976 -1.314 7.71 -1.636 0.7272 -0.06 1.4584 0.048 2.138 0.314l0.4 20.518c-1.134 0.17 -2.258 0.362 -3.462 0.664 -4.052 1.418 -6.166 6 -6.658 10.084l-1.986 -0.504c-0.2922 -0.022 -0.5826 0.062 -0.8164 0.24 -0.2336 0.176 -0.3944 0.434 -0.452 0.72 -0.0576 0.288 -0.008 0.586 0.1394 0.84 0.1476 0.254 0.3826 0.444 0.661 0.536l13.786 3.738c0.2448 0.088 0.514 0.084 0.7546 -0.016 0.2406 -0.1 0.4352 -0.286 0.5454 -0.522 9 -2.49 18.2004 -5.184 27.2004 -8.106 3.022 -0.94 8.152 -1.64 7.696 -6.08Zm-83.0864 -108.36c5.286 0.446 10.57 0.932 15.854 1.414 -13.692 3.232 -10.302 2.582 -14.076 3.21 -0.3778 0.0138 -0.7456 0.1246 -1.068 0.322 -5.86 -0.8628 -11.708 -1.7668 -17.544 -2.712l16.834 -2.234Zm23.506 74.248c-2.128 8.518 -13.2 3.502 -12.414 -5.6 4.0214 -2.952 7.0702 -7.038 8.756 -11.732 2.0524 2.328 3.4676 5.148 4.1086 8.184 0.641 3.038 0.4858 6.188 -0.4506 9.148Zm-11.914 -8.878c-4.754 4.252 -11.678 6.624 -17.056 3.038 -5.842 -3.972 -4.2 -12.382 -1.168 -17.524 5.33 -9.022 15.04 -14.118 22.2 -9.112 6.712 5.37 2.554 17.726 -3.976 23.598Zm18.456 -39.952c-5.512 3.674 -9.448 8.928 -14.242 13.544 -1.5774 -0.878 -3.345 -1.358 -5.15 -1.4 -7.68 -0.744 -14.934 5.348 -19.046 11.616 -1.8264 -0.134 -3.6078 -0.632 -5.2402 -1.462 -1.6324 -0.83 -3.0832 -1.978 -4.2678 -3.374 -2.633 -3.442 -4.3646 -7.486 -5.038 -11.766l1.288 -28.898c7.04 1.164 14.104 2.242 21.182 3.278 -0.0174 1.626 0.3514 3.232 1.076 4.686 0.7242 1.932 2.102 3.55 3.8942 4.572 1.7922 1.024 3.8858 1.388 5.9178 1.028 3.644 -1.012 4.828 -4.654 5.234 -8.04 9.268 1.234 18.5466 2.384 27.836 3.45 0.2 0.214 0.118 -0.586 0.388 10.626 -4.034 -2.86 -10.14 -0.466 -13.832 2.14Zm14.722 -14.72c-8.556 -0.98 -17.1074 -2.042 -25.654 -3.184 5.7502 -1.6988 11.5864 -3.0914 17.484 -4.172 4.436 0.426 21.882 1.972 26.1584 2.32 -5.9244 1.88 -11.9524 3.588 -17.9884 5.036Zm-6.93 107.4c0.376 -4.724 2.89 -9.034 7.63 -9.034 0.334 0 0.2 -1.3 0.438 11.084l-8.068 -2.05Zm8.106 -105.414c7.064 -1.71 14.11 -3.772 20.9864 -6.036 4.152 21.696 7.886 45.372 9.088 55 -23.9084 -8.986 -28.9404 -33.29 -29.8624 -35.368 -0.112 -4.576 -0.202 -9.126 -0.212 -13.598v0.002Zm1.654 75.114c0.6634 0.658 1.2782 1.362 1.84 2.108 2.8 3.504 4.908 8.41 2.8 12.616 -0.4194 0.892 -1.0144 1.69 -1.7494 2.348 -0.7352 0.656 -1.595 1.158 -2.5286 1.476l-0.362 -18.548Zm31.7484 22.902c-5.162 2.06 -25.7584 7.87 -31.1124 9.364 -0.062 -3.8 -0.154 -7.61 -0.224 -11.4 0.9868 -0.3 1.9364 -0.712 2.83 -1.226 1.7632 -1.27 3.0732 -3.072 3.738 -5.14 0.5322 -2.178 0.5566 -4.448 0.071 -6.636 -0.4856 -2.188 -1.4678 -4.234 -2.871 -5.982 -1.205 -1.65 -2.6272 -3.13 -4.228 -4.4 -0.358 -16.62 -1.17 -50.722 -1.184 -51.186 4.73 13.666 15.9664 25.622 29.4764 30.126 0.16 0.056 0.332 0.072 0.502 0.048 0.99 7.95 1.836 15.8 2.536 23.784 1.8 20.554 2.102 18.722 2.102 20.56 -0.002 1.15 -0.462 1.618 -1.636 2.086v0.002Z" stroke-width="1"></path><path id="Vector_13" fill="#22bb33" d="m196.7304 271.946 12.3836 -3.038c0.302 -0.1 0.554 -0.314 0.702 -0.596 0.146 -0.282 0.178 -0.61 0.086 -0.914 -0.092 -0.306 -0.298 -0.562 -0.576 -0.716 -0.28 -0.154 -0.606 -0.194 -0.914 -0.11l-12.3816 3.038c-0.2822 0.106 -0.524 0.298 -0.6918 0.55 -0.1676 0.25 -0.253 0.548 -0.2442 0.85 0.134 0.312 0.3662 0.572 0.6614 0.742 0.2952 0.168 0.6372 0.236 0.9746 0.194Z" stroke-width="1"></path><path id="Vector_14" fill="#22bb33" d="m200.234 276.852 5.842 -1.636c0.278 -0.092 0.514 -0.284 0.66 -0.536 0.148 -0.254 0.198 -0.552 0.14 -0.84 -0.058 -0.288 -0.218 -0.544 -0.452 -0.72 -0.234 -0.178 -0.524 -0.262 -0.816 -0.24l-5.84 1.636c-0.1696 0.012 -0.3344 0.06 -0.4838 0.142 -0.1492 0.08 -0.2796 0.192 -0.3824 0.328s-0.1758 0.292 -0.214 0.456c-0.038 0.166 -0.0406 0.338 -0.0074 0.504 0.0332 0.168 0.1016 0.326 0.2004 0.464 0.0986 0.138 0.2258 0.254 0.3726 0.34 0.1468 0.084 0.3102 0.138 0.4794 0.156 0.169 0.018 0.3392 -0.002 0.5012 -0.054Z" stroke-width="1"></path><path id="Vector_15" fill="#22bb33" d="M132.012 192.0416s-38.046 -30.842 -38.728 -31.402c0.6 -0.68 0.738 -0.92 0.766 -1.35 2.666 -1.249 5.0794 -2.9778 7.12 -5.1 3.74 -3.738 7.244 -7.242 7.71 -12.148 0.0096 -0.156 -0.014 -0.3122 -0.0694 -0.4582 -0.0552 -0.1462 -0.141 -0.2788 -0.2514 -0.3892 -0.1104 -0.1104 -0.243 -0.1962 -0.3892 -0.2514 -0.146 -0.0554 -0.3022 -0.079 -0.458 -0.0692 -0.232 0 -0.466 0 -0.466 0.232 -1.7212 0.9964 -3.518 1.8558 -5.374 2.57 -1.87 0.468 -2.336 0.234 -3.272 -1.4 -0.934 -1.87 -2.102 -4.2 -4.906 -3.506 -1.0458 0.3958 -2.024 0.951 -2.9 1.646 -1.957 -0.9362 -3.688 -2.2852 -5.074 -3.954 -1.15 -1.3518 -2.4876 -2.5318 -3.972 -3.504 -1.4432 -0.7406 -3.1128 -0.9078 -4.674 -0.468 -2.908 0.832 -3.242 3.23 -3.386 6.212 -0.1816 3.6744 0.523 7.3388 2.0546 10.6838 1.5316 3.345 3.845 6.2726 6.7454 8.5362 -0.1574 0.4154 -0.1936 0.8668 -0.1044 1.302 0.0892 0.4352 0.3002 0.836 0.6084 1.156 -2.9504 3.212 -5.6944 6.6074 -8.216 10.166 -9.51 12.826 -10.372 12.718 -10.482 13.264 -13.432 15.39 -23.846 19.8684 -35.78 40.0004 -7.242 12.85 -10.2801 28.504 -5.6 42.756 4.68 14.252 18.458 25.934 34.112 25 1.242 0.2 1.27 -3.77 0.248 -3.916 -9.552 -1.378 -18 -10.336 -20.8 -18.982 -0.5552 -1.716 -1.0146 -3.464 -1.376 -5.23 3.7062 1.738 7.6122 3.014 11.63 3.8 0.6744 1.846 1.4632 3.65 2.362 5.4 0.702 1.4 2.8 0.234 2.104 -1.168 -0.63 -1.238 -1.174 -2.5 -1.68 -3.772 1.244 0.176 2.49 0.32 3.738 0.4 0.2878 -0.032 0.554 -0.168 0.7474 -0.384 0.1934 -0.216 0.3004 -0.496 0.3004 -0.786 0 -0.29 -0.107 -0.568 -0.3004 -0.784 -0.1934 -0.216 -0.4596 -0.352 -0.7474 -0.384 -1.556 -0.12 -3.112 -0.32 -4.656 -0.6 -2.073 -6.344 -2.7266 -13.066 -1.9144 -19.69 0.8122 -6.624 3.0702 -12.99 6.6144 -18.644 0.934 -1.17 -1.168 -2.338 -2.102 -1.17 -3.6012 5.734 -5.9398 12.168 -6.8602 18.876 -0.9206 6.708 -0.4016 13.536 1.5222 20.028 -3.9144 -0.874 -7.7014 -2.242 -11.27 -4.072 -0.4934 -3.376 -0.6174 -6.798 -0.37 -10.2 1.27 0.394 2.5734 0.67 3.894 0.828 0.3096 0 0.6068 -0.124 0.8258 -0.342 0.219 -0.22 0.3422 -0.516 0.3422 -0.826 0 -0.31 -0.1232 -0.608 -0.3422 -0.826 -0.219 -0.22 -0.5162 -0.342 -0.8258 -0.342 -1.2374 -0.162 -2.4568 -0.438 -3.642 -0.828 0.3376 -2.734 0.931 -5.428 1.772 -8.05 5.772 -18.2 16.682 -28.08 28.336 -39.9664 4.4748 3.4744 9.6362 5.9584 15.143 7.2904 5.5066 1.332 11.2332 1.478 16.801 0.432 1.4 -0.234 0.934 -2.57 -0.702 -2.336 -5.145 0.868 -10.4132 0.678 -15.482 -0.56 -5.0688 -1.238 -9.8314 -3.498 -13.996 -6.6404 2.038 -2.116 4.024 -4.272 5.916 -6.506 7.694 4.282 17.686 4.4 26.6 3.9 0.2892 -0.0294 0.5574 -0.1652 0.7524 -0.381 0.195 -0.2158 0.303 -0.4962 0.303 -0.787 0 -0.291 -0.108 -0.5714 -0.303 -0.7872s-0.4632 -0.3516 -0.7524 -0.3808c-8.148 0.51 -17.766 0.628 -25.11 -3.368 6.318 -7.812 11.88 -16.88 13.326 -27.012 0.2478 0.0432 0.4984 0.0706 0.75 0.082 6.92 16.858 23.128 27.172 26.2 44.5744 0.234 1.4 2.6 0.93 2.338 -0.7 -2.848 -17.4784 -19.386 -28.0004 -26.238 -44.1384 0.4728 -0.1344 0.93 -0.3188 1.364 -0.55 0.114 0.1 38.892 31.6 38.892 31.6 1.166 0.942 2.802 -0.694 1.634 -1.626ZM81.98 135.5276c2.148 1.932 3.718 4.446 6.316 5.93 -2.2046 0.5804 -4.541 0.3948 -6.6264 -0.5262 -2.0854 -0.9212 -3.796 -2.5232 -4.8516 -4.5438 -1.33 -2.536 2.916 -3.108 5.162 -0.86ZM23.926 243.884c2.2294 2.404 4.9402 4.312 7.956 5.6 -0.3432 3.156 -0.3652 6.34 -0.066 9.502 -7.362 -4.4 -8.094 -8.07 -8.572 -8.72 0.0958 -2.14 0.3236 -4.272 0.682 -6.382Zm30.4 45.586c-15.088 -0.688 -29.88 -13.736 -31.03 -34.508 2.4528 2.944 5.4874 5.35 8.914 7.068 2.61 15.616 12.578 25.352 22.114 27.44h0.002Zm-6.19 -75.7c-7.86 9.6 -14.084 21.2 -15.968 33.338 -3.0182 -1.422 -5.6456 -3.554 -7.656 -6.216 4.816 -21.352 19.262 -33.772 33.502 -47.2404 1.3884 1.6752 2.9064 3.2386 4.54 4.676 -5.0736 4.8924 -9.8868 10.0464 -14.42 15.4424h0.002Zm16.186 -17.2384c-1.6272 -1.4132 -3.1314 -2.9622 -4.496 -4.63 1.9572 -1.9414 3.8466 -3.9414 5.668 -6 1.321 1.6978 2.8874 3.1896 4.648 4.426 -1.876 2.114 -3.834 4.17 -5.822 6.204h0.002Zm7.332 -7.972c-1.7616 -1.2406 -3.3052 -2.7646 -4.568 -4.51 6.78 -7.972 7.2 -9.64 11.424 -14.906 1.8868 -2.5572 3.9124 -5.009 6.068 -7.344l0.18 0.108c-0.83 1.28 -0.106 11.366 -13.106 26.652h0.002Zm17.846 -30.662c-0.8592 -0.3988 -1.8328 -0.4762 -2.744 -0.218 -3.2616 -1.8084 -5.975 -4.463 -7.8544 -7.6838 -1.8796 -3.221 -2.8558 -6.8892 -2.8256 -10.6182 1.9576 2.3654 4.7222 3.9218 7.76 4.369 3.0376 0.4474 6.1334 -0.2464 8.69 -1.947 0.7 -0.468 1.636 -1.636 2.336 -1.4 1.244 0.414 1.114 2.514 3.272 4.672 0.674 0.47 1.4572 0.7596 2.275 0.8416 0.8178 0.0818 1.6428 -0.0468 2.397 -0.3736 1.066 -0.4 2.13 -0.88 3.2 -1.388 -1.5546 3.2144 -3.755 6.074 -6.464 8.4 -2.631 2.8874 -6.1796 4.776 -10.044 5.346h0.002Z" stroke-width="1"></path><path id="Vector_16" fill="#22bb33" d="M88.7878 217.508c2.3496 -1.802 5.0588 -3.076 7.944 -3.738 2.8332 -0.836 5.819 -1.018 8.7328 -0.534 2.9136 0.486 5.6794 1.624 8.0892 3.334 1.168 0.934 2.336 -1.17 1.168 -2.104 -2.9628 -2.062 -6.3818 -3.372 -9.9632 -3.82 -3.5814 -0.448 -7.2178 -0.02 -10.5968 1.25 -3.3014 1.152 -6.3252 2.982 -8.878 5.374 -1.7264 1.422 -3.147 3.18 -4.176 5.168 -13.246 -10.36 -35.2 -7.086 -40.918 9.084 -1.0386 2.836 -1.3596 5.886 -0.934 8.878 0.0762 1.584 0.669 3.102 1.688 4.32 -3.4414 1.278 -6.5132 3.386 -8.9414 6.14 -2.4282 2.754 -4.1376 6.064 -4.9756 9.638 -0.8378 3.574 -0.7786 7.3 0.173 10.846 0.9514 3.546 2.7652 6.8 5.28 9.476 6 6.254 15.76 8.964 26.25 5.278 1.168 -0.934 0.466 -3.038 -0.936 -2.8 -16.272 6.174 -31.26 -5.562 -29.052 -20.698 2.426 -16.638 21.744 -21.542 35.746 -12.85 8.182 5.112 11.356 15.536 6.076 22.43 -0.91 1.188 0.7 2.8 1.636 1.636 1.6392 -2.128 2.7106 -4.636 3.1132 -7.29 0.4028 -2.654 0.1236 -5.368 -0.8112 -7.884l0.756 -0.302c-0.056 2.654 0.4314 5.294 1.4322 7.754s2.494 4.69 4.3878 6.552c0.934 0.936 2.57 -0.7 1.4 -1.868 -2.242 -2.318 -3.8016 -5.206 -4.5074 -8.352 -0.7056 -3.146 -0.5302 -6.424 0.5074 -9.476 4.318 -13.066 22.766 -19.4 34.146 -9.976 1.152 0.954 2.8 -0.7 1.634 -1.636 -3.5094 -2.838 -7.7644 -4.6 -12.2522 -5.074 -4.4878 -0.474 -9.017 0.36 -13.0418 2.402 0.1592 -2.77 -0.3126 -5.538 -1.3796 -8.096 -1.0672 -2.56 -2.7018 -4.844 -4.7804 -6.678 0.8434 -1.166 1.75 -2.284 2.716 -3.348 0.974 -1.13 2.07 -2.148 3.268 -3.036Zm-2.47 22.622c-2.8108 1.682 -5.2324 3.944 -7.1042 6.634 -1.8718 2.688 -3.1512 5.744 -3.7538 8.966l-1.846 0.738c-4.114 -8.584 -15.816 -14.978 -29.346 -12.6 -0.704 -0.498 -2.676 0.486 -2.676 -5.8 0.0272 -2.23 0.4218 -4.442 1.168 -6.542 9.172 -21.782 45.888 -12.95 43.558 8.604Z" stroke-width="1"></path><path id="Vector_17" fill="#22bb33" d="M158.2244 256.934c-0.3032 0 -0.5994 0.09 -0.8514 0.258s-0.4482 0.408 -0.5642 0.688c-0.1158 0.28 -0.1462 0.588 -0.0868 0.886 0.0592 0.296 0.2054 0.57 0.4198 0.784 0.2144 0.214 0.4876 0.36 0.785 0.418 0.2972 0.06 0.6054 0.028 0.8852 -0.088 0.28 -0.116 0.519 -0.312 0.6872 -0.564 0.168 -0.252 0.2576 -0.55 0.2572 -0.852 0 -0.202 -0.0396 -0.4 -0.1166 -0.586 -0.077 -0.186 -0.19 -0.354 -0.3322 -0.496 -0.1424 -0.144 -0.3112 -0.256 -0.4972 -0.332 -0.1858 -0.078 -0.385 -0.116 -0.586 -0.116Z" stroke-width="1"></path><path id="Vector_18" fill="#22bb33" d="M154.2 262.862c-0.303 0 -0.5992 0.09 -0.8512 0.258s-0.4482 0.408 -0.5642 0.688c-0.116 0.28 -0.1464 0.588 -0.0872 0.884 0.0592 0.298 0.205 0.57 0.4192 0.784 0.2144 0.214 0.4874 0.36 0.7844 0.42 0.2972 0.06 0.6054 0.028 0.8852 -0.088 0.28 -0.116 0.5192 -0.312 0.6876 -0.564 0.1684 -0.252 0.2582 -0.548 0.2582 -0.85 0 -0.406 -0.1614 -0.796 -0.4488 -1.084 -0.2872 -0.288 -0.677 -0.448 -1.0832 -0.448Z" stroke-width="1"></path><path id="Vector_19" fill="#22bb33" d="M159.2322 264.82c-0.303 0 -0.5992 0.09 -0.8512 0.258 -0.2518 0.168 -0.4482 0.408 -0.5642 0.688 -0.116 0.278 -0.1462 0.588 -0.0872 0.884 0.0592 0.298 0.205 0.57 0.4194 0.784 0.2142 0.214 0.4872 0.36 0.7844 0.42 0.297 0.058 0.6052 0.028 0.885 -0.088 0.28 -0.116 0.5192 -0.312 0.6876 -0.564 0.1684 -0.252 0.2582 -0.548 0.2582 -0.85 0 -0.406 -0.1614 -0.796 -0.4488 -1.084 -0.2872 -0.288 -0.6768 -0.448 -1.0832 -0.448Z" stroke-width="1"></path><path id="Vector_20" fill="#22bb33" d="M139.3182 242.614c-0.3032 0 -0.5994 0.09 -0.8514 0.258s-0.4484 0.408 -0.5642 0.688c-0.116 0.28 -0.1462 0.588 -0.0868 0.884 0.0592 0.298 0.2054 0.572 0.4198 0.786 0.2144 0.214 0.4876 0.36 0.7848 0.418 0.2974 0.058 0.6054 0.028 0.8854 -0.088 0.2798 -0.116 0.519 -0.312 0.6872 -0.566 0.168 -0.252 0.2576 -0.548 0.2572 -0.85 0 -0.202 -0.0398 -0.4 -0.1168 -0.586 -0.077 -0.186 -0.1898 -0.356 -0.332 -0.498 -0.1424 -0.142 -0.3112 -0.254 -0.4972 -0.33 -0.1858 -0.078 -0.385 -0.116 -0.586 -0.116Z" stroke-width="1"></path><path id="Vector_21" fill="#22bb33" d="M148.2684 239.146c-0.3032 0 -0.5994 0.09 -0.8514 0.258s-0.4484 0.408 -0.5642 0.688c-0.116 0.28 -0.1462 0.588 -0.0868 0.886 0.0592 0.296 0.2054 0.57 0.4198 0.784 0.2144 0.214 0.4876 0.36 0.7848 0.418 0.2974 0.06 0.6054 0.028 0.8854 -0.088 0.2798 -0.116 0.519 -0.312 0.6872 -0.564 0.168 -0.254 0.2576 -0.55 0.2572 -0.852 0 -0.202 -0.0398 -0.4 -0.1168 -0.586 -0.077 -0.186 -0.1898 -0.354 -0.3322 -0.498 -0.1422 -0.142 -0.311 -0.254 -0.497 -0.33 -0.1858 -0.078 -0.385 -0.116 -0.586 -0.116Z" stroke-width="1"></path><path id="Vector_22" fill="#22bb33" d="M153.6374 243.844c-0.303 0 -0.5992 0.09 -0.851 0.258 -0.252 0.168 -0.4484 0.408 -0.5644 0.688 -0.1158 0.28 -0.1462 0.588 -0.087 0.884 0.059 0.298 0.205 0.57 0.4192 0.786 0.2142 0.214 0.4872 0.36 0.7844 0.418 0.2972 0.06 0.6052 0.03 0.8852 -0.086 0.2798 -0.116 0.5192 -0.314 0.6874 -0.566 0.1684 -0.252 0.2582 -0.548 0.2582 -0.85 0 -0.406 -0.1614 -0.796 -0.4486 -1.084 -0.2874 -0.286 -0.677 -0.448 -1.0834 -0.448Z" stroke-width="1"></path><path id="Vector_23" fill="#22bb33" d="M146.2536 248.152c-0.303 0 -0.5992 0.09 -0.8512 0.258s-0.4484 0.408 -0.5642 0.688c-0.116 0.28 -0.1462 0.588 -0.087 0.884 0.0594 0.298 0.2054 0.572 0.4198 0.786 0.2146 0.214 0.4878 0.36 0.785 0.418 0.2974 0.06 0.6054 0.028 0.8854 -0.088 0.2798 -0.116 0.519 -0.312 0.687 -0.564 0.1682 -0.254 0.2576 -0.55 0.2572 -0.852 0 -0.202 -0.0396 -0.4 -0.1166 -0.586 -0.077 -0.186 -0.1898 -0.356 -0.3322 -0.498 -0.1422 -0.142 -0.3112 -0.254 -0.497 -0.33 -0.1858 -0.078 -0.385 -0.116 -0.5862 -0.116Z" stroke-width="1"></path><path id="Vector_24" fill="#22bb33" d="M143.5134 255.758c-0.303 0 -0.5994 0.088 -0.8516 0.258 -0.2522 0.168 -0.4488 0.406 -0.5652 0.686 -0.1162 0.28 -0.1468 0.588 -0.088 0.886 0.059 0.296 0.2048 0.57 0.4188 0.784 0.2142 0.214 0.4872 0.36 0.7844 0.42 0.2974 0.06 0.6054 0.03 0.8854 -0.086 0.2802 -0.116 0.5196 -0.312 0.688 -0.564 0.1684 -0.252 0.2582 -0.55 0.2582 -0.852 -0.0004 -0.406 -0.1618 -0.796 -0.4486 -1.082 -0.2866 -0.288 -0.6756 -0.45 -1.0814 -0.45Z" stroke-width="1"></path><path id="Vector_25" fill="#22bb33" d="M136.576 250.892c-0.303 0 -0.5992 0.09 -0.8512 0.258s-0.4482 0.408 -0.5642 0.688c-0.116 0.28 -0.1464 0.588 -0.0872 0.884 0.059 0.298 0.205 0.57 0.4192 0.784 0.2144 0.216 0.4872 0.362 0.7844 0.42 0.2972 0.06 0.6052 0.028 0.8852 -0.088 0.28 -0.114 0.5192 -0.312 0.6876 -0.564 0.1682 -0.252 0.2582 -0.548 0.2582 -0.85 0 -0.406 -0.1614 -0.796 -0.4488 -1.084 -0.2872 -0.286 -0.677 -0.448 -1.0832 -0.448Z" stroke-width="1"></path></g><g id="bubble"><path id="Vector_26" fill="#22bb33" d="M233.06 44.2338c-15.444 13.6956 -29.194 29.1896 -40.956 46.152 -8.5218 -8.488 -17.613 -16.3844 -27.21 -23.634 -0.3144 -0.2376 -0.6726 -0.4106 -1.0538 -0.5098 -0.3814 -0.099 -0.7784 -0.122 -1.1686 -0.0676 -0.3902 0.0544 -0.7658 0.1852 -1.1056 0.3848 -0.3396 0.1996 -0.6366 0.4642 -0.874 0.7786 -0.2374 0.3144 -0.4106 0.6724 -0.5096 1.0536 -0.0992 0.3814 -0.1222 0.7784 -0.0678 1.1686 0.0546 0.3902 0.1852 0.766 0.3848 1.1056 0.1996 0.3396 0.4642 0.6366 0.7786 0.8742 10.3298 7.8012 20.0566 16.37 29.098 25.634 0.311 0.3188 0.6892 0.5646 1.1072 0.719 0.4178 0.1546 0.8648 0.214 1.3086 0.1742s0.873 -0.178 1.2568 -0.4044c0.3836 -0.2266 0.712 -0.5356 0.9614 -0.9048 11.928 -17.717 26.048 -33.8544 42.024 -48.028 0.596 -0.527 0.958 -1.2694 1.008 -2.0636 0.048 -0.7942 -0.22 -1.5752 -0.748 -2.1714 -0.526 -0.5962 -1.268 -0.9588 -2.062 -1.0076 -0.794 -0.049 -1.576 0.2196 -2.172 0.7466Z" stroke-width="1"></path><path id="Vector_27" fill="#22bb33" d="M269.364 32.6578c-13.312 -12.104 -33.9 -20.19996 -51.718 -22.68196 -22.7698 -2.8 -55.0458 0.928 -77.2398 12.73396 -19.052 10.136 -30.282 25.982 -32.982 44.89 -3.088 19.818 2.8 38.84 15.722 50.878 17.664 16.78 44.068 18.63 66.622 20.114 9.512 0.624 10.2538 0.25 12.2538 2.914 9.678 12.1828 21.868 22.1374 35.74 29.186 2.944 2.2 3.55 -0.468 2.4 -1.034 -0.548 -0.2666 -1.092 -0.54 -1.634 -0.82 -3.922 -4.1286 -7.308 -8.7356 -10.078 -13.712 -2.88 -5.2512 -5.298 -10.7432 -7.226 -16.414 14.912 -1.52 33.096 -3.6 46.458 -13.87 30.202 -24.174 28.62 -67.77 1.682 -92.184Zm-2.916 90.6c-13.276 10.2 -31.8 12.072 -46.688 13.582 -0.15 0.0152 -0.294 0.0642 -0.424 0.1434 -0.128 0.0792 -0.236 0.1862 -0.318 0.3134 -0.08 0.1272 -0.132 0.271 -0.15 0.421 -0.018 0.1498 -0.002 0.3016 0.048 0.4442 3.134 10.0728 8.04 19.5064 14.484 27.858 -11.452 -6.6474 -21.56 -15.3798 -29.8 -25.746 -2.734 -3.648 -5.0298 -3.12 -13.7058 -3.688 -21.93 -1.444 -48.13 -3.182 -65.382 -19.576 -12.45 -11.6 -18.1 -29.952 -15.112 -49.126 2.6 -18.264 13.494 -33.6 31.94 -43.4 21.688 -11.54396 53.604 -15.28396 76.0458 -12.52596 17.32 2.426 37.588 10.31996 50.634 22.17996 25.87 23.446 27.84 65.588 -1.572 89.12Z" stroke-width="1"></path></g></g></svg>