<svg xmlns="http://www.w3.org/2000/svg" fill="none" viewBox="0 0 200 200" id="Card-Payment--Streamline-Brooklyn.svg"><desc>Card Payment Streamline Illustration: https://streamlinehq.com</desc><g id="card-payment--finance-card-payment"><g id="terminal"><path id="vector" fill="#191919" d="M103.846 65.115C88.215 69.543 74.137 75.691 68.961 78.6c-1.074 0.6 -1.512 1.8999 0 2.5999 6.12 2.82 19.51 12.7781 23.169 16.7581 1.518 1.65 8.4 -3.218 35.677 -15.108 0.031 -0.012 -22.25 -18.219 -23.961 -17.735Zm-21.54 21.338c-3.176 -2.441 -6.36 -4.8711 -10.113 -6.4061 -1.02 -0.418 -4.027 0.8001 31.437 -12.6849 1.435 -0.545 20.051 14.083 19.71 14.211 -10.081 4.1823 -19.944 8.873 -29.551 14.054 -1.26 0.709 -0.068 -0.4 -11.483 -9.174Z" stroke-width="1"></path><path id="vector_2" fill="#191919" d="M148.744 88.174c-0.34 1.245 -24.043 9.39 -24.07 9.4 -1.207 0.366 -0.42 0.449 3.478 4.951 1.538 1.776 2.068 1.467 -15.514 9.475 -1.514 0.69 -1.268 0.384 -8.038 -6.623 -1.059 -1.1 0.651 -1.923 2.127 -2.6 6.673 -3.052 34.81 -14.655 42.017 -14.603Zm-22.589 15.164c-1.078 -1.637 -2.414 -3.019 -3.606 -4.512 -0.394 -0.494 -0.268 -0.646 -15.493 5.626 -0.432 0.177 -0.612 0.328 -0.24 0.741 4.648 5.164 5.118 5.1 5.787 4.769l13.552 -6.624Z" stroke-width="1"></path><path id="vector_3" fill="#191919" d="M171.394 106.606c-8 3.758 -16.46 6.257 -24.773 9.473 5.238 5.853 6.058 5.84 3.018 7.325 -15.646 7.642 -15.26 7.518 -16.32 6.46 -6.753 -6.74 -7.222 -7.029 -5.663 -7.986 5.044 -3.094 40.499 -16.801 43.738 -15.272Zm-22.534 14.9c-4.009 -4.921 -3.763 -4.929 -4.539 -4.642 -4.945 1.823 -9.822 3.821 -14.713 5.782 -0.531 0.213 -0.434 0.43 -0.136 0.76 4.6 5.1 5.07 5.12 5.972 4.672l13.416 -6.572Z" stroke-width="1"></path><path id="vector_4" fill="#191919" d="M161.08 97.3782c-1.793 2.231 -11.462 4.8798 -41.453 18.7398 -2.4 1.109 -2.479 -0.174 -1.873 -0.6 6.172 -4.309 36.823 -17.6728 43.326 -18.1398Z" stroke-width="1"></path><path id="vector_5" fill="#191919" d="M98.0578 83.5741c2.8372 0.209 3.2832 0.5 3.0772 -0.685 -1.6512 -9.463 0.6 -15.314 2.641 0.2 0.563 4.29 -3.8552 2.721 -7.0002 1.941 -0.436 -0.108 -0.965 -0.258 -0.884 -0.851 0.081 -0.593 0.621 -0.526 2.166 -0.605Z" stroke-width="1"></path><g id="vector_6"><path fill="#191919" fill-rule="evenodd" d="M195 130.9c-0.044 -3.228 -0.729 -14.293 -3.614 -17.757 -3.127 -3.753 -20.59 -15.717 -39.238 -27.7921h-4.058c18.888 11.9517 36.966 23.7071 39.56 26.8501 2.323 2.815 0.38 4.037 -29.477 14.847 -6.756 2.457 -13.639 4.549 -20.619 6.268 -4.048 1.158 -8.379 0.806 -12.187 -0.991C104.345 122 77.5179 83.531 41.6309 77.389c-0.3079 -0.0543 -0.5899 -0.207 -0.8036 -0.4353 -0.2137 -0.2283 -0.3475 -0.5198 -0.3813 -0.8306 -0.0338 -0.3109 0.0341 -0.6243 0.1937 -0.8932 0.1596 -0.2689 0.4022 -0.4787 0.6912 -0.5979 6.013 -2.5 11.369 -4.686 16.158 -6.59 -1.943 -2.408 -1.536 -2 -4.671 -0.886 -11.033 3.917 -21.4 7.616 -22.668 15.954 -5.615 36.862 21.915 34.416 50.269 50.413 8.6 4.853 19.194 13.057 30.5311 19.849 21.779 13.049 24.473 10 50.038 -1.489 28.243 -12.697 34.159 -9.964 34.012 -20.983Zm-65.225 28.337c1.618 0.324 1.853 0.097 2 -1.561l-0.003 -0.001c0.513 -5.789 0.967 -20.075 -4.57 -21.084 -17.779 -3.247 -53.2931 -55.393 -88.8691 -56.835 -1.8059 0.0106 -3.5551 0.632 -4.963 1.763 -1.454 1.018 -1.648 4.68 -1.625 7.367 0.0011 0.2231 0.0541 0.4429 0.1548 0.6421 0.1007 0.1991 0.2464 0.3721 0.4254 0.5053 0.1791 0.1332 0.3866 0.2229 0.6063 0.262 0.2197 0.0392 0.4455 0.0267 0.6595 -0.0364 15.567 -4.658 41.773 19.683 65.567 37.7 0.299 0.227 0.4977 0.562 0.554 0.933 0.0564 0.372 -0.034 0.75 -0.252 1.056 -0.2181 0.306 -0.5466 0.515 -0.916 0.583 -0.3694 0.067 -0.7506 -0.011 -1.063 -0.22 -16.792 -11.38 -44.97 -37.84 -60.581 -38.2 -1.429 -0.033 -5.056 0.419 -5.014 1.848 0.33 11.342 8.06 18.759 18.43 23.37 6.817 3.032 18.118 6.13 36.469 17.255 12.476 7.563 30.4421 22.137 42.9901 24.653Zm47.08 -16.437c19.6 -7.524 14.5 -6.179 15.7 -14.124l-0.003 -0.005c0.114 -3.633 -0.337 -7.263 -1.339 -10.757 -0.338 -1.233 -0.5 -1.244 -1.638 -0.653 -20.651 10.73 -50.202 19.234 -56.688 19.706 -0.591 0.043 -0.589 0.306 -0.42 0.763 5.743 15.513 -0.272 21.899 2.757 21.453 9.3 -1.368 19.213 -7.783 41.631 -16.383Z" clip-rule="evenodd" stroke-width="1"></path><path fill="#191919" d="M112.234 60.529c-7.224 -4.221 -11.427 -6.455 -18.6671 -5.772 0.508 0.8 0.9 1.2 1.617 2.138 6.1001 0 9.8001 2.261 15.9871 5.262 0.533 0.3376 1.085 0.6864 1.655 1.0457l1.662 -1.3469c-0.781 -0.4627 -1.533 -0.9055 -2.254 -1.3268Z" stroke-width="1"></path></g><path id="vector_7" fill="#103164" d="M32.6349 59.6591c2.156 -2.759 8.8 -4.013 13.108 -2.908 7.473 1.918 13.268 8.7 17.774 15.241 1.212 1.762 0.6 0.316 17.374 -6.645 12.716 -5.277 14.236 -3.706 13.109 -5.715 -2.6 -4.645 -8.527 -11.4 -11.8 -14.828 -3.828 -4 -6.235 -3.511 -8.162 -3.563 -11.1 -0.3 -36.653 8.063 -46.554 16.157 -16.261 13.294 -1.55 23.622 -3.711 37.349 -1.228 7.8089 -10.827 7.4889 -15.68101 1.772 -1.464 -1.719 -2.17 -3.919 -3.038 -5.991 -0.875 -2.092 9.11801 -6.286 11.13201 -7.123 1.846 -0.768 2.664 -0.009 -1.192 2.226 -1.941 1.126 -3.92 2.179 -5.86101 3.3 -0.671 0.388 -1.264 0.929 -1.925 1.344 -0.442 0.277 -0.365 0.572 -0.215 0.975 1.732 4.626 4.92601 7.173 9.62001 7.631 5.5 0.537 5.769 -6.65 4.358 -12.3 -1.883 -7.534 -6.166 -14.785 -1.491 -23.6 7.849 -14.8 42.448 -24.886 53.31 -24.89 6.319 0 10.463 3.012 19.274 14.5 7.872 10.264 5.8 9.257 1.1 10.954 -3.739 1.355 -24.053 9.255 -28.511 11.578 -2.931 1.526 -11.135 -19.242 -27.6 -16.079 -4.389 0.844 -4.201 0.993 -4.418 0.615Z" stroke-width="1"></path><path id="vector_8" fill="#103164" d="M86.971 55.266c-2.471 1.534 -5.012 1.887 -19.877 7.557 -5.723 2.183 -5.808 2.445 -6.095 1.755 -1.013 -2.431 24.38 -11.109 25.972 -9.312Z" stroke-width="1"></path><path id="vector_9" fill="#103164" d="M75.353 52.381c-1.376 0.712 -5.234 2 -16.312 6.609 -0.555 0.231 -1.309 0.744 -1.768 0.039 -1.224 -1.884 10.475 -6.422 17.5 -7.517 2.444 -0.381 0.857 0.726 0.58 0.869Z" stroke-width="1"></path></g><g id="card"><path id="vector_10" fill="#103164" d="M121.357 85.214c-8.659 -0.426 -8.931 -1.033 -9.52 -3.308 -1.449 -5.6 0.819 -38.849 0.824 -38.876 0.39 -2.446 1.532 -2.619 7.839 -2.8 12.117 -0.342 31.945 -0.19 44.056 0.327 22.575 0.962 23.31 0.423 24.1 3.957 1.363 6.142 -0.851 20.237 -1.384 36.432 -0.114 3.455 -1.867 4.767 -4.959 4.872 -20.372 0.699 -29.087 0.963 -60.956 -0.604Zm54.907 -38.847c-5.977 0.011 -7.58 -1.513 -6.694 8.187 0.011 0.3472 0.156 0.6766 0.405 0.9191 0.248 0.2424 0.582 0.379 0.929 0.3809 3.201 0.3511 6.423 0.4697 9.641 0.355 1.346 -0.04 1.931 -0.731 2.23 -2.024 0.333 -1.559 0.472 -3.153 0.415 -4.746 -0.067 -3.439 -1.074 -3.082 -6.926 -3.072Zm-42.255 30.772c0.18 1 0.929 0.979 1.636 0.991 3.55 0.063 17.141 0.462 19.442 0.1 1.34 -0.209 2.135 -2.921 -0.612 -2.945 -19.937 -0.175 -20.989 -1.066 -20.466 1.854Zm2.063 -18.7c-10.633 0.007 -14.6 -0.07 -16.072 0.044 -1.238 0.095 -1.147 1.174 0.087 1.316 2.076 0.239 8.951 0.2 31.719 0.106 0.239 -0.0106 0.465 -0.1089 0.636 -0.276 0.171 -0.1672 0.274 -0.3915 0.29 -0.63 0.062 -0.819 0.659 -0.569 -16.66 -0.559v-0.001Zm0.855 -7.763c-19.717 0.009 -18.541 1.387 -17.1 1.46 1.14 0.059 33.671 0.781 33.705 -0.359 0.022 -0.777 -0.178 -1.107 -16.605 -1.1v-0.001ZM128.67 78.06c1.983 -0.011 1.677 -2.921 0.077 -3.044 -7.363 -0.564 -8.457 -0.624 -8.4 1.169 0.038 1.273 0.217 1.647 1.272 1.742 0.109 0.011 5.994 0.139 7.051 0.133Z" stroke-width="1"></path></g></g></svg>