<svg xmlns="http://www.w3.org/2000/svg" fill="none" viewBox="0 0 200 200" id="Shop-Generic-1--Streamline-Brooklyn.svg"><desc>Shop Generic 1 Streamline Illustration: https://streamlinehq.com</desc><g id="shop-generic-1--infrastructure-shop-generic-1"><g id="building"><path id="vector" fill="#103164" d="M65.871 57.2111c-1.342 0.07 -0.233 0.242 -0.296 -19.08 -0.004 -1.311 -0.219 -1.183 1.15 -1.156 19.038 0.371 66.573 0.321 66.975 0.319 1.113 -0.006 0.878 -0.052 0.79 12.079 -0.055 7.503 0.027 7.402 -0.938 7.395 -14.06 -0.108 -66.031 0.358 -67.682 0.444l0.001 -0.001Zm27.587 -9.12c4.666 0.746 3.927 -2.125 4.267 4.148 0.05 0.923 1.209 0.965 1.269 0.015 0.086 -1.356 0.723 -11.833 -0.669 -11.843 -0.815 -0.006 -0.711 1.481 -0.856 5.196 -0.044 1.131 -0.252 0.887 -2.625 0.906 -2.169 0.018 -2.161 0.017 -2.196 -2.171 -0.019 -1.161 0.175 -3.595 -0.642 -3.594 -0.948 0.001 -0.734 1.844 -0.61 11.37 0.006 0.446 0.06 0.85 0.615 0.879 1.832 0.097 -0.344 -5.193 1.448 -4.907l-0.001 0.001Zm16.075 -1.015c0.315 -4.761 -3.775 -8.745 -6.607 -5.397 -2.127 2.515 -2.171 7.568 -0.09 10.116 2.929 3.586 7.076 -0.077 6.697 -4.719Zm-23.359 5.934c4.74 0.027 4.376 -4.651 1.671 -6.532 -1.719 -1.196 -3.74 -0.708 -3.867 -2.382 -0.138 -1.817 2.834 -1.696 3.592 -1.784 0.858 -0.1 0.838 -1.369 -0.01 -1.431 -5.128 -0.375 -6.872 4.251 -3.584 5.89 1.196 0.596 2.833 0.576 3.8 2.292 0.643 1.139 0.19 2.349 -2.144 2.113 -2.565 -0.26 -3.13 -1.542 -3.794 -0.679 -0.704 0.915 1.381 2.496 4.336 2.513Zm24.982 -4.184c-0.133 3.769 0.194 4.138 0.844 4.169 0.74 0.035 0.779 -0.152 0.829 -4.305 0.017 -1.394 0.598 -0.238 3.182 -1.871 1.563 -0.988 2.175 -2.823 1.506 -4.332 -0.846 -1.909 -3.971 -2.423 -5.282 -1.971 -1.311 0.452 -0.852 1.86 -1.079 8.31Z" stroke-width="1"></path><path id="vector_2" fill="#000000" d="M63.7839 37.287c0.074 -1.555 0.318 -1.533 1.013 -1.564 8.801 -0.397 66.9751 -0.341 70.4381 -0.138 1.5 0.088 0.976 0.39 0.792 10.993 -0.206 11.866 -0.063 12.019 -1.361 11.635 -0.352 -0.104 -58.5911 0.479 -68.2711 0.319 -2.023 -0.033 -2.716 0.469 -2.719 -1.292 -0.015 -10.105 0.039 -18.498 0.108 -19.953Zm62.9881 19.474c7.434 0.025 7.545 0.271 7.559 -0.652 0.086 -5.492 0.163 0 0.165 -17.971 0 -1.667 -27.381 -0.377 -67.7711 -1.163 -1.369 -0.027 -1.154 -0.154 -1.15 1.156 0.02 6.155 -0.112 12.306 -0.365 18.454 -0.064 1.563 -1.404 -0.04 61.5621 0.175v0.001Z" stroke-width="1"></path><path id="vector_3" fill="#000000" d="M69.2129 130.712c-3.792 -0.031 -34.89 -0.182 -38.674 -0.423 -1.875 -0.119 -1.247 0.05 -1.025 -24.841 0.046 -5.099 0.064 -10.1989 0.192 -15.2959 0.068 -2.721 0.219 -2.15 2.19 -2.148h36.578c2.132 -0.04 2.125 0 2.123 2.121 -0.029 40.6339 0.602 40.6019 -1.384 40.5859v0.001Zm-38.328 -2.602c-0.007 1.594 -0.038 0.9 22.676 0.977 15.419 0.052 15.394 0.542 15.387 -0.677 -0.025 -4.611 0.294 -35.5629 0.319 -38.0689 0.012 -1.238 0.046 -0.762 -13.812 -0.881 -24.48 -0.211 -24.468 -0.808 -24.461 0.577 0.047 10.2469 0.033 3.544 -0.108 38.0739l-0.001 -0.001Z" stroke-width="1"></path><path id="vector_4" fill="#000000" d="M168.911 128.46c0.057 1.609 -0.306 1.185 -14.089 1.065 -25.924 -0.226 -24.168 -0.221 -25.924 -0.335 -1.756 -0.114 -1.267 0.023 -0.763 -40.361 0.025 -1.971 0.069 -1.946 2.054 -1.942h37.455c1.767 0 1.361 -0.146 1.367 9.312 0.004 6.707 -0.253 27.936 -0.1 32.261Zm-39.538 -10.985c-0.016 10.522 -0.379 10.497 0.542 10.495 17.973 -0.042 22.28 0.058 35.869 0.106 1.831 0.006 1.573 0.375 1.598 -1.534 0.086 -6.505 0.108 -13.008 0.158 -19.513 0.144 -18.604 0.64 -18.598 -0.546 -18.588 -5.684 0.051 -33.392 -0.261 -36.744 -0.3 -1.446 -0.017 -0.832 -0.024 -0.877 29.334Z" stroke-width="1"></path><path id="vector_5" fill="#103164" d="M96.5871 66.825c-1.056 -0.027 -0.651 0.91 -0.778 7.271 -0.083 4.171 -0.016 5.17 0.309 6.382 0.404 1.509 2.417 2.096 3.513 0.99 1.4999 -1.515 1.6419 -1.93 1.6919 -13.99 0.002 -0.867 -0.183 -0.543 -4.7359 -0.653Z" stroke-width="1"></path><path id="vector_6" fill="#103164" d="M43.711 73.847c0.11 -6.465 -0.278 -7.044 0.826 -7.009 4.205 0.134 4.683 -0.393 4.675 0.676 -0.072 9.13 0.278 14.48 -3.193 14.349 -2.732 -0.104 -2.398 -2.686 -2.308 -8.016Z" stroke-width="1"></path><path id="vector_7" fill="#103164" d="M81.7481 73.3201c0.162 -6.6469 -0.283 -6.65 0.736 -6.607 4.244 0.181 4.672 -0.3569 4.647 0.7281 -0.238 10.585 0.178 11.7879 -1.537 13.7859 -1.037 1.209 -3.662 0.815 -3.813 -1.417 -0.147 -2.161 -0.086 -4.323 -0.033 -6.49Z" stroke-width="1"></path><path id="vector_8" fill="#103164" d="M136.351 81.9911c-2.473 -0.197 -2.146 -3.075 -2.094 -6.355 0.13 -8.261 -0.325 -8.58 0.844 -8.555 4.315 0.091 4.659 -0.331 4.632 0.729 -0.172 6.645 0.831 14.517 -3.382 14.181Z" stroke-width="1"></path><path id="vector_9" fill="#103164" d="M57.8299 73.357c-0.072 -6.684 -0.283 -6.684 0.683 -6.655 4.173 0.127 4.683 -0.358 4.653 0.725 -0.305 10.72 0.269 12.11 -1.813 14.039 -0.971 0.9 -3.381 0.488 -3.528 -1.698 -0.143 -2.136 0.027 -4.273 0.004 -6.411h0.001Z" stroke-width="1"></path><path id="vector_10" fill="#103164" d="M29.625 67.6771c0.052 -0.995 0.242 -0.973 0.804 -0.946 3.942 0.187 4.618 -0.4 4.586 0.835 -0.189 7.209 0.485 13.875 -2.73 14.173 -2.695 0.25 -3.348 -0.973 -2.66 -14.062Z" stroke-width="1"></path><path id="vector_11" fill="#103164" d="M162.471 73.457c0 -6.188 -0.275 -6.3 0.765 -6.263 4.238 0.151 4.672 -0.387 4.652 0.703 -0.206 11.033 -0.056 11.552 -1.512 13.472 -0.869 1.146 -3.36 1.088 -3.775 -0.902 -0.386 -1.848 -0.173 -7.009 -0.129 -7.009l-0.001 -0.001Z" stroke-width="1"></path><path id="vector_12" fill="#103164" d="M109.886 73.511c0.588 -4.796 -0.778 -6.686 0.849 -6.624 4.14 0.159 4.579 -0.378 4.552 0.72 -0.258 10.22 0.262 11.88 -1.66 13.838 -1.071 1.092 -3.04 0.6 -3.529 -0.844 -0.305 -0.9 -0.212 -1.096 -0.212 -7.09Z" stroke-width="1"></path><path id="vector_13" fill="#103164" d="M148.523 73.5381c0.158 -6.232 -0.275 -6.389 0.733 -6.357 4.359 0.137 4.637 -0.322 4.628 0.624 -0.035 3.771 -0.081 7.543 -0.381 11.304 -0.129 1.613 -1.438 2.978 -2.78 2.958 -2.45 -0.038 -2.367 -1.958 -2.2 -8.529Z" stroke-width="1"></path><path id="vector_14" fill="#000000" d="M111.6 131.544c0 1.477 -0.029 1.505 -1.534 1.506 -24.2739 0.023 -24.2409 0.629 -24.2319 -1.021 0.201 -39.603 -0.663 -39.549 1.544 -39.58h23.3929c2.096 -0.002 0.829 -0.015 0.829 39.095Zm-24.3839 -17.377c-0.165 17.781 -0.444 17.786 0.679 17.759 22.4699 -0.543 22.5759 0.617 22.5839 -0.988V94.456c0.015 -1.615 0.148 -0.348 -22.7359 -0.971 -1.308 -0.036 -0.334 -0.217 -0.527 20.682Z" stroke-width="1"></path><path id="vector_15" fill="#000000" d="M37.811 114.206c-2.04 -0.377 1.361 -2.698 17.69 -17.811 1.065 -0.985 2.013 0.073 1.021 0.942 -4.402 3.854 -17.142 16.402 -18.711 16.869Z" stroke-width="1"></path><path id="vector_16" fill="#000000" d="M46.2729 120.207c-1.667 -0.081 0.128 -1.712 12.441 -13.706 0.421 -0.41 0.923 -0.644 1.381 -0.16 0.473 0.498 0.157 0.907 -0.281 1.323 -12.638 11.996 -11.858 11.472 -13.541 12.543Z" stroke-width="1"></path><path id="vector_17" fill="#000000" d="M43.216 115.929c-2.057 0.223 1.459 -2.832 8.609 -9.67 0.525 -0.502 1.088 -0.911 1.577 -0.371 0.629 0.694 0.283 0.698 -6.384 6.899 -2.98 2.771 -3.249 3.034 -3.802 3.142Z" stroke-width="1"></path><path id="vector_18" fill="#000000" d="M155.012 96.1701c-15.216 13.7069 -18.271 17.6919 -19.167 16.7749 -0.842 -0.861 1.285 -1.998 18.121 -17.7019 0.967 -0.902 1.929 0.131 1.046 0.927Z" stroke-width="1"></path><path id="vector_19" fill="#000000" d="M144.629 119.13c-1.136 -0.233 0.021 -1.329 0.919 -2.263 2.34 -2.433 11.47 -11.479 11.887 -11.716 0.965 -0.55 1.783 0.496 0.965 1.271 -12.835 12.158 -12.324 11.839 -13.771 12.708Z" stroke-width="1"></path><path id="vector_20" fill="#000000" d="M151.978 105.263c-0.017 0.452 0.151 0.205 -8.787 8.512 -0.498 0.463 -1.556 1.419 -1.973 0.883 -0.408 -0.523 0.044 -0.854 3.384 -4.09 6.276 -6.082 6.117 -5.867 6.411 -5.967 0.527 -0.179 0.984 0.147 0.965 0.662Z" stroke-width="1"></path><path id="vector_21" fill="#103164" d="M106.72 42.8071c3.108 3.711 0.091 11.775 -2.786 8.009 -3.13 -4.096 0.006 -11.328 2.786 -8.009Z" stroke-width="1"></path><path id="vector_22" fill="#103164" d="M113.442 41.576c3.355 0.198 4.042 3.542 -0.113 4.534 -1.108 0.265 -0.314 -1.327 -0.798 -3.982 -0.125 -0.688 0.406 -0.544 0.911 -0.552Z" stroke-width="1"></path><path id="vector_23" fill="#000000" d="M87.4949 138.523c0.021 -1.05 -1.89 -1.087 -2.936 -0.798 -0.876 0.242 -1.309 1.763 0.327 1.983 0.921 0.123 2.589 -0.172 2.609 -1.185Z" stroke-width="1"></path><path id="vector_24" fill="#000000" d="M125.863 157.724c-2.504 -0.071 -4.007 -0.153 -4.004 -0.248 0.144 -3.652 0.427 -52.882 0.498 -69.096 0.099 -22.626 -0.438 -21.521 0.627 -21.447 2.294 0.16 2.863 -0.316 2.815 0.786 -0.25 5.724 -0.541 9.975 0.235 13.223 0.691 2.89 5.363 3.223 6.632 1.121 1.177 -1.949 -0.454 1.202 4.105 1.561 1.729 0.136 2.707 -0.936 3.611 -2.269 0.648 1.763 1.992 2.021 3.459 2.146 1.6 0.137 2.648 -0.671 3.519 -2.071 0.588 1.813 1.927 2.157 3.43 2.3 1.675 0.161 2.759 -0.712 3.64 -2.102 0.765 1.596 2.104 1.769 3.523 1.875 1.567 0.117 2.515 -0.8 3.35 -1.981 2.204 4.132 7.834 2.208 8.016 -2.583 0.444 -11.72 -0.552 -11.851 1.081 -11.812 4.053 0.096 4.088 -0.138 4.044 0.756 -0.247 4.992 -0.151 41.596 -0.052 66.595 0.507 0.895 2.159 0.004 2.412 -0.098 0.037 -13.45 -0.1 -34.082 -0.567 -65.709 -0.023 -1.531 -0.046 -1.53 1.542 -1.529 0.969 0 1.608 0.173 1.556 -2.044 -0.411 -17.506 -0.331 -18.009 -1.542 -17.902 -1.115 0.098 -38.099 -0.061 -38.136 -0.061 -1.544 -0.002 -1.492 0.013 -1.748 1.523 -0.236 1.394 -2.755 0.985 37.992 1.025 2.179 0.002 0.552 -0.05 1.331 14.514 0.054 1.011 -146.944 0.022 -155.657 0.379 -1.415 0.058 -0.221 -0.429 -0.365 -14.4 -0.013 -1.24 0.019 -1.2 1.275 -1.152 10.251 0.389 20.513 0.341 38.238 0.24 1.427 -0.008 0.825 -0.758 0.933 -1.323 0.21 -1.094 -0.085 -0.921 -6.32 -0.925 -0.154 0 -22.78 -0.314 -33.833 0.092 -2.157 0.079 -2.017 0.375 -2.152 5.782 -0.33 13.175 -0.775 13.379 0.817 13.514 2.263 0.192 2.639 -0.127 2.577 1.034 -0.106 1.984 -0.259 39.311 -0.369 65.943 0.701 -0.064 1.497 0.257 2.2 1.128 0.106 -0.069 0.214 -0.131 0.323 -0.185 -0.143 -11.589 -0.339 -31.214 -0.483 -66.899 -0.004 -1.092 -0.327 -0.784 3.305 -0.754 0.746 0.006 0.464 -0.019 0.279 6.665 -0.119 4.294 -0.773 9.232 3.236 9.979 1.859 0.346 3.28 -0.237 4.294 -1.992 0.625 1.865 2.029 2.173 3.596 2.301 1.734 0.141 2.7 -0.948 3.623 -2.244 0.638 1.725 1.975 1.994 3.448 2.121 1.602 0.138 2.64 -0.688 3.534 -2.053 0.577 1.798 1.923 2.136 3.423 2.28 1.673 0.16 2.759 -0.707 3.594 -2.052 1.696 2.49 4.478 2.434 6.988 -0.106 0.325 0.965 0.902 1.631 1.811 1.869 7.647 1.999 6.412 -8.268 6.242 -16.271 -0.017 -0.788 0.362 -0.33 3.03 -0.477 1.167 -0.064 0.7 -0.048 0.577 7.167 -0.104 6.118 -1.53 83.479 -1.531 83.504 -0.009 0.155 -0.473 0.269 -1.304 0.349 -0.021 0.844 -0.047 1.646 -0.079 2.383 13.312 0.031 52.298 0.222 53.359 0.231l0.02 -2.6 0.002 -0.001Zm36.602 -89.713c-0.017 -1.157 0.256 -0.731 4.726 -0.817 0.519 -0.01 0.706 0.145 0.697 0.703 -0.146 8.81 0.432 14.997 -3.899 14.097 -2.384 -0.496 -1.377 -4.063 -1.523 -13.983h-0.001Zm-2.107 -0.805c0.413 -0.004 0.484 0.192 0.477 0.534 -0.075 3.773 0.023 7.555 -0.429 11.312 -0.385 3.198 -4.298 3.771 -4.832 1.223 -0.335 -1.598 -0.09 -2.423 -0.09 -6.659 0.64 -7.692 -2.234 -6.342 4.874 -6.41Zm-11.841 0.738c-0.012 -1.1 0.304 -0.686 4.776 -0.75 0.465 -0.007 0.596 0.159 0.592 0.611 -0.036 3.771 -0.082 7.542 -0.381 11.304 -0.257 3.223 -4.496 4.197 -4.934 1.022 -0.358 -2.598 0.036 -4.411 -0.052 -12.187h-0.001Zm-7.063 -0.023c0.047 -1.231 0.388 -0.65 4.78 -0.817 0.819 -0.031 0.573 0.108 0.619 3.986 0.031 2.669 -0.196 5.322 -0.404 7.974 -0.229 2.915 -4.266 3.967 -4.871 1.131 -0.364 -1.707 -0.186 -10.616 -0.123 -12.274h-0.001Zm-7.145 -0.008c-0.004 -1.2 0.433 -0.733 4.74 -0.832 0.904 -0.021 0.619 0.21 0.673 4.484 0.028 2.244 -0.196 4.896 -0.425 7.545 -0.275 3.188 -4.235 3.928 -4.846 1.246 -0.446 -1.957 -0.11 -2.578 -0.142 -12.443Zm-7.043 -0.214c0.086 -1.088 0.269 -0.567 4.736 -0.657 0.548 -0.011 0.739 0.154 0.686 0.686 -0.36 3.565 0.793 11.19 -1.809 13.608 -1.143 1.063 -3.128 0.384 -3.459 -1.183 -0.486 -2.298 -0.252 -11.208 -0.154 -12.454Zm-92.251 -0.133c-0.195 7.418 0.467 13.877 -2.73 14.173 -2.594 0.24 -3.479 -0.887 -2.659 -14.113 0.057 -0.924 0.252 -0.921 0.802 -0.895 3.938 0.186 4.619 -0.4 4.587 0.835Zm7.055 -0.303c-0.142 12.579 -0.127 12.95 -1.865 14.466 -0.994 0.867 -3.653 0.832 -3.609 -3.167 0.129 -11.808 -0.271 -11.793 0.777 -11.785 4.599 0.035 4.706 -0.302 4.697 0.486Zm6.749 11.649c-0.328 3.217 -4.305 4.134 -4.913 1.16 -0.196 -0.958 -0.274 -1.546 -0.195 -6.226 0.144 -8.555 -1.232 -6.893 4.779 -7.018 0.504 -0.01 0.726 0.12 0.722 0.685 -0.03 3.803 -0.006 7.609 -0.393 11.399Zm7.432 -11.649c-0.142 12.579 -0.127 12.95 -1.865 14.466 -0.994 0.867 -3.653 0.832 -3.609 -3.167 0.129 -11.808 -0.271 -11.793 0.777 -11.785 4.599 0.035 4.706 -0.302 4.697 0.486Zm6.915 0.164c-0.201 6.951 0.804 16.034 -4.059 14.269 -2.013 -0.731 -1.113 -2.586 -1.29 -14.308 -0.015 -0.979 0.204 -0.612 4.561 -0.684 0.525 -0.009 0.806 0.098 0.788 0.723Zm7.076 -0.2c-0.23 9.156 0.569 15.287 -3.571 14.831 -2.331 -0.256 -1.911 -3.234 -1.915 -6.588 -0.001 -0.98 0.058 -7.717 0.061 -7.818 0.029 -0.98 0.155 -0.982 0.562 -0.973 4.748 0.113 4.883 -0.238 4.863 0.548Zm39.644 6.284c0.981 -8.028 -2.389 -6.425 4.627 -6.615 0.548 -0.015 0.79 0.092 0.774 0.711 -0.098 3.686 0.021 7.375 -0.324 11.057 -0.349 3.721 -4.042 4.362 -4.864 1.938 -0.297 -0.877 -0.213 -1.009 -0.213 -7.091Zm-6.902 -5.823c0.046 -0.839 0.21 -0.851 0.686 -0.84 4.586 0.104 4.723 -0.202 4.703 0.571 -0.315 11.849 0.127 12.559 -1.763 14.337 -1.144 1.077 -3.133 0.421 -3.48 -1.125 -0.33 -1.473 -0.152 -12.838 -0.146 -12.943Zm-2.275 -0.817c0.452 0 0.617 0.148 0.615 0.608 -0.053 12.327 -0.207 12.491 -1.692 13.99 -1.096 1.106 -3.109 0.519 -3.513 -0.99 -0.323 -1.206 -0.392 -2.255 -0.309 -6.382 0.178 -8.864 -1.289 -7.212 4.899 -7.226Zm-11.927 0.769c-0.021 -1.252 0.161 -0.771 4.776 -0.848 0.473 -0.008 0.662 0.102 0.652 0.625 -0.137 7.495 0.756 15.719 -3.928 14.577 -2.334 -0.569 -1.327 -3.955 -1.5 -14.354Zm-7.043 -0.196c-0.015 -1.082 0.281 -0.621 4.692 -0.707 0.535 -0.01 0.71 0.157 0.699 0.703 -0.148 7.218 0.78 15.785 -3.952 14.292 -2.313 -0.729 -1.3 -4.017 -1.44 -14.289l0.001 0.001Zm33.538 24.211c-1.371 66.388 1.073 66.391 -1.44 66.39 -31.381 -0.02 -31.379 0.521 -31.364 -0.719 0.671 -58.336 0.601 -56.92 0.442 -67.15 -0.012 -0.786 -0.01 -0.475 17.1 -0.546 4.426 -0.018 8.851 -0.045 13.277 -0.04 0.65 0 1.48 -0.457 1.909 0.092 0.381 0.487 0.09 1.302 0.076 1.973Zm5.549 -23.993c-0.423 19.828 -0.51 36.048 -0.756 89.563 -0.006 1.263 -0.84 0.617 -3.239 0.798 -0.12 -2.447 -0.24 -68.46 -0.12 -69.321 0.149 -1.066 -0.129 -0.886 -23.213 -0.492 -12.214 0.209 -11.902 -0.265 -11.981 1.794 -0.353 9.187 -0.862 62.762 -0.863 67.315 0 1.077 -0.369 0.575 -4.273 0.704 -1.052 0.035 -0.889 3.542 0.127 -61.789 0.484 -31.085 -0.229 -29.775 1.39 -29.526 1.698 0.26 2.454 -0.509 2.407 0.685 -0.349 8.722 -1.234 15.05 2.55 15.927 2.257 0.523 3.09 0.225 4.821 -1.802 0.56 1.748 1.969 2.103 3.542 2.215 1.686 0.12 2.732 -0.832 3.603 -2.286 0.669 1.725 2.009 2.05 3.507 2.171 1.611 0.13 2.644 -0.712 3.459 -1.992 1.729 2.963 4.828 3.032 7.111 0.204 1.04 1.798 2.748 1.952 4.505 1.682 1.398 -0.215 2.138 -1.348 2.686 -2.555 0.993 -2.188 0.783 -4.532 0.829 -6.836 0.143 -7.186 -0.329 -7.286 0.65 -7.213 2.744 0.205 3.284 -0.425 3.259 0.754h-0.001Z" stroke-width="1"></path></g><g id="prroduct 1"><path id="vector_25" fill="#000000" d="M35.7591 135.68c0.873 0 2.284 -0.181 2.09 1.323 -0.117 0.904 -0.421 1.75 -1.04 2.619 0.615 0 1.098 -0.005 1.579 0 1.273 0.014 0.292 0.496 1.815 0.594 3.642 0.234 1.454 -3.056 5.728 -4.136 0.808 -0.204 0.454 -1.245 1.288 -2.625 0.137 -0.227 0.308 -0.516 0.585 -0.458 0.352 0.073 0.25 0.165 -0.113 2.602 0.738 -0.513 1.05 -1.444 2.086 -1.511 -0.617 1.932 -1.505 2.086 -0.858 2.638 1.614 1.378 0.888 3.159 1.536 3.25 0.881 0.125 0.317 -1.334 2.171 -2.546 0.334 -0.219 0.306 -0.419 0.179 -0.731 -0.154 -0.377 -0.937 -1.57 -0.423 -1.849 0.514 -0.279 1.056 1.149 1.434 1.602 0.181 0.217 0.41 0.354 0.789 0.321 1.94 -0.17 2.321 1.377 2.934 0.571 1.373 -1.808 2.208 -0.738 2.567 -2.002 1.395 -4.92 0.994 -0.083 1.04 0.654 1 -1.277 1.006 -1.387 1.246 -1.306 0.535 0.18 -0.359 1.514 0.579 1.756 0.396 0.102 0.788 0.823 1.04 0.525 0.582 -0.689 2.009 -0.685 1.748 -2.102 -0.103 -0.556 -0.314 -1.682 0.331 -1.763 0.645 -0.081 0.509 1.477 0.635 2.184 0.211 1.175 2.667 0.196 2.984 3.825 0.136 1.554 1.681 -0.104 1.729 1.771 0.228 8.845 -0.084 18.773 -0.065 22.067 0.004 0.706 -0.317 0.949 -0.954 0.944 -0.538 -0.005 -58.543 -0.421 -63.15204 -0.69 -1.425 -0.083 -1.131 -0.098 -0.961 -14.023 0.111 -9.087 0.065 -9.414 1.448 -9.203 0.59 0.09 1.213 -0.04 1.911 -0.073 -0.483 -0.996 -1.127 -1.83 -1.498 -2.805 -1.101 -2.892 0.805 -3.501 2.59404 -1.709 0.319 0.319 0.681 0.8 0.371 1.129 -0.479 0.508 -1.29604 -0.54 -2.10404 -0.738 0.194 1.556 1.01604 2.77 1.86504 3.94 0.281 0.388 0.927 0.194 1.334 0.056 0.477 -0.162 0.035 -0.548 -0.021 -0.813 -1.183 -5.571 0.141 -7.523 1.45 -6.178 0.627 0.644 0.902 1.5 1.434 2.79 2.507 -2.496 3.158 0.078 3.792 3.571 0.077 0.423 0.227 0.654 0.675 0.577 0.485 -0.083 0.27 -0.467 0.238 -0.698 -0.169 -1.204 -1.138 -7.455 -2.367 -7.384 -1.096 0.063 -0.892 2.036 -1.656 1.9 -1.755 -0.312 2.685 -8.781 5.071 3.675 0.386 2.013 0.004 2.513 0.6 2.467 0.54 -0.042 0.225 -0.452 0.2 -0.671 -0.12 -1.048 -0.29 -2.088 -0.131 -3.148 0.227 -1.521 1.278 -1.886 2.282 -0.548 0.623 0.831 0.303 1.159 0.95 0.51 1.806 -1.811 2.741 0.632 3.036 3.207 0.022 0.196 -0.129 0.502 0.244 0.558 0.288 0.044 0.414 -0.142 0.542 -0.35 1.077 -1.76 5.384 -7.078 7.034 -6.072 0.858 0.523 0.313 1.419 0.16 2.5l-0.001 0.006Zm33.204 26.683c1.925 0 0.762 0.046 1.221 -20.388 0.023 -1.013 0.042 -0.625 -8.326 -0.548 -23.72 0.218 -22.134 -0.34 -22.105 0.602 0.598 19.051 -1.077 20.271 0.652 20.259 13.518 -0.094 9.045 0.066 28.558 0.075ZM8.46406 141.26c-0.525 -0.004 -0.708 0.033 -0.692 0.619 0.176 6.503 -0.103 13.006 -0.121 19.509 -0.004 1.446 -0.004 0.272 29.46004 0.767 1.844 0.031 0.482 0.025 1.092 -20.461 0.039 -1.315 -1.961 -0.236 -29.73904 -0.433v-0.001Zm21.09404 -1.634c6.007 0 5.957 0.069 6.007 -0.15 0.211 -0.923 0.971 -1.654 0.975 -2.705 -0.669 0.083 -1.137 0.392 -1.559 0.811 -0.564 0.561 -1.405 0.233 -0.942 -0.744 0.377 -0.796 0.758 -1.594 0.819 -2.634 -2.061 1.563 -3.821 3.221 -5.301 5.422h0.001Zm-16.558 -5.907c-0.333 2.14 0.068 3.929 0.585 5.709 0.098 0.337 0.292 0.382 0.579 0.377 3.632 -0.068 3.686 0.05 3.607 -0.279 -0.302 -1.254 -0.331 -2.607 -1.196 -3.773 -1.042 1.394 -0.277 2.542 -1.254 2.619 -0.888 0.07 -0.465 -1.083 -2.321 -4.653Zm30.258 6.324c5.909 0 5.526 0.256 5.221 -1.138 -0.638 -2.921 -3.515 -1.802 -5.221 1.138Zm-20.844 -4.694c0 4.48 -0.246 4.297 2.15 4.311 2.219 0.013 2.262 0.084 1.725 -2.09 -0.094 -0.381 -0.075 -1.003 -0.469 -1.048 -0.744 -0.086 -0.719 1.644 -1.473 1.627 -0.873 -0.019 -0.491 -1.646 -1.933 -2.8Zm40.326 4.511c0.831 -0.013 0.904 -0.154 0.529 -0.921 -1.463 -2.997 -5.482 -0.825 -5.101 -0.135 0.747 1.352 -0.092 1.128 4.571 1.056h0.001Zm3.923 -0.015c0 0.056 0 0.007 1.221 0.027 0.258 0.004 0.45 -0.015 0.419 -0.369 -0.238 -2.704 -2.943 -2.746 -3.557 -1.488 -0.279 0.573 0.225 1.1 0.265 1.675 0.017 0.244 0.123 0.154 1.652 0.154v0.001Zm-9.341 0.063c-1.934 -3.055 -4.39 -2.098 -5.359 0h5.359Z" stroke-width="1"></path><path id="vector_26" fill="#103164" d="M52.4691 149.761c6.247 -0.456 10.516 1.677 10.424 -2.092 -0.121 -4.996 -0.483 -5.105 0.358 -5.105 5.301 0.004 5.538 -0.319 5.457 0.736 -0.303 3.919 -0.09 13.22 0.048 16.781 0.027 0.702 -0.125 0.977 -0.896 0.965 -26.484 -0.41 -26.456 0.163 -26.466 -1.117 -0.137 -17.248 -0.663 -17.229 0.61 -17.223 5.394 0.026 5.444 -0.26 5.449 0.598 0.021 4.117 0.64 3.467 0.402 4.68 -0.429 2.186 1.409 1.777 4.613 1.777h0.001Z" stroke-width="1"></path><path id="vector_27" fill="#000000" d="M48.5101 147.152c0.187 -2.621 -0.044 -3.322 1.006 -3.342 12.191 -0.228 12.463 -0.552 12.45 0.569 -0.04 3.453 -0.067 3.679 -1.071 3.678 -11.16 -0.014 -12.523 1.025 -12.385 -0.904v-0.001Zm1.263 -1.442c0.15 0.444 -0.365 1.262 0.706 1.236 10.228 -0.252 10.505 0.158 10.249 -0.811 -0.123 -0.467 0.292 -1.24 -0.761 -1.2 -9.306 0.355 -10.559 -0.306 -10.194 0.775Z" stroke-width="1"></path><path id="vector_28" fill="#103164" d="M8.33196 151.557c0 -9.005 -0.335 -9.062 0.721 -9.018 5.71304 0.239 5.84104 -0.177 5.83404 0.794 -0.068 9.157 0.113 4.725 13.095 6.049 2.452 0.25 2.708 -0.385 2.884 -5.832 0.038 -1.169 0.227 -0.758 5.186 -0.838 1.136 -0.018 0.719 -0.023 0.617 15.908 -0.021 3.305 0.069 1.611 -27.60604 1.911 -1.19 0.013 -0.798 0.069 -0.798 -8.974h0.067Z" stroke-width="1"></path><path id="vector_29" fill="#000000" d="M16.531 146.858c0.083 -2.821 0.083 -3.246 0.965 -3.263 12.514 -0.235 12.542 -0.635 12.485 0.721 -0.134 3.207 0.004 3.53 -1.146 3.528 -12.174 -0.024 -12.36 0.946 -12.304 -0.986Zm1.258 -1.319c0.12 0.461 -0.319 1.257 0.758 1.192 8.879 -0.537 10.51 0.448 10.185 -0.819 -0.121 -0.469 0.313 -1.252 -0.75 -1.215 -9.608 0.34 -10.484 -0.271 -10.193 0.842Z" stroke-width="1"></path></g><g id="prroduct 2"><path id="vector_30" fill="#000000" d="M144.518 137.763c0.184 -0.54 0.294 -1.476 0.619 -2.057 0.148 -0.262 0.306 -0.573 -0.054 -0.756 -0.806 -0.41 -1.154 1.787 -1.271 2.688 -0.065 0.497 0.453 0.869 0.706 0.125Z" stroke-width="1"></path><path id="vector_31" fill="#000000" d="M192.804 135.736c-1.59 -1.304 1.025 -3.092 -1.467 -4.263 -2.698 -1.269 -4.976 2.532 -4.317 2.982 0.658 0.45 1.09 -1.867 3.023 -2.127 1.646 -0.223 1.123 1.363 0.879 2.371 -0.504 2.09 2.015 1.302 1.648 3.499 -0.15 0.9 -1.167 2.146 -1.823 2.177 -0.95 0.043 -1.902 0.01 -2.89 0.01 1.89 -5.634 -0.681 -3.063 -1.45 -6.43 -0.292 -1.275 -1.227 -1.802 -2.517 -1.485 -1.781 0.436 -2.294 1.392 -3.878 2.759 -1.3 1.123 -1.709 -0.692 -3.348 0.521 -1.296 0.956 -1.921 2.333 -2.35 3.811 -0.304 1.048 -0.333 1.106 -1.484 0.804 0.686 -1.167 1.323 -4.106 0.538 -5.413 -0.996 -1.654 -3.167 -1.742 -4.638 -0.194 -0.321 0.338 -0.629 0.69 -0.961 1.019 -0.829 0.827 -1.94 -2.677 -3.634 0.375 -1.638 2.95 0.094 4.624 -1.413 4.503 -0.652 -0.052 -3.836 0.441 -4.336 -1.598 -0.244 -0.986 -0.908 -1.696 -1.777 -2.192 -0.225 -0.127 -0.527 -0.523 -0.802 -0.073 -0.76 1.244 1.188 0.5 1.602 2.93 0.121 0.706 0.017 0.475 -5.842 0.452 -0.863 -0.002 0.415 -2.243 2.26 -2.662 0.058 -0.013 0.178 -0.697 0.295 -1.253 -1.338 1.038 -1.671 -0.298 -2.309 -0.698 -1.636 -1.027 -4.078 -0.712 -5.413 0.692 -0.19 0.2 -0.315 0.523 -0.7 0.383 -0.581 -0.212 -0.579 0.198 -0.677 0.588 -0.312 1.256 1.513 -0.111 3.371 3.029h-7.611c0.736 -1.312 1.697 -1.996 2.335 -2.257 0.165 -0.068 0.379 -1.154 0.184 -1.46 -1.038 -1.635 -3.319 -2.292 -5.024 -1.402 0.015 -0.004 -1.06 0.258 -1.899 0.427 -0.486 0.098 -0.68 1.181 -0.15 1.51 0.649 0.403 1.507 0.907 1.92 2.604 0.256 1.052 -0.017 0.579 -6.397 0.758 -0.619 0.019 -0.671 -0.179 -0.515 -0.702 0.714 -2.377 1.744 -2.333 2.274 -2.853 0.218 -0.214 0.514 -0.63 0.412 -1.183 -1.854 0.529 -3.123 1.684 -3.442 3.525 -0.273 1.587 -0.965 1.311 -1.921 1.34 -1.829 0.056 -1.461 -0.108 -1.606 21.603 -0.013 1.915 -0.227 1.715 7.307 1.8 62.739 0.709 57.982 0.791 57.832 -0.485 -0.117 -0.986 0.315 -5.268 0.087 -21.801 -0.006 -0.471 0.085 -0.781 0.485 -1.108 1.544 -1.265 1.642 -3.599 0.138 -4.832l0.001 -0.001Zm-15.687 0.988c1.188 -1.08 1.523 0.862 3.344 -0.429 1.081 -0.767 1.886 -1.813 2.75 -2.298 2.988 -1.675 1.25 1.867 3.348 2.682 0.717 0.279 0.675 1.188 0.446 1.846 -0.779 2.242 -0.375 1.882 -5.578 1.882 0.463 -0.797 1.441 -1.493 1.936 -2.236 0.684 -1.027 0.04 -1.617 -1.201 -0.248 -1.263 1.395 -2.12 2.516 -2.12 2.516l-4.86 -0.005c0.29 -1.45 0.844 -2.719 1.934 -3.708l0.001 -0.002Zm-10.833 -0.311c1.231 1.71 2.45 -0.144 3.34 -0.978 1.031 -0.967 2.607 -0.744 2.769 1.023 0.094 1.01 -0.127 4.125 -1.142 4.096 -2.048 -0.056 -2.748 0.269 -2.317 -0.494 0.985 -1.742 1.881 -3.504 0.334 -2.234 -1.343 1.103 -1.023 2.821 -2.408 2.749 -2.269 -0.119 -2.707 0.319 -2.717 -0.46 -0.023 -1.821 1.077 -5.18 2.14 -3.703l0.001 0.001Zm-19.361 0.598c2 -1.965 5.807 -0.429 4.544 0.825 -1.225 1.217 -0.921 2.325 -1.371 2.338 -0.879 0.025 0.283 -0.904 -3.173 -3.163Zm-9.043 -0.706c1.806 -1.921 5.722 0.115 4.273 0.936 -2.227 1.265 -1.888 2.886 -2.609 3.061 -0.392 -3.235 -2.279 -3.342 -1.665 -3.996l0.001 -0.001Zm21.057 6.088c-0.679 20.342 0.808 20.348 -1.163 20.328 -29.416 -0.309 -29.416 0.512 -29.406 -0.769 0.056 -6.501 0.273 -13.001 0.133 -19.504 -0.008 -0.45 0.029 -0.667 0.581 -0.659 30.208 0.46 29.909 -1.004 29.855 0.604Zm32 0.079c-0.616 18.794 0.22 20.474 -0.944 20.465 -9.835 -0.071 -18.957 -0.146 -28.912 -0.1 -1.573 0.006 -0.1 -0.561 -0.579 -20.224 -0.027 -1.113 -0.013 -0.5 23.816 -0.648 6.532 -0.042 6.651 -0.452 6.62 0.506l-0.001 0.001Z" stroke-width="1"></path><path id="vector_32" fill="#000000" d="M155.528 135.215c0.163 -0.127 0.358 -0.393 0.59 -0.129 0.172 0.196 -0.007 0.381 -0.131 0.54 -0.395 0.502 -1.856 3.275 -0.986 2.844 0.258 0.117 0.665 -0.306 0.765 0.063 0.184 0.679 -1.993 1.11 -2.14 0.669 -0.132 -0.398 0.267 -0.238 0.721 -0.631 -0.583 -0.317 0.206 -2.596 1.181 -3.355v-0.001Z" stroke-width="1"></path><path id="vector_33" fill="#000000" d="M134.38 136.551c0.028 -1.782 0.627 -3.022 1.072 -2.864 0.264 0.094 0.218 0.332 0.123 0.608 -0.117 0.342 -0.406 1.961 -0.419 2.223 -0.022 0.44 -0.798 1.448 -0.776 0.033Z" stroke-width="1"></path><path id="vector_34" fill="#000000" d="M135.527 137.922c0.338 -0.157 0.957 -0.074 0.17 0.533 -1.111 0.856 -3.236 -0.405 -1.992 -0.806 0.383 -0.123 0.737 0.779 1.822 0.273Z" stroke-width="1"></path><path id="vector_35" fill="#000000" d="M143.752 138.653c0.85 0.119 1.682 -0.396 1.856 -0.088 0.515 0.913 -2.869 1.304 -2.604 0.194 0.098 -0.41 0.488 -0.096 0.748 -0.106Z" stroke-width="1"></path><path id="vector_36" fill="#103164" d="M129.967 152.767c0 -9.526 -0.442 -10.031 1.179 -9.899 4.519 0.366 4.9 -0.302 4.953 0.886 0.137 3.098 -1.181 6.086 1.786 6.188 4.921 0.17 5.103 0.497 12.989 -0.142 1.227 -0.099 1.296 -1.408 1.55 -5.951 0.046 -0.821 0.2 -0.535 4.065 -0.573 0.421 -0.004 0.698 0.113 0.665 0.585 -0.233 3.315 0.215 6.609 0.271 9.916 0.129 7.607 0.556 7.426 -1.148 7.411 -8.916 -0.076 -10.893 -0.254 -25.63 0.131 -0.942 0.025 -0.69 0.054 -0.69 -8.553l0.01 0.001Z" stroke-width="1"></path><path id="vector_37" fill="#000000" d="M137.274 147.466c0.178 -2.571 -0.083 -3.313 0.992 -3.332 12.316 -0.218 12.448 -0.598 12.441 0.665 -0.016 3.15 -0.123 3.594 -1.077 3.59 -11.168 -0.045 -12.491 1.029 -12.356 -0.923Zm12.183 -1.013c-0.12 -0.442 0.338 -1.212 -0.663 -1.194 -10.289 0.19 -10.492 -0.196 -10.27 0.908 0.098 0.486 -0.206 1.154 0.763 1.117 10.168 -0.386 10.455 0.216 10.17 -0.831Z" stroke-width="1"></path><path id="vector_38" fill="#103164" d="M161.733 160.291c-0.183 -10.441 -0.34 -4.003 -0.179 -16.31 0.01 -0.792 0.173 -0.607 5.403 -0.531 1.288 0.019 0.349 0.95 1.127 5.39 0.236 1.346 2.169 1.781 3.409 1.744 9.901 -0.298 12.976 1.159 12.789 -2.338 -0.209 -3.9 -1.617 -4.732 -0.169 -4.703 5.613 0.115 5.834 -0.408 5.753 0.779 -0.035 0.517 0.03 0.012 -0.594 16.321 -0.031 0.819 0.029 0.557 -10.789 0.569 -16.802 0.019 -16.724 0.558 -16.75 -0.921Z" stroke-width="1"></path><path id="vector_39" fill="#000000" d="M169.274 147.754c0.182 -2.746 -0.09 -3.386 1.006 -3.407 12.158 -0.226 12.479 -0.594 12.427 0.698 -0.136 3.338 -0.013 3.562 -1.1 3.565 -11.112 0.026 -12.455 0.99 -12.333 -0.856Zm1.238 -1.511c0.094 0.529 -0.283 1.306 0.869 1.261 9.839 -0.391 10.328 0.256 10.083 -0.846 -0.108 -0.485 0.267 -1.221 -0.788 -1.169 -9.657 0.474 -10.36 -0.352 -10.164 0.754Z" stroke-width="1"></path></g></g></svg>